<?xml version="1.0" encoding="UTF-8" standalone="no"?>
<!-- Created with Inkscape (http://www.inkscape.org/) -->

<svg
   xmlns:dc="http://purl.org/dc/elements/1.1/"
   xmlns:cc="http://creativecommons.org/ns#"
   xmlns:rdf="http://www.w3.org/1999/02/22-rdf-syntax-ns#"
   xmlns:svg="http://www.w3.org/2000/svg"
   xmlns="http://www.w3.org/2000/svg"
   xmlns:sodipodi="http://sodipodi.sourceforge.net/DTD/sodipodi-0.dtd"
   xmlns:inkscape="http://www.inkscape.org/namespaces/inkscape"
   width="16"
   height="16"
   id="svg3049"
   version="1.1"
   inkscape:version="0.91 r13725"
   sodipodi:docname="apache.svg"
   inkscape:export-filename="apache.png"
   inkscape:export-xdpi="90"
   inkscape:export-ydpi="90">
  <defs
     id="defs3051">
    <style
       type="text/css"
       id="current-color-scheme">
      .ColorScheme-Text {
        color:#4d4d4d;
      }
      .ColorScheme-Background {
        color:#eff0f1;
      }
      .ColorScheme-Highlight {
        color:#3daee9;
      }
      .ColorScheme-ViewText {
        color:#31363b;
      }
      .ColorScheme-ViewBackground {
        color:#fcfcfc;
      }
      .ColorScheme-ViewHover {
        color:#93cee9;
      }
      .ColorScheme-ViewFocus{
        color:#3daee9;
      }
      .ColorScheme-ButtonText {
        color:#31363b;
      }
      .ColorScheme-ButtonBackground {
        color:#eff0f1;
      }
      .ColorScheme-ButtonHover {
        color:#93cee9;
      }
      .ColorScheme-ButtonFocus{
        color:#3daee9;
      }
      </style>
    <linearGradient
       id="e"
       y2="638.44"
       gradientUnits="userSpaceOnUse"
       x2="-6797.2002"
       gradientTransform="matrix(-0.21591,0.044142,-0.044142,-0.21591,-974.83,437.49)"
       y1="638.44"
       x1="-9035.5">
      <stop
         style="stop-color:#282662"
         offset="0"
         id="stop41" />
      <stop
         style="stop-color:#662E8D"
         offset=".095484"
         id="stop43" />
      <stop
         style="stop-color:#9F2064"
         offset=".7882"
         id="stop45" />
      <stop
         style="stop-color:#CD2032"
         offset=".9487"
         id="stop47" />
    </linearGradient>
    <linearGradient
       id="i"
       y2="1395.6"
       gradientUnits="userSpaceOnUse"
       x2="-4570.1001"
       gradientTransform="matrix(-0.21591,0.044142,-0.044142,-0.21591,-974.83,437.49)"
       y1="697.54999"
       x1="-5167.1001">
      <stop
         style="stop-color:#F69923"
         offset="0"
         id="stop7" />
      <stop
         style="stop-color:#F79A23"
         offset=".3123"
         id="stop9" />
      <stop
         style="stop-color:#E97826"
         offset=".8383"
         id="stop11" />
    </linearGradient>
    <linearGradient
       id="h"
       y2="620.5"
       gradientUnits="userSpaceOnUse"
       x2="-5326.2002"
       gradientTransform="matrix(-0.21591,0.044142,-0.044142,-0.21591,-974.83,437.49)"
       y1="620.5"
       x1="-9585.2998">
      <stop
         style="stop-color:#9E2064"
         offset=".3233"
         id="stop14" />
      <stop
         style="stop-color:#C92037"
         offset=".6302"
         id="stop16" />
      <stop
         style="stop-color:#CD2335"
         offset=".7514"
         id="stop18" />
      <stop
         style="stop-color:#E97826"
         offset="1"
         id="stop20" />
    </linearGradient>
    <linearGradient
       id="f"
       y2="580.82001"
       gradientUnits="userSpaceOnUse"
       x2="-5087"
       gradientTransform="matrix(-0.21591,0.044142,-0.044142,-0.21591,-974.83,437.49)"
       y1="580.82001"
       x1="-9346.0996">
      <stop
         style="stop-color:#9E2064"
         offset=".3233"
         id="stop32" />
      <stop
         style="stop-color:#C92037"
         offset=".6302"
         id="stop34" />
      <stop
         style="stop-color:#CD2335"
         offset=".7514"
         id="stop36" />
      <stop
         style="stop-color:#E97826"
         offset="1"
         id="stop38" />
    </linearGradient>
    <linearGradient
       id="d"
       y2="1021.6"
       gradientUnits="userSpaceOnUse"
       x2="-5087"
       gradientTransform="matrix(-0.21591,0.044142,-0.044142,-0.21591,-974.83,437.49)"
       y1="1021.6"
       x1="-9346.0996">
      <stop
         style="stop-color:#9E2064"
         offset=".3233"
         id="stop50" />
      <stop
         style="stop-color:#C92037"
         offset=".6302"
         id="stop52" />
      <stop
         style="stop-color:#CD2335"
         offset=".7514"
         id="stop54" />
      <stop
         style="stop-color:#E97826"
         offset="1"
         id="stop56" />
    </linearGradient>
    <linearGradient
       id="c"
       y2="999.72998"
       gradientUnits="userSpaceOnUse"
       x2="-5351.2002"
       gradientTransform="matrix(-0.21591,0.044142,-0.044142,-0.21591,-974.83,437.49)"
       y1="999.72998"
       x1="-9610.2998">
      <stop
         style="stop-color:#9E2064"
         offset=".3233"
         id="stop59" />
      <stop
         style="stop-color:#C92037"
         offset=".6302"
         id="stop61" />
      <stop
         style="stop-color:#CD2335"
         offset=".7514"
         id="stop63" />
      <stop
         style="stop-color:#E97826"
         offset="1"
         id="stop65" />
    </linearGradient>
    <linearGradient
       id="b"
       y2="1152.7"
       gradientUnits="userSpaceOnUse"
       x2="-5087"
       gradientTransform="matrix(-0.21591,0.044142,-0.044142,-0.21591,-974.83,437.49)"
       y1="1152.7"
       x1="-9346.0996">
      <stop
         style="stop-color:#9E2064"
         offset=".3233"
         id="stop68" />
      <stop
         style="stop-color:#C92037"
         offset=".6302"
         id="stop70" />
      <stop
         style="stop-color:#CD2335"
         offset=".7514"
         id="stop72" />
      <stop
         style="stop-color:#E97826"
         offset="1"
         id="stop74" />
    </linearGradient>
    <linearGradient
       id="a"
       y2="1137.7"
       gradientUnits="userSpaceOnUse"
       x2="-5087"
       gradientTransform="matrix(-0.21591,0.044142,-0.044142,-0.21591,-974.83,437.49)"
       y1="1137.7"
       x1="-9346.0996">
      <stop
         style="stop-color:#9E2064"
         offset=".3233"
         id="stop77" />
      <stop
         style="stop-color:#C92037"
         offset=".6302"
         id="stop79" />
      <stop
         style="stop-color:#CD2335"
         offset=".7514"
         id="stop81" />
      <stop
         style="stop-color:#E97826"
         offset="1"
         id="stop83" />
    </linearGradient>
    <linearGradient
       id="j"
       y2="1134.7"
       gradientUnits="userSpaceOnUse"
       x2="-6012"
       gradientTransform="matrix(-0.21591,0.044142,-0.044142,-0.21591,-974.83,437.49)"
       y1="1134.7"
       x1="-6953.3999">
      <stop
         style="stop-color:#9E2064"
         offset=".3233"
         id="stop86" />
      <stop
         style="stop-color:#C92037"
         offset=".6302"
         id="stop88" />
      <stop
         style="stop-color:#CD2335"
         offset=".7514"
         id="stop90" />
      <stop
         style="stop-color:#E97826"
         offset="1"
         id="stop92" />
    </linearGradient>
    <linearGradient
       id="g"
       y2="1047.7"
       gradientUnits="userSpaceOnUse"
       x2="-6533.2002"
       gradientTransform="matrix(-0.21591,0.044142,-0.044142,-0.21591,-974.83,437.49)"
       y1="1047.7"
       x1="-9071.2002">
      <stop
         style="stop-color:#282662"
         offset="0"
         id="stop23" />
      <stop
         style="stop-color:#662E8D"
         offset=".095484"
         id="stop25" />
      <stop
         style="stop-color:#9F2064"
         offset=".7882"
         id="stop27" />
      <stop
         style="stop-color:#CD2032"
         offset=".9487"
         id="stop29" />
    </linearGradient>
  </defs>
  <sodipodi:namedview
     id="base"
     pagecolor="#ffffff"
     bordercolor="#666666"
     borderopacity="1.0"
     inkscape:pageopacity="0.0"
     inkscape:pageshadow="2"
     inkscape:zoom="24.411306"
     inkscape:cx="-0.89468282"
     inkscape:cy="11.199215"
     inkscape:document-units="px"
     inkscape:current-layer="layer1"
     showgrid="true"
     fit-margin-top="0"
     fit-margin-left="0"
     fit-margin-right="0"
     fit-margin-bottom="0"
     inkscape:window-width="1878"
     inkscape:window-height="1051"
     inkscape:window-x="0"
     inkscape:window-y="0"
     inkscape:window-maximized="1"
     inkscape:showpageshadow="false"
     borderlayer="true"
     inkscape:snap-bbox="true"
     inkscape:snap-global="true"
     inkscape:object-nodes="true">
    <inkscape:grid
       type="xygrid"
       id="grid4085" />
    <sodipodi:guide
       position="2.0000044,14.00003"
       orientation="12,0"
       id="guide4075" />
    <sodipodi:guide
       position="2.0000044,2.0000296"
       orientation="0,12"
       id="guide4077" />
    <sodipodi:guide
       position="14.000004,2.0000296"
       orientation="-12,0"
       id="guide4079" />
    <sodipodi:guide
       position="14.000004,14.00003"
       orientation="0,-12"
       id="guide4081" />
  </sodipodi:namedview>
  <metadata
     id="metadata3054">
    <rdf:RDF>
      <cc:Work
         rdf:about="">
        <dc:format>image/svg+xml</dc:format>
        <dc:type
           rdf:resource="http://purl.org/dc/dcmitype/StillImage" />
        <dc:title></dc:title>
      </cc:Work>
    </rdf:RDF>
  </metadata>
  <g
     inkscape:label="Capa 1"
     inkscape:groupmode="layer"
     id="layer1"
     transform="translate(-421.71429,-531.79074)"
     style="opacity:1">
    <g
       style="enable-background:new"
       transform="matrix(-0.01773253,0.01023788,-0.01023788,-0.01773253,437.80873,533.55033)"
       id="g94">
      <path
         inkscape:connector-curvature="0"
         style="fill:url(#e)"
         d="m 656.71,-7.0909 c 20.267,-9.5939 39.714,-20.144 58.137,-31.855 0.64586,-0.42398 1.3003,-0.79943 1.9461,-1.2234 -7.5146,19.097 -3.8382,52.585 -3.7537,52.44 11.85,-34.711 26.515,-65.255 48.744,-84.672 8.4826,7.5928 14.923,21.83 20.214,39.882 2.6186,-24.849 -1.858,-38.732 -4.0514,-43.799 10.917,12.948 30.734,20.176 52.045,26.46 -23.946,-14.536 -39.792,-28.878 -46.004,-42.955 68.312,-21.018 142.29,-46.157 219.96,-74.026 -6.0925,-4.5911 -12.639,-5.1694 -19.442,-3.1706 -14.023,5.1017 -106.22,38.312 -231.64,76.244 -3.5629,1.0778 -7.1567,2.1511 -10.768,3.2375 -1.0067,0.30738 -2.0264,0.59708 -3.0153,0.89135 -13.174,3.9515 -26.666,7.9189 -40.462,11.92 -3.1433,0.90384 -6.2865,1.8077 -9.4475,2.7247 -0.0663,0.02188 -0.13246,0.04334 -0.18106,0.052 l -34.514,68.935 c 0.7115,-0.33546 1.4939,-0.72358 2.2408,-1.0853 z"
         id="path96" />
      <path
         inkscape:connector-curvature="0"
         style="fill:url(#i)"
         d="m 23.148,66.817 c 19.071,7.1961 39.608,9.0845 59.733,11.274 11.854,1.1234 23.738,1.9142 35.63,2.4926 8.1692,-17.104 16.338,-34.207 24.508,-51.311 -31.491,0.85648 -63.087,0.17618 -94.393,-3.5401 30.943,3.103 62.137,1.8494 93.129,0.17007 -22.37,-26.669 -46.909,-51.428 -71.93,-75.588 -23.519,11.839 -46.291,28.35 -58.634,52.244 -6.3001,14.546 -9.9508,31.534 -4.821,46.981 2.7562,7.894 9.065,14.16 16.773,17.277 z"
         id="path98" />
      <path
         inkscape:connector-curvature="0"
         style="fill:none"
         d="m 280.24,-67.689 c -0.15352,-0.13308 -0.28936,-0.27929 -0.4429,-0.41235 l 2.6202,2.831 c 0.23288,0.12909 0.43954,0.22281 0.65472,0.36504 -0.94684,-0.94406 -1.8983,-1.8573 -2.832,-2.7836 z"
         id="path100" />
      <path
         inkscape:connector-curvature="0"
         style="fill:none"
         d="m 368.72,-99.465 c 1.6889,1.4638 3.3155,3.0287 4.9198,4.6376 -1.6043,-1.6088 -3.2487,-3.1606 -4.9198,-4.6376 z"
         id="path102" />
      <path
         inkscape:connector-curvature="0"
         style="fill:none"
         d="m 640.89,-71.354 c -0.77256,0.21613 -1.5451,0.43223 -2.3045,0.66606 -15.919,4.505 -31.444,8.8006 -46.643,12.908 -17.052,4.6045 -33.627,8.9648 -49.773,13.089 -17.016,4.3579 -33.536,8.4584 -49.579,12.315 -16.829,4.0548 -33.127,7.826 -48.887,11.362 -12.825,2.8692 -25.296,5.586 -37.426,8.1328 -4.0333,0.85047 -8.0489,1.6878 -12.029,2.4989 -7.881,1.6182 -15.643,3.1754 -23.223,4.6806 -7.0114,1.385 -13.886,2.6958 -20.659,3.9587 -2.2547,0.43715 -4.4872,0.83034 -6.7242,1.2544 -0.3574,0.072954 -0.72796,0.12822 -1.0854,0.20118 l 2.2258,2.4101 -2.5583,5.1341 c 0.55154,-0.10716 1.0985,-0.18347 1.6632,-0.27291 10.236,-1.7727 20.516,-3.6333 30.84,-5.5819 5.9654,-1.1307 11.949,-2.2746 17.936,-3.4492 16.6,-3.2538 33.24,-6.675 49.89,-10.268 16.826,-3.614 33.632,-7.4045 50.376,-11.314 16.449,-3.8277 32.823,-7.7924 49.096,-11.819 16.242,-4.0316 32.358,-8.1608 48.306,-12.331 16.654,-4.3643 33.08,-8.7783 49.245,-13.247 3.6463,-1.0025 7.2925,-2.0049 10.926,-3.0251 13.032,-3.6261 25.843,-7.2535 38.464,-10.878 l 4.0558,-8.1098 -2.4975,-2.7025 c -0.37966,0.11693 -0.7594,0.23382 -1.1214,0.3376 -16.542,4.885 -32.709,9.5737 -48.514,14.048 z"
         id="path104" />
      <path
         inkscape:connector-curvature="0"
         style="fill:none"
         d="m 374.86,-93.622 c -0.012,-0.01769 -0.0309,-0.0044 -0.0441,-0.02219 0,0 0.012,0.01769 0.0441,0.02219 z"
         id="path106" />
      <path
         inkscape:connector-curvature="0"
         style="fill:#be202e"
         d="m 415.36,-112.67 c 2.517,2.3588 5.0819,4.8192 7.717,7.3373 0.012,0.0177 0.0441,0.0222 0.057,0.04 -1.2887,-1.2942 -2.5643,-2.5706 -3.8622,-3.8031 -1.2979,-1.2325 -2.5872,-2.4165 -3.9119,-3.5742 z"
         id="path108" />
      <path
         inkscape:connector-curvature="0"
         style="opacity:0.35;fill:#be202e"
         d="m 415.36,-112.67 c 2.517,2.3588 5.0819,4.8192 7.717,7.3373 0.012,0.0177 0.0441,0.0222 0.057,0.04 -1.2887,-1.2942 -2.5643,-2.5706 -3.8622,-3.8031 -1.2979,-1.2325 -2.5872,-2.4165 -3.9119,-3.5742 z"
         id="path110" />
      <path
         inkscape:connector-curvature="0"
         style="fill:#be202e"
         d="m 374.77,-93.666 c 0,0 0.012,0.01768 0.0309,0.0046 0.012,0.01769 0.0309,0.0044 0.0441,0.02219 -0.39436,-0.42092 -0.81102,-0.79786 -1.1923,-1.2011 -1.6175,-1.6266 -3.2618,-3.1783 -4.9198,-4.6376 1.9685,1.915 3.9986,3.8391 6.0373,5.8118 z"
         id="path112" />
      <path
         inkscape:connector-curvature="0"
         style="opacity:0.35;fill:#be202e"
         d="m 374.77,-93.666 c 0,0 0.012,0.01768 0.0309,0.0046 0.012,0.01769 0.0309,0.0044 0.0441,0.02219 -0.39436,-0.42092 -0.81102,-0.79786 -1.1923,-1.2011 -1.6175,-1.6266 -3.2618,-3.1783 -4.9198,-4.6376 1.9685,1.915 3.9986,3.8391 6.0373,5.8118 z"
         id="path114" />
      <path
         inkscape:connector-curvature="0"
         style="fill:url(#h)"
         d="m 294.05,14.992 c -16.961,2.5069 -33.723,4.7285 -50.218,6.643 -17.122,1.9948 -33.955,3.6385 -50.416,4.8964 -0.9569,0.07847 -1.9446,0.15235 -2.9192,0.24395 -16.218,1.2152 -32.064,2.0446 -47.489,2.4796 l -24.508,51.311 c 3.1595,0.15406 6.3543,0.2819 9.6108,0.41887 12.251,0.46429 25.27,0.74328 38.902,0.81409 15.365,0.07595 31.56,-0.1344 48.36,-0.60148 15.522,-0.45209 31.601,-1.1524 48.051,-2.1282 14.003,-0.83512 28.316,-1.8448 42.838,-3.0914 0.5424,-0.0455 1.068,-0.07818 1.6104,-0.12365 13.32,-22.17 22.89,-45.722 34.335,-68.583 -16.183,2.7801 -32.241,5.3583 -48.157,7.7211 z"
         id="path116" />
      <path
         inkscape:connector-curvature="0"
         style="fill:url(#f)"
         d="m 639.56,-61.012 c -16.179,4.4506 -32.604,8.8647 -49.245,13.247 -15.935,4.1875 -32.046,8.2859 -48.306,12.331 -16.26,4.0447 -32.63,7.9786 -49.096,11.819 -16.744,3.9098 -33.563,7.6825 -50.376,11.314 -16.632,3.5798 -33.29,7.0141 -49.89,10.268 -5.9877,1.1747 -11.971,2.3185 -17.936,3.4492 -10.325,1.9485 -20.605,3.8091 -30.84,5.5819 -0.55156,0.10715 -1.0985,0.18346 -1.6632,0.2729 l -34.33,68.583 c 1.0848,-0.091 2.1565,-0.19968 3.2413,-0.29065 15.39,-1.3696 31.015,-2.9407 46.779,-4.8063 15.922,-1.8736 31.965,-4.0286 48.062,-6.4433 13.582,-2.0319 27.162,-4.2534 40.724,-6.6821 2.7532,-0.50491 5.4578,-1.0013 8.1802,-1.5108 16.983,-3.1812 33.094,-6.6493 48.365,-10.29 17.296,-4.1271 33.51,-8.4938 48.609,-12.995 9.938,-2.9512 19.414,-5.9711 28.431,-8.9803 7.6399,-2.6465 15.232,-5.3947 22.71,-8.2228 17.654,-6.6419 34.84,-13.842 51.5,-21.64 11.64,-22.613 23.669,-45.588 34.514,-68.935 -12.622,3.624 -25.468,7.2775 -38.5,10.904 -3.6155,1.007 -7.2794,2.0226 -10.926,3.0251 z"
         id="path118" />
      <path
         inkscape:connector-curvature="0"
         style="fill:url(#d)"
         d="m 343.66,-0.50096 c 2.2193,-0.41089 4.4564,-0.83491 6.7242,-1.2543 6.7596,-1.2806 13.634,-2.5914 20.659,-3.9587 7.5938,-1.4876 15.325,-3.0493 23.223,-4.6806 3.9802,-0.81109 7.965,-1.653 12.029,-2.4989 12.131,-2.5468 24.602,-5.2637 37.426,-8.1328 15.759,-3.5362 32.058,-7.3074 48.887,-11.362 16.043,-3.8564 32.564,-7.9569 49.579,-12.315 16.146,-4.1247 32.739,-8.4981 49.773,-13.089 15.198,-4.1078 30.724,-8.4034 46.643,-12.908 0.77254,-0.21613 1.5451,-0.43223 2.3045,-0.66606 15.804,-4.4748 31.971,-9.1635 48.483,-14.053 0.3797,-0.1169 0.7594,-0.23382 1.1214,-0.33761 l -19.143,-20.676 c 0.2395,0.5082 0.5278,1.0079 0.7674,1.5161 -23.296,-24.428 -69.92,-45.278 -111.88,-49.997 -19.338,-2.1783 -39.994,-1.8427 -62.413,0.92504 -16.69,2.0589 -34.353,5.4699 -53.191,10.219 -16.464,4.1405 -33.814,9.2679 -52.184,15.425 7.8381,3.7633 15.478,9.0727 22.931,15.646 1.2939,1.1531 2.614,2.3417 3.9119,3.5742 1.2979,1.2325 2.5912,2.4958 3.8622,3.8031 -0.012,-0.0177 -0.0441,-0.0222 -0.0569,-0.04 -28.247,-17.932 -58.622,-19.938 -89.973,-14.526 9.3924,3.2694 23.242,9.6268 35.603,20.379 1.6889,1.4639 3.3155,3.0287 4.9198,4.6376 0.41208,0.40779 0.81102,0.79786 1.1923,1.2011 -0.012,-0.01769 -0.0309,-0.0045 -0.0441,-0.02217 0,0 -0.012,-0.01769 -0.0309,-0.0045 -10.105,-6.0061 -19.623,-10.334 -29.164,-13.137 -2.0374,-0.60186 -4.084,-1.1421 -6.1444,-1.5898 -3.1256,-0.70044 -6.2609,-1.229 -9.4323,-1.6212 -2.0262,-0.25361 -4.0614,-0.44555 -6.1236,-0.56271 -4.8248,-0.29107 -9.7616,-0.2522 -14.877,0.1383 -1.5609,0.1148 -3.1265,0.26044 -4.7274,0.43231 -2.2279,0.36236 -4.3941,0.73388 -6.5295,1.11 -9.6447,1.7187 -18.003,3.5811 -25.18,5.4456 -3.5886,0.93227 -6.8597,1.8486 -9.8489,2.7754 -1.1876,0.35928 -2.3445,0.72314 -3.4528,1.0785 -3.3117,1.0836 -6.2044,2.1035 -8.6957,3.0727 -3.7281,1.4472 -6.5694,2.7582 -8.5675,3.8006 1.3027,0.35098 2.6974,0.8259 4.1661,1.4378 10.15,4.2169 23.891,14.166 33.591,23.215 l -17.583,-18.98 17.583,18.98 c 0.15354,0.13308 0.28938,0.2793 0.44292,0.41237 0.95142,0.91323 1.8983,1.8573 2.8628,2.7882 -0.23288,-0.1291 -0.43954,-0.17283 -0.65472,-0.31504 l 60.164,64.89 c 0.33972,-0.059824 0.67944,-0.11965 1.05,-0.17492 z"
         id="path120" />
      <path
         inkscape:connector-curvature="0"
         style="fill:url(#c)"
         d="m 141.76,25.871 c 14.308,-0.86871 30.359,-2.1245 48.242,-3.9432 0.92606,-0.08306 1.8876,-0.19234 2.8313,-0.2885 15.471,-1.594 32.288,-3.5552 50.488,-6.02 15.721,-2.1083 32.439,-4.5725 50.245,-7.4582 15.511,-2.5017 31.888,-5.3162 49.043,-8.4876 l -59.49,-64.569 c -24.736,-13.567 -40.821,-16.794 -59.841,-16.547 -5.1755,0.16099 -10.523,0.42238 -15.982,0.79335 -16.711,1.142 -34.469,3.2787 -51.604,6.1064 -16.54,2.7429 -32.435,6.1328 -46.23,9.9134 -8.7714,2.4155 -16.684,4.99 -23.332,7.642 -5.8619,2.3434 -11.266,4.7863 -16.287,7.3018 25.101,24.05 54.589,54.423 71.931,75.557 z"
         id="path122" />
      <path
         inkscape:connector-curvature="0"
         style="fill:#be202e"
         d="m 419.27,-109.1 c 1.2979,1.2325 2.5912,2.4958 3.8622,3.8031 -1.271,-1.3073 -2.5643,-2.5706 -3.8622,-3.8031 z"
         id="path124" />
      <path
         inkscape:connector-curvature="0"
         style="opacity:0.35;fill:#be202e"
         d="m 419.27,-109.1 c 1.2979,1.2325 2.5912,2.4958 3.8622,3.8031 -1.271,-1.3073 -2.5643,-2.5706 -3.8622,-3.8031 z"
         id="path126" />
      <path
         inkscape:connector-curvature="0"
         style="fill:url(#b)"
         d="m 419.27,-109.1 c 1.2979,1.2325 2.5912,2.4958 3.8622,3.8031 -1.271,-1.3073 -2.5643,-2.5706 -3.8622,-3.8031 z"
         id="path128" />
      <path
         inkscape:connector-curvature="0"
         style="fill:#be202e"
         d="m 374.86,-93.622 c -0.39438,-0.42091 -0.81102,-0.79787 -1.1923,-1.2011 0.38126,0.4032 0.7802,0.79328 1.1923,1.2011 z"
         id="path130" />
      <path
         inkscape:connector-curvature="0"
         style="opacity:0.35;fill:#be202e"
         d="m 374.86,-93.622 c -0.39438,-0.42091 -0.81102,-0.79787 -1.1923,-1.2011 0.38126,0.4032 0.7802,0.79328 1.1923,1.2011 z"
         id="path132" />
      <path
         inkscape:connector-curvature="0"
         style="fill:url(#a)"
         d="m 374.86,-93.622 c -0.39438,-0.42091 -0.81102,-0.79787 -1.1923,-1.2011 0.38126,0.4032 0.7802,0.79328 1.1923,1.2011 z"
         id="path134" />
      <path
         inkscape:connector-curvature="0"
         style="fill:#be202e"
         d="m 374.81,-93.662 c 0,0 -0.012,-0.01769 -0.0309,-0.0045 0,0 0.012,0.01769 0.0309,0.0045 z"
         id="path136" />
      <path
         inkscape:connector-curvature="0"
         style="opacity:0.35;fill:#be202e"
         d="m 374.81,-93.662 c 0,0 -0.012,-0.01769 -0.0309,-0.0045 0,0 0.012,0.01769 0.0309,0.0045 z"
         id="path138" />
      <path
         inkscape:connector-curvature="0"
         style="fill:url(#j)"
         d="m 374.81,-93.662 c 0,0 -0.012,-0.01769 -0.0309,-0.0045 0,0 0.012,0.01769 0.0309,0.0045 z"
         id="path140" />
      <path
         inkscape:connector-curvature="0"
         style="fill:url(#g)"
         d="m 697.74,-87.882 c 12.856,-3.8255 25.903,-7.7645 39.192,-11.856 0.1987,-0.06501 0.3797,-0.1169 0.5784,-0.18193 1.8809,-0.57144 3.7485,-1.1606 5.6293,-1.732 8.9497,-2.7671 16.955,-5.3279 35.178,-11.129 -2.3417,-10.966 2.6186,-24.849 9.1692,-39.363 -11.075,9.2259 -18.387,22.082 -20.063,37.399 -28.142,-41.768 -64.174,-69.017 -107.07,-65.115 -3.8322,0.34468 -7.6833,0.92288 -11.624,1.7871 16.438,0.48738 28.367,7.3631 41.449,27.265 0.0441,0.0223 0.101,0.0623 0.1451,0.0846 -0.0441,-0.0223 -0.101,-0.0623 -0.1451,-0.0846 -33.43,-18.78 -55.964,-23.938 -85.227,-21.557 -6.9364,0.56118 -14.25,1.539 -22.182,2.866 43.476,5.8729 71.791,29.037 88.586,63.086 l 0.7758,1.4939 18.367,19.182 c 2.4192,-0.69629 4.8254,-1.4103 7.2492,-2.1374 z"
         id="path144" />
    </g>
  </g>
  <g
     inkscape:groupmode="layer"
     id="layer2"
     inkscape:label="Calque 1" />
</svg>
