/* XPM */
static char * fusiondirectory_xpm[] = {
"32 32 204 2",
"  	c None",
". 	c #F5F5F5",
"+ 	c #F3F3F3",
"@ 	c #D4D4D4",
"# 	c #C3C3C3",
"$ 	c #F2F2F2",
"% 	c #DFDFDF",
"& 	c #5F5F5F",
"* 	c #5C5C5C",
"= 	c #EFEFEF",
"- 	c #DEDEDE",
"; 	c #DDDDDD",
"> 	c #DCDCDC",
", 	c #F4F4F4",
"' 	c #E6E6E6",
") 	c #4F4F4F",
"! 	c #505050",
"~ 	c #EBEBEB",
"{ 	c #616161",
"] 	c #8F8F8F",
"^ 	c #C7C7C7",
"/ 	c #929292",
"( 	c #E0E0E0",
"_ 	c #E7E7E7",
": 	c #BABABA",
"< 	c #B4B4B4",
"[ 	c #EDEDED",
"} 	c #606060",
"| 	c #8D8D8D",
"1 	c #A1A1A1",
"2 	c #A9A9A9",
"3 	c #F1F1F1",
"4 	c #D2D2D2",
"5 	c #757575",
"6 	c #8A8A8A",
"7 	c #EEEEEE",
"8 	c #D5D5D5",
"9 	c #ECECEC",
"0 	c #181818",
"a 	c #6B6B6B",
"b 	c #8C8C8C",
"c 	c #D0D0D0",
"d 	c #B5B5B5",
"e 	c #202020",
"f 	c #828282",
"g 	c #D6D6D6",
"h 	c #A4A4A4",
"i 	c #2B2B2B",
"j 	c #484848",
"k 	c #555555",
"l 	c #2E2E2E",
"m 	c #636363",
"n 	c #898989",
"o 	c #878787",
"p 	c #B3B3B3",
"q 	c #DBDBDB",
"r 	c #D8D8D8",
"s 	c #272727",
"t 	c #C0C0C0",
"u 	c #D1D1D1",
"v 	c #5D5D5D",
"w 	c #141414",
"x 	c #848484",
"y 	c #454545",
"z 	c #242424",
"A 	c #121212",
"B 	c #909090",
"C 	c #D3D3D3",
"D 	c #F0F0F0",
"E 	c #E3E3E3",
"F 	c #EAEAEA",
"G 	c #797979",
"H 	c #5A5A5A",
"I 	c #262626",
"J 	c #151515",
"K 	c #1F1F1F",
"L 	c #1A1A1A",
"M 	c #A5A5A5",
"N 	c #BFBFBF",
"O 	c #C9C9C9",
"P 	c #D9D9D9",
"Q 	c #808080",
"R 	c #161616",
"S 	c #3F3F3F",
"T 	c #525252",
"U 	c #C6C6C6",
"V 	c #E9E9E9",
"W 	c #2A2A2A",
"X 	c #353535",
"Y 	c #4B4B4B",
"Z 	c #838383",
"` 	c #6F6F6F",
" .	c #C5C5C5",
"..	c #696969",
"+.	c #090909",
"@.	c #303030",
"#.	c #252525",
"$.	c #000000",
"%.	c #6A6A6A",
"&.	c #E8E8E8",
"*.	c #E1E1E1",
"=.	c #CFCFCF",
"-.	c #0E0E0E",
";.	c #070707",
">.	c #292929",
",.	c #7B7B7B",
"'.	c #ACACAC",
").	c #686868",
"!.	c #BDBDBD",
"~.	c #8B8B8B",
"{.	c #777777",
"].	c #9D9D9D",
"^.	c #B8B8B8",
"/.	c #767676",
"(.	c #3D3D3D",
"_.	c #818181",
":.	c #D7D7D7",
"<.	c #424242",
"[.	c #171717",
"}.	c #363636",
"|.	c #CACACA",
"1.	c #9C9C9C",
"2.	c #6C6C6C",
"3.	c #ADADAD",
"4.	c #B0B0B0",
"5.	c #868686",
"6.	c #E2E2E2",
"7.	c #414141",
"8.	c #3E3E3E",
"9.	c #393939",
"0.	c #595959",
"a.	c #2C2C2C",
"b.	c #383838",
"c.	c #A2A2A2",
"d.	c #7D7D7D",
"e.	c #C2C2C2",
"f.	c #AEAEAE",
"g.	c #ABABAB",
"h.	c #9A9A9A",
"i.	c #7E7E7E",
"j.	c #717171",
"k.	c #B2B2B2",
"l.	c #1D1D1D",
"m.	c #282828",
"n.	c #B6B6B6",
"o.	c #999999",
"p.	c #464646",
"q.	c #7A7A7A",
"r.	c #707070",
"s.	c #7C7C7C",
"t.	c #A3A3A3",
"u.	c #474747",
"v.	c #0D0D0D",
"w.	c #A6A6A6",
"x.	c #343434",
"y.	c #191919",
"z.	c #BCBCBC",
"A.	c #989898",
"B.	c #787878",
"C.	c #CBCBCB",
"D.	c #737373",
"E.	c #6E6E6E",
"F.	c #676767",
"G.	c #2D2D2D",
"H.	c #323232",
"I.	c #888888",
"J.	c #7F7F7F",
"K.	c #9E9E9E",
"L.	c #C8C8C8",
"M.	c #979797",
"N.	c #515151",
"O.	c #111111",
"P.	c #CECECE",
"Q.	c #C4C4C4",
"R.	c #949494",
"S.	c #5B5B5B",
"T.	c #535353",
"U.	c #9F9F9F",
"V.	c #939393",
"W.	c #4E4E4E",
"X.	c #DADADA",
"Y.	c #6D6D6D",
"Z.	c #959595",
"`.	c #565656",
" +	c #919191",
".+	c #E4E4E4",
"++	c #8E8E8E",
"@+	c #C1C1C1",
"#+	c #858585",
"$+	c #9B9B9B",
"%+	c #A0A0A0",
"&+	c #666666",
"*+	c #4A4A4A",
"=+	c #585858",
"-+	c #A8A8A8",
";+	c #AFAFAF",
">+	c #E5E5E5",
",+	c #AAAAAA",
"'+	c #B7B7B7",
")+	c #969696",
"!+	c #BEBEBE",
"~+	c #A7A7A7",
"{+	c #5E5E5E",
"]+	c #B1B1B1",
". . . . . . . . . . . . . . . . . . . . . . . . . . . . . . . . ",
". . . . . . . . . . . . . + @ # $ . . . . . . . . . . . . . . . ",
". . . . . . . . . . . . . % & * = - ; . . . . . . . . . . . . . ",
". . . . + > , . . . . . . ' ) ! ~ { ] . . . . . . . . . . . . . ",
". . . . ^ / ( . . . , - _ . : < [ } | . . . . . . . . . . . . . ",
". . . _ 1 } 2 3 . . 4 5 6 7 @ , . 8 9 . . . . . . . . . . . . . ",
". . . 4 & 0 a b c ~ d e f ^ . . . g . . . , ' . . . . . . . . . ",
". . , h i j k l m n , o p q . . . > . . . r s = . . . . . . . . ",
"$ t u v w x y z A B 9 C D . . . . . . . . E n , . . . . . . . . ",
"F G H I J K L M f N c $ . . . . . . . . . O . . . . . . . . . . ",
"P Q R z S T f U V . ^ . . . . . . . . . . . . . . . . . . . . . ",
"9 ] W X Y Z `  .C F . . . . . . . . . . . . . . . . . . . . . . ",
", ..+.@...#.$.%.* B . ' ( &.D . 9 . ; F + [ . *.=.$ . V . . ~ . ",
". M -.y / ;.$.>.,.'.. ).` b !.. ~.E v {.P ].^.} /.` + (.&.. _.$ ",
". :.<.[.{.w $.}.# % . ~.. # !.. ~.|.M D P 1.2., . 3.4.H 5.. _.$ ",
". 6.7.8.9.0.a.~.b.c.. d.e.f.!.. ~.$ ..g.P f h.. . 3 Z i.j.' _.$ ",
". k.l.m.l.'.n.o.p.q.. r.B o.!.. ~.. , s.# d.t.. . , _.i.C x _.$ ",
". u u.v.r.w.x.w y.G , ~.. ^ < . x e., z.M A.B.. . C.].i.. D.E.$ ",
". e.F.m.G.T l H.9.I.. ~.. [ m g.J.h K.E.L.].M.n n.& ~ i.. @ i $ ",
". 7 n.N.#.O.G.R d.g . P.. . u o.9 + 1 Q.~ 8 , k.R.E . O . . : , ",
". . 7 K.M.S.).T.o.7 . . . . . . . . . . . . . . . . . . . . . . ",
"P U.U.K.V._.5.T f ].U.U.U.U.U.U.U.U.U.U.U.U.U.U.U.U.U.U.U.U.U.; ",
". . . . . . [ 8 3 . . . . . . . . . . . . . . . . . . . . . . . ",
". . . . . . . . . . . . . . 9 . . . . . . ~ , . . . . . . . . . ",
"Q.W.S.X.t.:.y v _ } 0.h.= F.* r.4.Y N.|.Y.v m 7 Z.`. +d ^ . ] [ ",
"z.Q..+a Z.C o.> ++~.. . ~.L.. c = p =.R.@+. P.#+ +7 #+- s.~ J.. ",
"z.Q.. n n C o.+ Z o ~ = J.. . . . p =.s.. . . d. +7 1 8 o ] O . ",
"z.Q.. $+,.C G ++p `.F.%+_.. . . . p =.Z . . . _.++: &+$ g *+, . ",
"z.Q.. s.++C =+S., ~.. . G , . . . p =.s.+ . . G 6 &+-+. 3 f . . ",
"z.n.;+J.Z.C o.I.P #+>+9 ,+/ 7 M.9 p =.'+I.[ )+M  +&.D.. 3 f . . ",
"C ).B D z.( !+6.'+f ..t., %+v 2 . P.% . ~+{+K., : 3 '.[ $ ]+. . ",
". . . . . . . . . . . . . . . . . . . . . . . . . . . . . . . . "};
