<?xml version="1.0" encoding="UTF-8" standalone="no"?>
<!-- Created with Inkscape (http://www.inkscape.org/) -->

<svg
   xmlns:dc="http://purl.org/dc/elements/1.1/"
   xmlns:cc="http://creativecommons.org/ns#"
   xmlns:rdf="http://www.w3.org/1999/02/22-rdf-syntax-ns#"
   xmlns:svg="http://www.w3.org/2000/svg"
   xmlns="http://www.w3.org/2000/svg"
   xmlns:xlink="http://www.w3.org/1999/xlink"
   xmlns:sodipodi="http://sodipodi.sourceforge.net/DTD/sodipodi-0.dtd"
   xmlns:inkscape="http://www.inkscape.org/namespaces/inkscape"
   width="48"
   height="48"
   id="svg5453"
   version="1.1"
   inkscape:version="0.91 r13725"
   sodipodi:docname="network-server.svg"
   inkscape:export-filename="network-server.png"
   inkscape:export-xdpi="90"
   inkscape:export-ydpi="90">
  <defs
     id="defs5455">
    <linearGradient
       inkscape:collect="always"
       id="linearGradient4249">
      <stop
         style="stop-color:#147eb8;stop-opacity:1"
         offset="0"
         id="stop4251" />
      <stop
         style="stop-color:#147eb8;stop-opacity:0"
         offset="1"
         id="stop4253" />
    </linearGradient>
    <linearGradient
       gradientUnits="userSpaceOnUse"
       y2="8"
       x2="16"
       y1="29"
       x1="16"
       id="linearGradient4342"
       xlink:href="#linearGradient4172-5"
       inkscape:collect="always" />
    <linearGradient
       id="linearGradient4172-5"
       inkscape:collect="always">
      <stop
         id="stop4174-6"
         offset="0"
         style="stop-color:#3daee9;stop-opacity:1" />
      <stop
         id="stop4176-6"
         offset="1"
         style="stop-color:#6cc1ef;stop-opacity:1" />
    </linearGradient>
    <linearGradient
       inkscape:collect="always"
       xlink:href="#linearGradient4249"
       id="linearGradient4255"
       x1="409.57144"
       y1="526.79791"
       x2="422.5715"
       y2="539.79797"
       gradientUnits="userSpaceOnUse" />
    <linearGradient
       inkscape:collect="always"
       xlink:href="#linearGradient4172-5"
       id="linearGradient4201"
       x1="16"
       y1="29"
       x2="16"
       y2="8"
       gradientUnits="userSpaceOnUse" />
  </defs>
  <sodipodi:namedview
     id="base"
     pagecolor="#ffffff"
     bordercolor="#666666"
     borderopacity="1.0"
     inkscape:pageopacity="0"
     inkscape:pageshadow="2"
     inkscape:zoom="16"
     inkscape:cx="26.433709"
     inkscape:cy="19.686402"
     inkscape:document-units="px"
     inkscape:current-layer="layer1"
     showgrid="true"
     fit-margin-top="0"
     fit-margin-left="0"
     fit-margin-right="0"
     fit-margin-bottom="0"
     inkscape:window-width="1878"
     inkscape:window-height="1051"
     inkscape:window-x="0"
     inkscape:window-y="0"
     inkscape:window-maximized="1"
     inkscape:showpageshadow="false"
     borderlayer="true"
     showguides="true"
     inkscape:object-nodes="true">
    <inkscape:grid
       type="xygrid"
       id="grid4063" />
    <sodipodi:guide
       position="1.1650391e-05,47.999996"
       orientation="4,0"
       id="guide4146" />
    <sodipodi:guide
       position="1.1650391e-05,43.999996"
       orientation="0,48"
       id="guide4148" />
    <sodipodi:guide
       position="48.000012,43.999996"
       orientation="-4,0"
       id="guide4150" />
    <sodipodi:guide
       position="48.000012,47.999996"
       orientation="0,-48"
       id="guide4152" />
    <sodipodi:guide
       position="1.1650391e-05,4.0000264"
       orientation="4,0"
       id="guide4154" />
    <sodipodi:guide
       position="1.1650391e-05,2.6367188e-05"
       orientation="0,48"
       id="guide4156" />
    <sodipodi:guide
       position="48.000012,2.6367188e-05"
       orientation="-4,0"
       id="guide4158" />
    <sodipodi:guide
       position="48.000012,4.0000264"
       orientation="0,-48"
       id="guide4160" />
    <sodipodi:guide
       position="48.000012,48.000026"
       orientation="0,-4"
       id="guide4162" />
    <sodipodi:guide
       position="44.000012,48.000026"
       orientation="48,0"
       id="guide4164" />
    <sodipodi:guide
       position="44.000012,2.6367188e-05"
       orientation="0,4"
       id="guide4166" />
    <sodipodi:guide
       position="48.000012,2.6367188e-05"
       orientation="-48,0"
       id="guide4168" />
    <sodipodi:guide
       position="4.0000422,48.000026"
       orientation="0,-4"
       id="guide4170" />
    <sodipodi:guide
       position="4.2167969e-05,48.000026"
       orientation="48,0"
       id="guide4172" />
    <sodipodi:guide
       position="4.2167969e-05,2.6367188e-05"
       orientation="0,4"
       id="guide4174" />
    <sodipodi:guide
       position="4.0000422,2.6367188e-05"
       orientation="-48,0"
       id="guide4176" />
    <sodipodi:guide
       position="20.000012,43.999996"
       orientation="39.999969,0"
       id="guide4153" />
    <sodipodi:guide
       position="20.000012,4.0000264"
       orientation="0,8"
       id="guide4155" />
    <sodipodi:guide
       position="28.000012,4.0000264"
       orientation="-39.999969,0"
       id="guide4157" />
    <sodipodi:guide
       position="28.000012,43.999996"
       orientation="0,-8"
       id="guide4159" />
  </sodipodi:namedview>
  <metadata
     id="metadata5458">
    <rdf:RDF>
      <cc:Work
         rdf:about="">
        <dc:format>image/svg+xml</dc:format>
        <dc:type
           rdf:resource="http://purl.org/dc/dcmitype/StillImage" />
        <dc:title></dc:title>
      </cc:Work>
    </rdf:RDF>
  </metadata>
  <g
     inkscape:label="Capa 1"
     inkscape:groupmode="layer"
     id="layer1"
     transform="translate(-384.57143,-499.798)">
    <g
       id="layer1-4-3"
       inkscape:label="Capa 1"
       transform="matrix(1.3333328,0,0,1.3999995,-125.5236,-220.71893)">
      <path
         inkscape:connector-curvature="0"
         id="path4308"
         d="m 386.32143,518.94085 0,6.85715 0,1 28.50001,0 0,-5.71429 -14.25001,0 -2.25,-2.14286 z"
         style="fill:#147eb8;fill-opacity:1;fill-rule:evenodd;stroke:none;stroke-width:1px;stroke-linecap:butt;stroke-linejoin:miter;stroke-opacity:1"
         sodipodi:nodetypes="cccccccc" />
      <path
         sodipodi:nodetypes="ccccccc"
         inkscape:connector-curvature="0"
         id="path4306"
         d="m 397.57144,523.94085 -2.25001,1.42857 -9,0 0,0.71429 7.5,0 2.25,0 z"
         style="fill:#000000;fill-opacity:0.23529412;fill-rule:evenodd;stroke:none;stroke-width:1px;stroke-linecap:butt;stroke-linejoin:miter;stroke-opacity:1" />
      <path
         transform="translate(384.57143,515.798)"
         id="rect4294"
         d="m 13.000011,8.1428514 -2.25001,2.1428576 -9.000004,0 -0.7499686,0 L 1,28.857145 l 11,0 1,0 18,0 1.1e-5,-20.7142936 z"
         style="opacity:1;fill:url(#linearGradient4342);fill-opacity:1;stroke:none"
         inkscape:connector-curvature="0"
         sodipodi:nodetypes="cccccccccc" />
      <path
         inkscape:connector-curvature="0"
         id="path4304"
         d="m 397.57144,523.94085 -2.25001,2.14286 -9.74997,0 -3e-5,0.71429 11,0 z"
         style="fill:#ffffff;fill-opacity:0.23529412;fill-rule:evenodd;stroke:none;stroke-width:1px;stroke-linecap:butt;stroke-linejoin:miter;stroke-opacity:1"
         sodipodi:nodetypes="cccccc" />
      <path
         inkscape:connector-curvature="0"
         id="path4310"
         d="m 398.32143,518.94085 1.5,2.85714 15.00001,0 0,-0.71428 -14.25001,0 z"
         style="fill:#ffffff;fill-opacity:0.23529412;fill-rule:evenodd;stroke:none;stroke-width:1px;stroke-linecap:butt;stroke-linejoin:miter;stroke-opacity:1"
         sodipodi:nodetypes="cccccc" />
      <rect
         y="543.94086"
         x="385.57147"
         height="0.71429282"
         width="29.999983"
         id="rect4292"
         style="opacity:1;fill:#000000;fill-opacity:0.23529412;stroke:none" />
    </g>
    <path
       style="opacity:0.228;fill:url(#linearGradient4255);fill-opacity:1;fill-rule:evenodd;stroke:none;stroke-width:1px;stroke-linecap:butt;stroke-linejoin:miter;stroke-opacity:1"
       d="m 416.57144,520.173 11.99999,11.99999 0,8.62501 -22.375,0 -4.875,-4.875 -3.375,-7.125 1.125,-5.75 5.125,-5.125 7.375,-0.5 z"
       id="path4247"
       inkscape:connector-curvature="0"
       sodipodi:nodetypes="cccccccccc" />
    <path
       style="fill:#1272a5;fill-opacity:1;fill-rule:nonzero"
       d="M 24 17 A 11 11 0 0 0 13 28 A 11 11 0 0 0 24 39 A 11 11 0 0 0 35 28 A 11 11 0 0 0 24 17 z M 24 18 C 24.34518 18 24.66382 18.0285 25 18.0625 C 25.0806 18.0705 25.17 18.0525 25.25 18.0625 C 25.3552 18.0765 25.4583 18.1086 25.5625 18.125 C 25.8498 18.1702 26.09656 18.2435 26.375 18.3125 C 26.8882 18.4391 27.39644 18.61008 27.875 18.8125 C 28.13886 18.9241 28.3733 19.05448 28.625 19.1875 C 28.62486 19.2055 28.627 19.2282 28.625 19.25 C 28.683 19.276 28.7147 19.3835 28.8125 19.4375 C 28.8485 19.4575 28.8412 19.482 28.875 19.5 C 28.933 19.532 29.012 19.567 29 19.625 C 28.984 19.705 28.8683 19.688 28.8125 19.75 C 28.8205 19.866 28.7175 19.8597 28.6875 19.9375 C 28.7055 19.9875 28.8045 20.0025 28.8125 20.0625 C 28.8025 20.1265 28.6635 20.1215 28.6875 20.1875 C 28.7955 20.2715 28.898 20.2075 29 20.1875 C 29.22398 20.1595 29.4245 20.1775 29.5625 20.0625 C 29.5445 19.9565 29.762 19.971 29.75 19.875 C 29.8074 19.9168 29.8807 19.9576 29.9375 20 C 29.9159 20.0202 29.899 20.0517 29.875 20.0625 C 29.833 20.0825 29.788 20.101 29.75 20.125 C 29.694 20.161 29.6265 20.208 29.5625 20.25 C 29.5165 20.282 29.423 20.4375 29.375 20.4375 C 29.317 20.4375 29.2293 20.363 29.1875 20.375 C 29.1275 20.395 29.1303 20.476 29.0625 20.5 C 28.9305 20.548 28.67098 20.427 28.625 20.625 C 28.681 20.739 28.9 20.686 29 20.75 C 29.062 20.79 29.1715 20.932 29.1875 21 C 29.2035 21.056 29.2115 21.315 29.1875 21.375 C 29.1255 21.535 28.93398 21.502 28.75 21.5 L 28.625 21.5 C 28.31504 21.48 28.015 21.3407 27.875 21.5625 C 27.885 21.7325 27.913 21.852 27.875 22 C 27.847 22.108 27.6813 22.2193 27.6875 22.3125 C 27.6895 22.3605 27.8005 22.430247 27.8125 22.498047 C 27.8205 22.534047 27.7965 22.589047 27.8125 22.623047 C 27.8645 22.721047 27.9705 22.603047 28.0625 22.623047 C 28.1505 22.643047 28.25 22.774647 28.25 22.873047 C 28.25 22.943047 28.2319 23.055247 28.1875 23.123047 C 28.0995 23.255047 27.9385 23.238547 27.8125 23.310547 C 27.7085 23.370547 27.687 23.519847 27.625 23.623047 C 27.559 23.735047 27.474 23.775247 27.5 23.935547 C 27.41 24.113547 27.311 24.224547 27.125 24.310547 C 27.071 24.334547 26.9873 24.337047 26.9375 24.373047 C 26.8975 24.401047 26.8685 24.496547 26.8125 24.560547 C 26.7425 24.638547 26.663 24.688247 26.625 24.748047 C 26.597 24.794047 26.5923 24.871547 26.5625 24.935547 C 26.5185 25.019547 26.4308 25.038847 26.375 25.123047 C 26.349 25.163047 26.3403 25.258747 26.3125 25.310547 C 26.2485 25.426547 26.1755 25.521047 26.1875 25.623047 C 26.1975 25.719047 26.3065 25.722747 26.3125 25.810547 C 26.3185 25.858547 26.248 25.881547 26.25 25.935547 C 26.252 26.011547 26.3067 26.063247 26.3125 26.123047 C 26.3265 26.271047 26.2155 26.334347 26.1875 26.435547 C 26.1735 26.483547 26.1995 26.520547 26.1875 26.560547 C 26.1635 26.634547 26.0645 26.722147 26.0625 26.810547 C 26.0605 26.872547 26.1815 26.910247 26.1875 26.998047 C 26.1915 27.056047 26.113 27.129547 26.125 27.185547 C 26.147 27.293547 26.35352 27.414047 26.4375 27.498047 C 26.5515 27.612047 26.70002 27.690647 26.75 27.810547 C 26.792 27.912547 26.797 28.109347 26.875 28.185547 C 26.933 28.241547 27.051 28.250547 27.125 28.310547 C 27.195 28.364547 27.2385 28.375547 27.3125 28.435547 C 27.4345 28.531547 27.6185 28.762047 27.8125 28.748047 C 27.9145 28.728047 28.0109 28.643047 28.125 28.623047 C 28.243 28.603047 28.38002 28.550547 28.5 28.560547 C 28.592 28.580547 28.7165 28.629247 28.8125 28.623047 C 28.9125 28.603047 29.0111 28.610947 29.125 28.560547 C 29.323 28.474547 29.64954 28.331547 29.9375 28.373047 C 30.15748 28.405047 30.1585 28.650047 30.3125 28.748047 C 30.4885 28.768047 30.61002 28.714047 30.75 28.748047 C 30.856 28.774047 30.99 28.914847 31 28.998047 C 31.01 29.084047 30.887 29.193647 30.875 29.248047 C 30.847 29.364047 30.895 29.486547 30.875 29.560547 C 30.859 29.618547 30.8105 29.690247 30.8125 29.748047 C 30.8125 29.800047 30.8835 29.929647 30.9375 29.998047 C 31.0035 30.082047 31.1075 30.157647 31.1875 30.248047 C 31.3335 30.416047 31.398 30.588547 31.5 30.810547 C 31.526 30.866547 31.476 30.926047 31.5 30.998047 C 31.456 31.333847 31.345 31.563747 31.125 31.935547 C 31.021 32.055547 30.873 32.160747 30.875 32.310547 C 30.867 32.670547 31.0786 32.900047 31.0625 33.248047 C 31.0265 33.715847 31.0985 33.748247 31.0625 33.998047 C 31.2205 34.078047 31.1085 34.331847 31.0625 34.498047 C 30.9945 34.696047 30.913 34.741047 30.875 34.873047 C 30.9812 34.919247 31.13204 34.900247 31.25 34.873047 C 31.1904 34.935847 31.1235 34.999547 31.0625 35.060547 C 30.61008 35.512967 30.0945 35.951127 29.5625 36.310547 C 28.53042 37.007807 27.38248 37.537447 26.125 37.810547 C 25.43792 37.959747 24.73178 37.998047 24 37.998047 C 23.61934 37.998047 23.24374 37.977947 22.875 37.935547 C 22.58128 37.901947 22.28542 37.868947 22 37.810547 C 21.43366 37.694547 20.90206 37.455287 20.375 37.248047 C 20.357 37.213647 20.310053 37.163247 20.314453 37.123047 C 20.418453 37.079047 20.613473 37.271047 20.689453 37.123047 C 20.727453 37.053047 20.639453 36.880547 20.689453 36.810547 C 20.725453 36.762547 20.927973 36.761847 21.001953 36.748047 C 21.107953 36.728047 21.254453 36.713547 21.314453 36.685547 C 21.380453 36.643547 21.451453 36.496147 21.439453 36.373047 C 21.433453 36.315047 21.360253 36.300047 21.314453 36.248047 C 21.276453 36.204047 21.340453 36.165047 21.314453 36.123047 C 21.266453 36.053047 21.146753 36.037547 21.126953 35.935547 C 21.270953 35.907547 21.481473 36.056047 21.689453 35.998047 C 21.787453 35.970047 21.955953 35.777747 22.001953 35.685547 C 22.015953 35.657547 21.985953 35.596547 22.001953 35.560547 C 22.019953 35.524547 22.058453 35.455547 22.064453 35.435547 C 22.078453 35.381547 22.052453 35.409047 22.064453 35.373047 C 22.100453 35.271047 22.19 35.195647 22.25 35.123047 C 22.296 35.067047 22.3955 34.993347 22.4375 34.935547 C 22.4855 34.873547 22.4682 34.866547 22.5 34.810547 C 22.53 34.628547 22.3933 34.470347 22.4375 34.310547 C 22.4855 34.130547 22.76352 34.017547 22.9375 33.935547 C 22.9975 33.907547 23.075 33.891047 23.125 33.873047 C 23.245 33.831047 23.388 33.788047 23.5 33.748047 C 23.688 33.680047 23.7205 33.544847 23.8125 33.373047 C 23.8565 33.293047 23.9295 33.181647 23.9375 33.123047 C 23.9455 33.071047 23.9275 33.060047 23.9375 32.998047 C 23.9475 32.940047 23.9215 32.878347 23.9375 32.810547 C 23.9595 32.724547 24 32.531347 24 32.435547 C 24 32.355547 23.9393 32.319847 23.9375 32.248047 C 23.9235 31.988047 24.0292 32.015047 24.125 31.873047 C 24.173 31.803047 24.2162 31.673247 24.25 31.623047 C 24.412 31.383047 24.7075 31.299547 24.6875 30.935547 C 24.6795 30.815547 24.5878 30.536047 24.5 30.498047 C 24.45 30.476047 24.3863 30.461547 24.3125 30.435547 C 24.07652 30.347547 23.87098 30.080547 23.625 30.060547 L 23.5 30.060547 C 23.404 30.060547 23.29548 30.011847 23.1875 29.998047 C 23.1195 29.978047 22.9775 30.018047 22.9375 29.998047 C 22.8755 29.968047 22.8625 29.844547 22.8125 29.810547 C 22.7725 29.782547 22.6868 29.769847 22.625 29.748047 C 22.527 29.712047 22.489 29.631047 22.375 29.623047 C 22.339 29.623047 22.29 29.643047 22.25 29.623047 C 22.188 29.603047 22.122253 29.596547 22.064453 29.560547 C 21.992453 29.516547 21.906753 29.497547 21.876953 29.435547 C 21.942953 29.219747 21.733253 29.186547 21.689453 29.060547 C 21.669453 29.002547 21.709453 28.862547 21.689453 28.810547 C 21.663453 28.736547 21.583753 28.6868 21.501953 28.625 C 21.357953 28.513 21.270433 28.4631 21.064453 28.4375 C 20.972453 28.4175 20.861933 28.4575 20.751953 28.4375 C 20.635953 28.4175 20.464933 28.3498 20.376953 28.25 C 20.292953 28.152 20.263253 28.0462 20.189453 28 C 20.119453 27.956 20.049953 27.921 20.001953 27.875 C 19.979953 27.855 19.959453 27.8589 19.939453 27.8125 C 19.903453 27.7385 19.832753 27.7148 19.876953 27.625 C 19.796953 27.585 19.837953 27.7015 19.751953 27.6875 C 19.673953 27.5775 19.615353 27.4679 19.439453 27.5 C 19.359453 27.52 19.283453 27.6857 19.189453 27.6875 C 19.111453 27.6875 19.041453 27.516 18.939453 27.5 C 18.861453 27.48 18.743453 27.5725 18.689453 27.5625 C 18.603453 27.5425 18.579753 27.4895 18.501953 27.4375 C 18.443953 27.3995 18.346253 27.3105 18.314453 27.3125 C 18.214453 27.3125 18.139853 27.5103 18.001953 27.4375 C 17.933953 27.3515 18.144653 27.3298 18.064453 27.25 C 18.004453 27.192 17.987453 27.2845 17.939453 27.3125 C 17.883453 27.3485 17.813753 27.3532 17.751953 27.375 C 17.613953 27.427 17.484933 27.442 17.376953 27.5 C 17.276953 27.552 17.247253 27.5851 17.189453 27.6875 C 17.143453 27.7715 17.071753 27.9335 17.001953 27.9375 C 16.917953 27.9375 16.890253 27.8465 16.814453 27.8125 C 16.584473 27.7125 16.441933 27.8712 16.251953 27.875 C 16.075953 27.875 15.806453 27.6035 15.814453 27.4375 C 15.820453 27.3355 15.865153 27.1885 15.876953 27.0625 C 15.886953 26.9625 16.000153 26.8412 16.001953 26.75 C 16.003953 26.626 15.769453 26.5767 15.689453 26.5625 C 15.501453 26.5285 15.278433 26.6465 15.064453 26.5625 C 15.024453 26.4945 15.103153 26.4428 15.126953 26.375 C 15.140953 26.339 15.112953 26.292 15.126953 26.25 C 15.150953 26.186 15.284653 26.1303 15.314453 26.0625 C 15.336453 26.0105 15.292453 25.941 15.314453 25.875 C 15.340453 25.803 15.433453 25.7393 15.439453 25.6875 C 15.447453 25.6195 15.368253 25.544 15.314453 25.5 C 15.148453 25.52 15.035453 25.5141 14.939453 25.5625 C 14.723473 25.6605 14.782453 25.932 14.564453 26 C 14.490453 26.024 14.398453 26.0487 14.314453 26.0625 C 14.277853 26.0825 14.230453 26.0585 14.189453 26.0625 C 14.193453 26.0423 14.185453 26.02 14.189453 26 C 14.199453 25.9544 14.242153 25.9204 14.251953 25.875 C 14.394553 25.225 14.614733 24.59586 14.876953 24 L 14.939453 24 C 15.015453 24.02 15.060953 24.119 15.126953 24.125 C 15.310953 24.145 15.349953 23.9554 15.501953 23.875 C 15.657953 23.897 15.734973 23.855 15.876953 23.875 C 15.972953 23.895 16.113473 23.992 16.189453 24 C 16.253453 24 16.254453 23.9293 16.314453 23.9375 C 16.374453 23.9575 16.492153 24.053 16.501953 24.125 C 16.511953 24.215 16.413253 24.3383 16.439453 24.4375 C 16.533453 24.5335 16.742953 24.569 16.876953 24.625 C 16.964953 24.551 16.890953 24.4165 16.876953 24.3125 C 16.874953 24.2665 16.882953 24.1668 16.876953 24.125 C 16.866953 24.053 16.814453 23.9993 16.814453 23.9375 C 16.814453 23.6515 17.059973 23.5493 17.251953 23.4375 C 17.333953 23.3895 17.429953 23.286 17.501953 23.25 C 17.603953 23.2 17.667953 23.2359 17.751953 23.1875 C 17.903953 23.1015 18.008953 22.9724 18.126953 22.875 C 18.180953 22.745 18.120953 22.5655 18.126953 22.4375 C 18.180953 22.4035 18.256653 22.4375 18.314453 22.4375 C 18.406453 22.4175 18.449953 22.3018 18.501953 22.25 C 18.531953 22.22 18.590953 22.2173 18.626953 22.1875 C 18.718953 22.1155 18.734453 22.0318 18.814453 22 C 18.842453 21.98 18.895453 21.9513 18.939453 21.9375 C 18.999453 21.9175 19.093453 21.911 19.189453 21.875 C 19.251453 21.853 19.415453 21.8385 19.439453 21.8125 C 19.469453 21.7825 19.431453 21.671 19.439453 21.625 C 19.487453 21.3992 19.799973 21.3887 20.001953 21.3125 C 20.141953 21.2605 20.283453 21.0969 20.439453 21.125 C 20.409453 21.233 20.288453 21.2448 20.314453 21.375 C 20.348453 21.557 20.562953 21.3385 20.626953 21.3125 C 20.748953 21.2605 20.966953 21.1848 21.126953 21.125 C 21.266953 21.075 21.508933 21.0362 21.376953 20.875 C 21.266953 20.855 21.222953 20.96 21.126953 21 C 21.060953 21.02 21.057953 20.945453 21.001953 20.939453 C 20.947953 20.939453 20.930953 21.01 20.876953 21 C 20.822953 20.98 20.759953 20.880453 20.751953 20.814453 C 20.729953 20.646453 20.871653 20.625853 20.939453 20.501953 C 20.893453 20.349953 20.692433 20.436953 20.564453 20.376953 C 20.578453 20.286953 20.646153 20.209253 20.751953 20.189453 C 20.837953 20.169453 21.074953 20.205553 21.126953 20.251953 C 21.156953 20.277953 21.081153 20.334953 21.126953 20.376953 C 21.178953 20.422953 21.246453 20.396953 21.314453 20.376953 C 21.338453 20.262953 21.169453 20.325953 21.189453 20.251953 C 21.325453 20.163953 21.585973 20.211253 21.751953 20.189453 C 21.847953 20.169453 21.978453 20.110453 22.064453 20.064453 C 22.144453 20.018453 22.167953 19.925753 22.251953 20.001953 C 22.275953 20.083953 22.235853 20.145453 22.189453 20.189453 C 22.035453 20.325453 21.871933 20.469153 21.751953 20.626953 C 21.825953 20.698953 21.940353 20.675653 22.064453 20.689453 C 22.112453 20.709453 22.201953 20.679453 22.251953 20.689453 C 22.311953 20.709453 22.3895 20.669453 22.4375 20.689453 C 22.5215 20.709453 22.5412 20.875 22.625 20.875 C 22.761 20.875 22.703 20.7154 22.625 20.625 C 22.649 20.531 22.7217 20.4414 22.6875 20.375 C 22.6255 20.251 22.387 20.412 22.375 20.25 C 22.367 20.15 22.464 20.140453 22.5 20.064453 C 22.484 19.872453 22.645 19.863453 22.625 19.689453 C 22.615 19.617453 22.55 19.632453 22.5 19.564453 C 22.474 19.528453 22.4673 19.404953 22.4375 19.376953 C 22.3335 19.288953 22.137 19.356853 22.125 19.189453 C 22.119 19.089453 22.139 18.984153 22.125 18.876953 C 22.111 18.774953 22.0253 18.459453 21.9375 18.439453 C 21.8255 18.415453 21.7591 18.626853 21.625 18.689453 C 21.553 18.723453 21.38648 18.763953 21.3125 18.751953 C 21.2645 18.731953 21.1935 18.720953 21.1875 18.626953 C 21.1795 18.542153 21.2813 18.504253 21.3125 18.439453 C 21.3205 18.423453 21.3085 18.399353 21.3125 18.376953 C 21.4577 18.336353 21.60244 18.286553 21.75 18.251953 C 21.8338 18.231953 21.9154 18.206653 22 18.189453 C 22.0598 18.177453 22.1275 18.201453 22.1875 18.189453 C 22.4546 18.139853 22.7259 18.092253 23 18.064453 C 23.33248 18.029453 23.6578 18.001953 24 18.001953 L 24 18 z M 19.9375 18.9375 C 19.8739 19.30264 19.532 19.44804 19.125 19.4375 C 19.033 19.5255 19.1129 19.6905 19.0625 19.8125 C 19.0205 19.9145 18.85198 20.0082 18.75 20 C 18.676 20 18.5625 19.8823 18.5625 19.8125 C 18.5625 19.7265 18.6992 19.7234 18.625 19.625 C 18.629 19.605 18.6667 19.5823 18.6875 19.5625 C 18.7279 19.5371 18.7717 19.5248 18.8125 19.5 C 19.1749 19.27696 19.54642 19.11366 19.9375 18.9375 z M 28.3125 19.3125 C 28.2757 19.3325 28.2824 19.3552 28.25 19.375 C 28.174 19.421 28.1205 19.478 28.0625 19.5 C 27.9805 19.53 27.8868 19.551 27.875 19.625 C 27.865 19.687 27.9397 19.692 27.9375 19.75 C 27.9075 19.824 27.891 19.8477 27.875 19.9375 C 27.977 20.1035 28.18652 19.901 28.3125 19.875 C 28.3685 19.855 28.4075 19.8609 28.4375 19.8125 C 28.4715 19.7585 28.4742 19.7012 28.5 19.625 C 28.528 19.541 28.635 19.5115 28.625 19.4375 C 28.617 19.3635 28.4364 19.3025 28.3125 19.3125 z M 17.375 20.5625 C 17.4698 20.6387 17.60322 20.8037 17.4375 20.875 C 17.4175 20.895 17.173 20.9457 17.125 20.9375 C 17.105 20.9375 17.0793 20.8894 17.0625 20.875 C 17.1659 20.7744 17.26742 20.6586 17.375 20.5625 z M 17.75 20.9375 C 17.798 20.9375 17.819 21.0585 17.875 21.0625 C 17.929 21.0625 17.968 20.9918 18 21 C 18.084 21.022 18.1427 21.1876 18.0625 21.25 C 17.9965 21.27 17.9855 21.1793 17.9375 21.1875 C 17.8015 21.2115 17.727 21.508 17.625 21.5 C 17.529 21.48 17.4643 21.2575 17.5625 21.1875 C 17.5645 21.1275 17.5585 21.1245 17.5625 21.0625 C 17.5925 21.0265 17.67 20.9315 17.75 20.9375 z M 17.25 21 C 17.278 21 17.3027 20.98 17.3125 21 C 17.2985 21.106 17.2695 21.1377 17.1875 21.1875 C 17.0455 21.2735 16.921 21.3795 16.875 21.5625 C 16.861 21.6165 16.693 21.7635 16.625 21.75 C 16.467 21.716 16.714 21.4208 16.75 21.375 C 16.79 21.325 16.829 21.308 16.875 21.25 C 16.921 21.194 16.956 21.0943 17 21.0625 C 17.048 21.0285 17.166 20.996 17.25 21 z M 30.8125 21.3125 C 30.9705 21.2925 31.053 21.4673 31.125 21.5625 C 31.185 21.6405 31.3395 21.7581 31.4375 21.8125 C 31.4935 21.8425 31.563 21.9095 31.625 21.9375 C 31.755 21.9955 31.994 22.1845 32 22.3125 C 32.002 22.3765 31.9273 22.4402 31.9375 22.5 C 32.0355 22.52 32.123 22.3484 32.125 22.25 C 32.3088 22.51002 32.4662 22.78532 32.625 23.0625 C 32.7 23.1935 32.8058 23.3026 32.875 23.4375 C 32.7868 23.4635 32.7642 23.4765 32.75 23.5625 C 32.73 23.6745 32.793 23.8552 32.625 23.875 C 32.519 23.895 32.39598 23.784 32.25 23.75 C 32.19 23.73 32.1105 23.77 32.0625 23.75 C 31.9525 23.714 31.9688 23.5666 31.875 23.5 C 31.821 23.462 31.6485 23.385 31.5625 23.375 C 31.5085 23.375 31.4935 23.395 31.4375 23.375 C 31.3695 23.355 31.2435 23.403 31.1875 23.375 C 31.1335 23.341 31.014 23.2335 31 23.1875 C 30.978 23.1135 31.1835 23.0624 31.1875 23 C 31.1915 22.952 31.1348 22.8865 31.125 22.8125 C 31.117 22.7685 31.135 22.7175 31.125 22.6875 C 31.111 22.6355 31.0193 22.6268 30.9375 22.625 L 30.75 22.625 C 30.662 22.625 30.48498 22.617 30.375 22.625 C 30.309 22.625 30.2495 22.619 30.1875 22.625 C 30.0135 22.645 29.886 22.605 29.75 22.625 C 29.652 22.625 29.467 22.708 29.375 22.75 C 29.329 22.772 29.31 22.7827 29.25 22.8125 C 29.222 22.8325 29.161 22.859 29.125 22.875 C 29.069 22.901 28.9913 22.984 28.9375 23 C 28.8595 23.02 28.7669 22.98 28.625 23 C 28.523 23 28.377 22.9345 28.375 22.8125 C 28.373 22.6265 28.69902 22.7215 28.875 22.6875 C 28.941 22.6675 28.9825 22.6105 29.0625 22.5625 C 29.1005 22.5405 29.0892 22.5238 29.125 22.5 C 29.185 22.458 29.3027 22.3605 29.3125 22.3125 C 29.3205 22.2685 29.3065 22.2215 29.3125 22.1875 C 29.3205 22.1455 29.3835 22.1185 29.4375 22.0625 C 29.5215 21.9785 29.5835 21.8669 29.6875 21.8125 C 29.7575 21.7765 29.843 21.7455 29.875 21.6875 C 29.883 21.6235 29.873 21.6225 29.875 21.5625 C 29.919 21.5225 29.964 21.508 30 21.5 C 30.108 21.476 30.1866 21.506 30.3125 21.5 C 30.3665 21.5 30.4422 21.526 30.5 21.5 C 30.548 21.468 30.577 21.399 30.625 21.375 C 30.677 21.347 30.7485 21.3163 30.8125 21.3125 z M 31.9375 22.5 L 31.6875 22.5 C 31.5995 22.5 31.4895 22.454 31.4375 22.5 C 31.5115 22.62 31.64652 22.6577 31.8125 22.6875 C 31.8725 22.6435 31.9095 22.5766 31.9375 22.5 z M 18.25 21.375 L 18.4375 21.375 C 18.4875 21.375 18.5425 21.355 18.5625 21.375 C 18.5305 21.507 18.229 21.4857 18.125 21.4375 C 18.131 21.3875 18.186 21.383 18.25 21.375 z M 17.8125 21.625 C 17.7251 21.6886 17.6387 21.7693 17.5 21.8125 C 17.424 21.8365 17.3265 21.834 17.3125 21.75 C 17.2965 21.646 17.432 21.6973 17.5 21.6875 C 17.588 21.6675 17.7105 21.6288 17.8125 21.625 z M 30.8125 21.625 C 30.7465 21.647 30.7145 21.7927 30.8125 21.8125 C 30.8585 21.7845 30.8872 21.711 30.875 21.625 C 30.849 21.597 30.8323 21.605 30.8125 21.625 z M 30.6875 21.9375 C 30.6895 22.0495 30.7095 22.1528 30.6875 22.25 C 30.7515 22.374 30.90552 22.2715 30.9375 22.1875 C 30.9755 21.9795 30.9085 21.9115 30.8125 21.9375 C 30.7805 21.9575 30.7213 21.9115 30.6875 21.9375 z M 14.125 26.625 C 14.2378 26.727 14.3026 26.8707 14.4375 26.9375 C 14.4875 26.9635 14.561 26.984 14.625 27 C 14.677 27.02 14.7 26.984 14.75 27 C 14.856 27.036 14.97852 27.087 15.0625 27.125 C 15.1905 27.181 15.3275 27.3735 15.4375 27.4375 C 15.4435 27.5015 15.4175 27.577 15.4375 27.625 C 15.4895 27.695 15.541 27.7645 15.625 27.8125 C 15.727 27.8685 15.779 27.9558 15.875 28 C 15.909 28.02 15.948 27.98 16 28 C 16.132 28.04 16.1984 28.2212 16.3125 28.1875 C 16.3865 28.1655 16.3632 28.0718 16.375 28 C 16.425 27.946 16.4845 27.875 16.5625 27.875 C 16.6865 27.875 16.704 28.0662 16.75 28.1875 C 16.776 28.2555 16.857 28.303 16.875 28.375 C 16.905 28.499 16.901 28.8635 16.875 28.9375 C 16.843 29.0295 16.701 29.0246 16.625 29.125 C 16.589 29.173 16.5903 29.2785 16.5625 29.3125 C 16.5145 29.3705 16.4735 29.3815 16.4375 29.4375 C 16.4175 29.4675 16.3928 29.5205 16.375 29.5625 C 16.315 29.6905 16.2 29.7835 16.25 29.9375 C 16.27 29.9995 16.375 30.051 16.375 30.125 C 16.375 30.213 16.2015 30.2786 16.1875 30.375 C 16.1775 30.445 16.2282 30.5316 16.25 30.625 C 16.266 30.695 16.3955 30.764547 16.4375 30.810547 C 16.5075 30.888547 16.561 31.024047 16.625 31.123047 C 16.751 31.317047 16.8136 31.558047 16.9375 31.748047 C 17.0035 31.846047 17.1435 31.894847 17.1875 31.998047 C 17.2095 32.050047 17.1675 32.137547 17.1875 32.185547 C 17.2595 32.347547 17.58802 32.543247 17.75 32.623047 C 17.826 32.661047 17.93 32.645747 18 32.685547 C 18.106 32.745547 18.32102 32.904847 18.375 32.998047 C 18.423 33.082047 18.4137 33.301747 18.4375 33.435547 C 18.4675 33.611547 18.4295 33.745347 18.4375 33.935547 C 18.4435 34.039547 18.5 34.082347 18.5 34.185547 C 18.5 34.221547 18.502 34.335047 18.5 34.373047 C 18.498 34.497047 18.51 34.622047 18.5 34.748047 C 18.494 34.816047 18.496 34.877747 18.5 34.935547 C 18.506 34.997547 18.5587 35.004547 18.5625 35.060547 C 18.5665 35.118547 18.4938 35.202047 18.5 35.248047 C 18.514 35.374047 18.601 35.444447 18.625 35.560547 C 18.645 35.652547 18.6995 35.888047 18.6875 35.998047 C 18.6795 36.056047 18.633 36.119547 18.625 36.185547 C 18.619 36.237547 18.633 36.262547 18.625 36.310547 C 18.619 36.356547 18.637 36.397547 18.625 36.435547 C 18.5612 36.394547 18.5001 36.352947 18.4375 36.310547 C 17.9055 35.951127 17.38992 35.512967 16.9375 35.060547 C 16.8763 34.999347 16.8094 34.935647 16.75 34.873047 C 16.38884 34.492747 16.04828 34.056407 15.75 33.623047 C 15.723 33.583847 15.7139 33.537647 15.6875 33.498047 C 15.3414 32.979507 15.05812 32.453787 14.8125 31.873047 C 14.7945 31.831247 14.767 31.790247 14.75 31.748047 C 14.53924 31.230047 14.37214 30.680087 14.25 30.123047 C 14.227 30.017847 14.2071 29.916887 14.1875 29.810547 C 14.1379 29.543447 14.0903 29.272147 14.0625 28.998047 C 14.0283 28.661867 14 28.343227 14 27.998047 C 14 27.523437 14.0609 27.081911 14.125 26.625 z M 18.050781 27.685547 C 18.082562 27.711234 18.0585 27.802 18 27.8125 C 17.926 27.8325 17.928 27.7235 18 27.6875 C 18.024 27.6765 18.040188 27.676984 18.050781 27.685547 z "
       transform="translate(384.57143,499.798)"
       id="path26" />
  </g>
</svg>
