/* XPM */
static char * gosa_xpm[] = {
"32 32 455 2",
"  	c None",
". 	c #8585A9",
"+ 	c #9E9EC5",
"@ 	c #A8A8CF",
"# 	c #ACADD2",
"$ 	c #B5B7D9",
"% 	c #C1C2E2",
"& 	c #D8DAF2",
"* 	c #C0C2E2",
"= 	c #7B7BA6",
"- 	c #AFAFCE",
"; 	c #B5B6D6",
"> 	c #BBBDDE",
", 	c #C1C3E5",
"' 	c #CBCDEB",
") 	c #D8DAF3",
"! 	c #E7E9FB",
"~ 	c #EDEFFD",
"{ 	c #E9EFFE",
"] 	c #DCECFE",
"^ 	c #DDEEFF",
"/ 	c #F6F9FE",
"( 	c #9696BD",
"_ 	c #BDBCD6",
": 	c #C0C1DC",
"< 	c #BEBFDD",
"[ 	c #C3C5E4",
"} 	c #C9CDED",
"| 	c #D1D7F5",
"1 	c #D6DCF8",
"2 	c #DCDEFA",
"3 	c #DFE0F9",
"4 	c #DBE2F8",
"5 	c #D0E0F7",
"6 	c #BBD9F7",
"7 	c #9FCFF9",
"8 	c #6AB8FD",
"9 	c #4AA7FE",
"0 	c #4DA6FF",
"a 	c #CCE6FF",
"b 	c #ABAAC9",
"c 	c #C8C8E0",
"d 	c #D8DBF2",
"e 	c #CED5F8",
"f 	c #CCD5FB",
"g 	c #CBD2F7",
"h 	c #CAD2F6",
"i 	c #C8D3F6",
"j 	c #BCD1F2",
"k 	c #B1CEED",
"l 	c #9BCDF0",
"m 	c #80CBF5",
"n 	c #5DC3FC",
"o 	c #4BBAFF",
"p 	c #40B1FF",
"q 	c #39AAFF",
"r 	c #36A3FF",
"s 	c #319DFF",
"t 	c #2490FF",
"u 	c #7DBCFE",
"v 	c #C7C3D7",
"w 	c #C9C9DC",
"x 	c #D5DDFE",
"y 	c #C9D4FF",
"z 	c #B4BBE3",
"A 	c #ADC0E3",
"B 	c #A2D0EF",
"C 	c #91D8F7",
"D 	c #7BD9FA",
"E 	c #6CD7FC",
"F 	c #60D1FF",
"G 	c #58CBFF",
"H 	c #51C2FF",
"I 	c #4CBBFF",
"J 	c #44B2FF",
"K 	c #3FACFF",
"L 	c #37A3FF",
"M 	c #2490FD",
"N 	c #5FA6F7",
"O 	c #D6D4E1",
"P 	c #C4C4DB",
"Q 	c #D5DDFD",
"R 	c #C5CDF9",
"S 	c #A8C1E3",
"T 	c #A9EAFE",
"U 	c #92E4FF",
"V 	c #83DFFF",
"W 	c #71DBFF",
"X 	c #67D8FF",
"Y 	c #5ED0FF",
"Z 	c #59CAFF",
"` 	c #51C1FF",
" .	c #3EABFF",
"..	c #37A2FF",
"+.	c #319CFF",
"@.	c #238BF8",
"#.	c #4592EF",
"$.	c #DEDEEA",
"%.	c #B8B8D2",
"&.	c #DBDFF8",
"*.	c #C9D1FC",
"=.	c #A6C3E6",
"-.	c #9FE5FE",
";.	c #8BE1FF",
">.	c #7DDEFF",
",.	c #6EDAFF",
"'.	c #65D6FF",
").	c #5DCFFF",
"!.	c #58C8FF",
"~.	c #50BFFF",
"{.	c #4AB8FF",
"].	c #43B0FF",
"^.	c #3EAAFF",
"/.	c #36A2FF",
"(.	c #309CFF",
"_.	c #2083F2",
":.	c #3788EC",
"<.	c #DFE1EF",
"[.	c #737291",
"}.	c #D5D6F0",
"|.	c #CFD8FE",
"1.	c #A5B5DF",
"2.	c #8FDAF7",
"3.	c #80DFFF",
"4.	c #74DBFF",
"5.	c #68D8FF",
"6.	c #62D3FF",
"7.	c #5BCBFF",
"8.	c #56C6FF",
"9.	c #4EBDFF",
"0.	c #48B6FF",
"a.	c #41AFFF",
"b.	c #3CA8FF",
"c.	c #34A0FF",
"d.	c #2B91F8",
"e.	c #1D7AEB",
"f.	c #247CEB",
"g.	c #DBE2F5",
"h.	c #7F7E9F",
"i.	c #C7C8E6",
"j.	c #D0D8FB",
"k.	c #ADB6E2",
"l.	c #86CDF1",
"m.	c #76DCFF",
"n.	c #6CD9FF",
"o.	c #63D5FF",
"p.	c #5FD0FF",
"q.	c #53C2FF",
"r.	c #4CBAFF",
"s.	c #46B4FF",
"t.	c #3AA7FF",
"u.	c #2F97FA",
"v.	c #2485F0",
"w.	c #1D79EB",
"x.	c #1773E9",
"y.	c #CFDCF7",
"z.	c #8988AB",
"A.	c #B6B6D4",
"B.	c #CED4F7",
"C.	c #BDC3EE",
"D.	c #84C0E9",
"E.	c #68DAFF",
"F.	c #64D6FF",
"G.	c #60D0FF",
"H.	c #54C4FF",
"I.	c #50BEFF",
"J.	c #49B7FF",
"K.	c #44B1FF",
"L.	c #3BA7FE",
"M.	c #3199F9",
"N.	c #2685F0",
"O.	c #2280EE",
"P.	c #1C78EB",
"Q.	c #0F6DE9",
"R.	c #A8C7F6",
"S.	c #A6A4C6",
"T.	c #A5A4C0",
"U.	c #D2D6F4",
"V.	c #C5CCF6",
"W.	c #8ABDE8",
"X.	c #62D7FF",
"Y.	c #5FD1FF",
"Z.	c #51C0FF",
"`.	c #45B2FF",
" +	c #3DA9FD",
".+	c #3096F7",
"++	c #298BF3",
"@+	c #2483F0",
"#+	c #207EEE",
"$+	c #1A76EB",
"%+	c #0E6BE9",
"&+	c #88B4F4",
"*+	c #B6B5D5",
"=+	c #CBCCE6",
"-+	c #CED5FC",
";+	c #9DBCEA",
">+	c #5ACEFF",
",+	c #55C5FF",
"'+	c #4BB9FF",
")+	c #42AFFE",
"!+	c #369EFA",
"~+	c #2F94F7",
"{+	c #2A8DF5",
"]+	c #2687F3",
"^+	c #2180F0",
"/+	c #1D7AEE",
"(+	c #1773EB",
"_+	c #106BE9",
":+	c #609AF0",
"<+	c #CCCDE6",
"[+	c #B5B5D4",
"}+	c #D1D9FE",
"|+	c #AEBAE7",
"1+	c #58C3FA",
"2+	c #3EA9FE",
"3+	c #359EFC",
"4+	c #2F96F9",
"5+	c #2C91F7",
"6+	c #278AF5",
"7+	c #2384F3",
"8+	c #1E7CF0",
"9+	c #1A77EE",
"0+	c #1570EB",
"a+	c #0F69E9",
"b+	c #4D8DEF",
"c+	c #D9DDF2",
"d+	c #A2A1C6",
"e+	c #CFD6F8",
"f+	c #BEC0EA",
"g+	c #61B2EC",
"h+	c #4BBDFF",
"i+	c #3DA9FF",
"j+	c #339CFD",
"k+	c #3098FB",
"l+	c #2C91F9",
"m+	c #288CF7",
"n+	c #2486F5",
"o+	c #2080F3",
"p+	c #1B79F0",
"q+	c #1774EE",
"r+	c #126CEB",
"s+	c #0E66E9",
"t+	c #3B7FEC",
"u+	c #E3EBFC",
"v+	c #9898BD",
"w+	c #CED3F2",
"x+	c #CACEF5",
"y+	c #6AAAE7",
"z+	c #46B6FF",
"A+	c #349FFF",
"B+	c #2F97FD",
"C+	c #2C93FB",
"D+	c #288DF9",
"E+	c #2588F7",
"F+	c #2182F4",
"G+	c #1D7CF2",
"H+	c #1876F0",
"I+	c #1570EE",
"J+	c #0E68EB",
"K+	c #0660E9",
"L+	c #4D88ED",
"M+	c #E9F0FD",
"N+	c #C5C6E8",
"O+	c #D3DAFE",
"P+	c #80AFEA",
"Q+	c #3FACFD",
"R+	c #339DFF",
"S+	c #2F97FF",
"T+	c #2A91FD",
"U+	c #288DFB",
"V+	c #2387F9",
"W+	c #2182F7",
"X+	c #1D7DF4",
"Y+	c #1977F2",
"Z+	c #116EF0",
"`+	c #176EED",
" @	c #3E83ED",
".@	c #7DA9F1",
"+@	c #EDF0FA",
"@@	c #E0E0F1",
"#@	c #B0B0D6",
"$@	c #D4DAFA",
"%@	c #95B4EB",
"&@	c #3DA3F9",
"*@	c #2E97FF",
"=@	c #2B92FF",
"-@	c #268CFD",
";@	c #2488FB",
">@	c #2082F9",
",@	c #1D7EF7",
"'@	c #1576F5",
")@	c #1874F1",
"!@	c #488BEF",
"~@	c #96B8F3",
"{@	c #E0E9FB",
"]@	c #E5E7F8",
"^@	c #B4B5D6",
"/@	c #6C6C98",
"(@	c #9090B6",
"_@	c #CACFF2",
":@	c #AEBBEB",
"<@	c #4498F2",
"[@	c #288FFF",
"}@	c #248BFF",
"|@	c #2185FD",
"1@	c #1C80FB",
"2@	c #1D7CF7",
"3@	c #3284F4",
"4@	c #70A3F2",
"5@	c #C5D3F3",
"6@	c #E7E8F8",
"7@	c #D4D5EC",
"8@	c #9797C1",
"9@	c #5F5F95",
"0@	c #8181A7",
"a@	c #BFC3EA",
"b@	c #BEC6F0",
"c@	c #5894E8",
"d@	c #2189FF",
"e@	c #1E84FF",
"f@	c #1B7EFC",
"g@	c #3285F6",
"h@	c #80AAF1",
"i@	c #C4D2F7",
"j@	c #DBE0F8",
"k@	c #C9CCEB",
"l@	c #8586B1",
"m@	c #5F6089",
"n@	c #B4B5DB",
"o@	c #D0D7F9",
"p@	c #94A7E0",
"q@	c #388AF5",
"r@	c #4D94F7",
"s@	c #A6BDF0",
"t@	c #D4D9F5",
"u@	c #CFD1EE",
"v@	c #B9BEE4",
"w@	c #7C7EB5",
"x@	c #3A3A5E",
"y@	c #A09FC9",
"z@	c #D3DAFB",
"A@	c #CAD2F8",
"B@	c #BCC7F2",
"C@	c #CCD5FA",
"D@	c #C5C9EC",
"E@	c #AFB1DB",
"F@	c #AAAEDD",
"G@	c #8D91CA",
"H@	c #9094C7",
"I@	c #8B8FC7",
"J@	c #A6A9D8",
"K@	c #BEC5EE",
"L@	c #B8BEE7",
"M@	c #ACAED7",
"N@	c #C5C7E6",
"O@	c #DBE1FA",
"P@	c #D7DFFF",
"Q@	c #CED8FF",
"R@	c #9BA0D8",
"S@	c #A8AFDC",
"T@	c #ACB5E3",
"U@	c #ADB6E7",
"V@	c #B9C2F6",
"W@	c #9DA4DB",
"X@	c #767BAE",
"Y@	c #BFC0E1",
"Z@	c #B7B9DD",
"`@	c #9D9ECC",
" #	c #DBDBEC",
".#	c #ECF0FF",
"+#	c #E1E7FF",
"@#	c #D5DEFF",
"##	c #CBD5FE",
"$#	c #969BD4",
"%#	c #A1A7D7",
"&#	c #A8B1DF",
"*#	c #A2ABDC",
"=#	c #BCC7F7",
"-#	c #C6D1FF",
";#	c #BAC4F6",
">#	c #8387C9",
",#	c #E6E8F4",
"'#	c #F2F5FD",
")#	c #F3F6FE",
"!#	c #C8C9E2",
"~#	c #D7DCF6",
"{#	c #B2B7E4",
"]#	c #9194CC",
"^#	c #9296CB",
"/#	c #ADB4E1",
"(#	c #B1B9E6",
"_#	c #BBC5F4",
":#	c #B7C1F3",
"<#	c #A0A8E2",
"[#	c #6668A9",
"}#	c #474685",
"|#	c #CBCBDE",
"1#	c #F5F7FC",
"2#	c #EBECF8",
"3#	c #E9ECF9",
"4#	c #D1D4EE",
"5#	c #B2B4DA",
"6#	c #9798CB",
"7#	c #9EA2D1",
"8#	c #B4BAE2",
"9#	c #BDC4EC",
"0#	c #C2CBF4",
"a#	c #BDC6F5",
"b#	c #A1A8E2",
"c#	c #6668A8",
"d#	c #48497F",
"e#	c #E4E5F6",
"f#	c #F8F9FE",
"g#	c #EFF1FC",
"h#	c #EDF0FD",
"i#	c #EAEEFE",
"j#	c #E5EAFC",
"k#	c #C3C8E8",
"l#	c #D5DAF6",
"m#	c #DAE1FD",
"n#	c #D4DCFD",
"o#	c #BCC3EE",
"p#	c #989CD4",
"q#	c #5B5C9C",
"r#	c #3F3E73",
"s#	c #DCDCF1",
"t#	c #FAFBFF",
"u#	c #F3F6FF",
"v#	c #EFF2FF",
"w#	c #EBEFFF",
"x#	c #E8ECFF",
"y#	c #E5EBFF",
"z#	c #E2E8FF",
"A#	c #C7CCF0",
"B#	c #9EA1D6",
"C#	c #61629B",
"D#	c #444374",
"E#	c #9F9FC5",
"F#	c #EEF0F9",
"G#	c #F4F6FF",
"H#	c #EFF3FF",
"I#	c #EDF1FF",
"J#	c #E1E6F9",
"K#	c #C3C7EA",
"L#	c #9293C6",
"M#	c #5A5996",
"N#	c #B5B6D7",
"O#	c #F5F8FE",
"P#	c #EEF2FC",
"Q#	c #CACDEA",
"R#	c #9496C7",
"S#	c #5F5F92",
"T#	c #9696C4",
"U#	c #8585B7",
"V#	c #585890",
"                                            .                   ",
"                                  + @ # $ % & * =               ",
"                        - ; > , ' ) ! ~ { ] ^ / (               ",
"              _ : < [ } | 1 2 3 4 5 6 7 8 9 0 a b               ",
"          c d e f g h i j k l m n o p q r s t u v               ",
"          w x y z A B C D E F G H I J K L s M N O               ",
"          P Q R S T U V W X Y Z ` o J  ...+.@.#.$.              ",
"          %.&.*.=.-.;.>.,.'.).!.~.{.].^./.(._.:.<.[.            ",
"            }.|.1.2.3.4.5.6.7.8.9.0.a.b.c.d.e.f.g.h.            ",
"            i.j.k.l.m.n.o.p.!.q.r.s.K t.u.v.w.x.y.z.            ",
"            A.B.C.D.E.F.G.7.H.I.J.K.L.M.N.O.P.Q.R.S.            ",
"            T.U.V.W.X.Y.7.8.Z.I `. +.+++@+#+$+%+&+*+            ",
"              =+-+;+>+Z ,+Z.'+)+!+~+{+]+^+/+(+_+:+<+            ",
"              [+}+|+1+H.Z.I 2+3+4+5+6+7+8+9+0+a+b+c+            ",
"              d+e+f+g+h+J.i+j+k+l+m+n+o+p+q+r+s+t+u+            ",
"              v+w+x+y+z+K A+B+C+D+E+F+G+H+I+J+K+L+M+            ",
"                N+O+P+Q+R+S+T+U+V+W+X+Y+Z+`+ @.@+@@@            ",
"                #@$@%@&@*@=@-@;@>@,@'@)@!@~@{@]@^@/@            ",
"                (@_@:@<@[@}@|@1@2@3@4@5@6@7@8@9@                ",
"                0@a@b@c@d@e@f@g@h@i@j@k@l@m@                    ",
"                  n@o@p@q@r@s@t@u@v@w@x@                        ",
"                  y@z@A@B@C@D@E@F@b@G@H@I@                      ",
"                    J@K@L@M@N@O@P@Q@R@S@T@U@V@W@X@              ",
"                    Y@Z@`@ #.#+#@###$#%#&#*#=#-#;#>#            ",
"                  ,#'#)#Z@!#.#~#{#]#^#/#(#_#:#<#[#}#            ",
"                |#1#2#3#4#`@5#6#7#8#9#0#a#b#c#d#                ",
"                e#f#g#h#i#j#k#l#m#n#o#p#q#r#                    ",
"                s#t#u#v#w#x#y#z#A#B#C#D#                        ",
"                E#F#G#H#I#J#K#L#M#                              ",
"                  N#O#P#Q#R#S#                                  ",
"                    T#U#V#                                      ",
"                                                                "};
