/* XPM */
static char * gosa_16_xpm[] = {
"16 16 118 2",
"  	c None",
". 	c #B0B1D3",
"+ 	c #B3B4D3",
"@ 	c #BEC1DF",
"# 	c #C6C9E7",
"$ 	c #CED0EE",
"% 	c #D4DAF3",
"& 	c #CCE0FA",
"* 	c #9ECEFE",
"= 	c #BBDDFF",
"- 	c #D1D8FA",
"; 	c #BEC8EE",
"> 	c #B1D3F4",
", 	c #95D4F5",
"' 	c #75CDF9",
") 	c #51BEFE",
"! 	c #3FAEFF",
"~ 	c #34A0FF",
"{ 	c #49A0FC",
"] 	c #B3B0C4",
"^ 	c #D0D6FA",
"/ 	c #A6D5F1",
"( 	c #87E0FF",
"_ 	c #6BD9FF",
": 	c #5BCCFF",
"< 	c #4EBCFF",
"[ 	c #41AEFF",
"} 	c #349FFF",
"| 	c #308AF1",
"1 	c #BABACE",
"2 	c #CFD4F4",
"3 	c #9AC4EA",
"4 	c #76DCFF",
"5 	c #63D4FF",
"6 	c #57C7FF",
"7 	c #4AB8FF",
"8 	c #3EAAFF",
"9 	c #2C93F8",
"0 	c #1D78EA",
"a 	c #B3B8D4",
"b 	c #C2C4E3",
"c 	c #A4C3ED",
"d 	c #63D6FF",
"e 	c #5BCBFF",
"f 	c #50BFFF",
"g 	c #44B1FE",
"h 	c #3198F8",
"i 	c #2382EF",
"j 	c #1572EA",
"k 	c #A3B5E2",
"l 	c #B5B6D2",
"m 	c #BAC9F3",
"n 	c #58C8FE",
"o 	c #51C0FF",
"p 	c #40ACFE",
"q 	c #3096F8",
"r 	c #2688F4",
"s 	c #1E7BEF",
"t 	c #136EEA",
"u 	c #94B4EE",
"v 	c #C9CEF2",
"w 	c #57B4F4",
"x 	c #3EABFF",
"y 	c #3098FC",
"z 	c #288CF8",
"A 	c #2081F4",
"B 	c #1875EF",
"C 	c #0D66EA",
"D 	c #95B8F4",
"E 	c #C7CBEE",
"F 	c #64ACF3",
"G 	c #2F97FF",
"H 	c #278CFC",
"I 	c #2082F8",
"J 	c #1978F3",
"K 	c #4288F0",
"L 	c #A0BFF4",
"M 	c #C1C2DA",
"N 	c #ACAED4",
"O 	c #82ABED",
"P 	c #238AFF",
"Q 	c #2282FA",
"R 	c #659FF5",
"S 	c #B6C8F2",
"T 	c #B1B2D0",
"U 	c #9F9FC6",
"V 	c #C0CAF3",
"W 	c #83AEF6",
"X 	c #BCC4EB",
"Y 	c #BCC1E8",
"Z 	c #7C7EB2",
"` 	c #B7BAE1",
" .	c #B7B9DE",
"..	c #DBE0F8",
"+.	c #D1DAFF",
"@.	c #9EA4D8",
"#.	c #A9B2E1",
"$.	c #B6C0F2",
"%.	c #9197CF",
"&.	c #DADBE9",
"*.	c #EEF1FB",
"=.	c #BBBDDE",
"-.	c #C3C6E6",
";.	c #A5AAD9",
">.	c #B0B6E3",
",.	c #B2BBEC",
"'.	c #888DC6",
").	c #EDEDF9",
"!.	c #F0F2FE",
"~.	c #E8EDFE",
"{.	c #D8DDF7",
"].	c #C5CBF0",
"^.	c #888CBF",
"/.	c #B6B7D4",
"(.	c #F2F5FE",
"_.	c #CBCFEA",
":.	c #8B8CB9",
"<.	c #7B7BA8",
"                    . +         ",
"          @ # $ % & * =         ",
"      - ; > , ' ) ! ~ { ]       ",
"      ^ / ( _ : < [ } | 1       ",
"      2 3 4 5 6 7 8 9 0 a       ",
"      b c d e f g h i j k       ",
"      l m n o p q r s t u       ",
"        v w x y z A B C D       ",
"        E F G H I J K L M       ",
"        N O P Q R S T           ",
"        U V W X Y Z             ",
"          `  ...+.@.#.$.%.      ",
"        &.*.=.-.;.>.,.'.        ",
"        ).!.~.{.].^.            ",
"        /.(._.:.                ",
"          <.                    "};
