<?xml version="1.0" encoding="UTF-8" standalone="no"?>
<!-- Created with Inkscape (http://www.inkscape.org/) -->

<svg
   xmlns:dc="http://purl.org/dc/elements/1.1/"
   xmlns:cc="http://creativecommons.org/ns#"
   xmlns:rdf="http://www.w3.org/1999/02/22-rdf-syntax-ns#"
   xmlns:svg="http://www.w3.org/2000/svg"
   xmlns="http://www.w3.org/2000/svg"
   xmlns:sodipodi="http://sodipodi.sourceforge.net/DTD/sodipodi-0.dtd"
   xmlns:inkscape="http://www.inkscape.org/namespaces/inkscape"
   width="210mm"
   height="297mm"
   id="svg2"
   version="1.1"
   inkscape:version="0.48.0 r9654"
   sodipodi:docname="Nouveau document 1">
  <defs
     id="defs4" />
  <sodipodi:namedview
     id="base"
     pagecolor="#ffffff"
     bordercolor="#666666"
     borderopacity="1.0"
     inkscape:pageopacity="0.0"
     inkscape:pageshadow="2"
     inkscape:zoom="0.98994949"
     inkscape:cx="370.65811"
     inkscape:cy="452.85804"
     inkscape:document-units="px"
     inkscape:current-layer="layer1"
     showgrid="false"
     inkscape:window-width="1280"
     inkscape:window-height="955"
     inkscape:window-x="1440"
     inkscape:window-y="25"
     inkscape:window-maximized="1" />
  <metadata
     id="metadata7">
    <rdf:RDF>
      <cc:Work
         rdf:about="">
        <dc:format>image/svg+xml</dc:format>
        <dc:type
           rdf:resource="http://purl.org/dc/dcmitype/StillImage" />
        <dc:title></dc:title>
      </cc:Work>
    </rdf:RDF>
  </metadata>
  <g
     inkscape:label="Calque 1"
     inkscape:groupmode="layer"
     id="layer1">
    <g
       id="g3163"
       inkscape:export-filename="/home/gallavardin/Documents/developpement/FusionDirectory/logo_beta.png"
       inkscape:export-xdpi="19.485073"
       inkscape:export-ydpi="19.485073">
      <text
         transform="scale(1.0256251,0.97501512)"
         sodipodi:linespacing="125%"
         id="text3007"
         y="721.68341"
         x="66.514046"
         style="font-size:115.56193542px;font-style:normal;font-weight:normal;line-height:125%;letter-spacing:0px;word-spacing:0px;fill:#808000;fill-opacity:1;stroke:none;font-family:Sans"
         xml:space="preserve"><tspan
           style="font-size:74.84634399px;fill:#ff6600;stroke:#ff6600;stroke-width:0.94797474"
           y="721.68341"
           x="66.514046"
           id="tspan3009"
           sodipodi:role="line">Fusi</tspan></text>
      <text
         sodipodi:linespacing="125%"
         id="text3007-6"
         y="704.68555"
         x="290.99936"
         style="font-size:112.67463684px;font-style:normal;font-weight:normal;line-height:125%;letter-spacing:0px;word-spacing:0px;fill:#808000;fill-opacity:1;stroke:none;font-family:Sans"
         xml:space="preserve"><tspan
           style="font-size:72px;fill:#ff6600"
           y="704.68555"
           x="290.99936"
           id="tspan3009-5"
           sodipodi:role="line">n</tspan></text>
      <g
         transform="matrix(0.75836378,0,0,0.75836378,-2.7000888,184.09132)"
         id="g3154">
        <path
           id="path2711"
           d="m 324.89412,799.20275 c 1.10315,-0.26007 2.66548,-0.70037 3.47185,-0.97846 1.3414,-0.46259 1.74237,-0.50436 4.71343,-0.491 3.6467,0.0164 6.08782,-0.37291 8.99789,-1.43496 5.00435,-1.82636 9.16985,-5.42944 11.4788,-9.92893 0.73175,-1.42598 0.86944,-1.98983 0.53621,-2.19578 -0.10207,-0.0631 -1.01381,0.0282 -2.02608,0.20292 -2.05328,0.35434 -3.15353,0.25978 -4.16999,-0.35838 -0.77978,-0.47423 -1.79106,-1.89743 -1.5228,-2.14308 0.10034,-0.0919 1.13014,-0.77697 2.28844,-1.52241 6.44308,-4.14652 10.85362,-8.54797 13.28718,-13.25979 1.18607,-2.29645 2.06551,-4.86212 1.76843,-5.1592 -0.23532,-0.23532 -0.21655,-0.23863 -5.42816,0.95629 -3.66667,0.84069 -5.404,0.9278 -6.02949,0.30231 -0.22741,-0.22742 -0.38536,-0.55357 -0.351,-0.7248 0.0344,-0.17122 1.18685,-0.89015 2.56108,-1.59762 7.14354,-3.67758 13.70864,-9.50205 17.14775,-15.21325 0.81453,-1.35266 0.87961,-1.80347 0.30479,-2.1111 -1.17756,-0.63022 -3.10684,-0.46769 -7.66746,0.64592 -1.40725,0.34362 -2.61047,0.57293 -2.67383,0.50956 -0.2379,-0.2379 0.37617,-0.93871 3.61031,-4.12025 4.52689,-4.45326 6.70405,-7.1093 9.12004,-11.12605 1.16801,-1.94192 2.85828,-5.4077 3.82369,-7.84027 0.77579,-1.95477 0.65754,-2.22851 -0.87778,-2.03202 -1.81476,0.23225 -2.57456,0.49689 -5.60242,1.95133 -3.30557,1.58784 -4.29622,1.76848 -5.58525,1.01845 -1.00227,-0.58318 -0.99628,-0.77583 0.34513,-11.09508 0.87315,-6.71696 0.90014,-8.62458 0.12204,-8.62458 -0.9545,0 -3.43157,2.26843 -7.33714,6.71915 -3.7008,4.21737 -5.79498,6.1135 -6.24977,5.65871 -0.0518,-0.0518 -0.27076,-0.83337 -0.48654,-1.73679 -0.75932,-3.17919 -2.268,-5.62809 -3.46599,-5.62603 -0.66495,10e-4 -1.65737,0.69333 -2.36186,1.64733 -2.43839,3.302 -4.83993,12.33431 -4.48246,16.85879 0.14366,1.81845 -0.1675,4.63013 -0.63669,5.75306 -0.3851,0.92166 -1.04783,1.61383 -1.5452,1.61383 -0.69046,0 -1.85633,-1.46514 -2.50423,-3.14701 -0.69011,-1.79144 -1.0021,-1.9708 -2.17129,-1.2482 -1.72892,1.06853 -3.28746,4.81134 -3.78153,9.08133 -0.0749,0.64686 -0.20375,1.09815 -0.28646,1.00286 -0.0827,-0.0953 -0.35398,-0.94045 -0.60282,-1.87812 -0.54874,-2.06773 -1.1458,-3.20915 -1.67867,-3.20915 -0.63483,0 -3.12961,2.72636 -5.04721,5.51572 -1.7032,2.47749 -3.57606,4.71344 -3.94804,4.71344 -0.28685,0 -0.19146,-5.96799 0.13792,-8.62851 0.91607,-7.39946 3.0917,-13.15083 10.01366,-26.47154 1.51908,-2.92334 2.7984,-5.35484 2.84293,-5.40334 0.0445,-0.0485 0.21457,0.10254 0.37784,0.33565 0.39139,0.55879 1.53701,0.92327 2.34452,0.74591 0.89797,-0.19723 2.15159,-1.06875 2.26388,-1.57387 0.0516,-0.2323 0.11779,-3.01288 0.14699,-6.17908 0.0395,-4.2785 0.11748,-5.82102 0.30381,-6.00712 0.1379,-0.13772 0.25275,-0.16466 0.25524,-0.0599 0.002,0.10479 0.44631,2.85136 0.98626,6.10348 0.92338,5.56145 1.0132,5.94001 1.51095,6.36816 0.91658,0.78841 2.96825,0.47474 3.50947,-0.53655 0.32999,-0.61659 0.24701,-1.6475 -0.49984,-6.20953 -0.38654,-2.36115 -0.66761,-4.32819 -0.6246,-4.37121 0.0714,-0.0715 0.70354,1.59147 2.5586,6.73128 0.75108,2.081 1.20009,2.65807 2.33214,2.99724 1.52559,0.45707 3.25966,-0.56592 3.25966,-1.92299 0,-0.38703 -0.58925,-2.42034 -1.30945,-4.51846 -0.7202,-2.09813 -1.27751,-3.9106 -1.23846,-4.02773 0.039,-0.11712 1.00305,1.44009 2.14225,3.46047 1.73098,3.06991 2.18206,3.72625 2.74568,3.99502 0.63849,0.30447 0.72243,0.29827 1.57599,-0.11642 1.05955,-0.51477 1.76389,-1.50886 1.59171,-2.2465 -0.0644,-0.27579 -0.75227,-1.65825 -1.52867,-3.07214 -0.7764,-1.41389 -1.37466,-2.60769 -1.32947,-2.65287 0.0452,-0.0452 0.99618,1.02284 2.11331,2.37339 1.11713,1.35055 2.23994,2.64909 2.49513,2.88565 1.30316,1.20798 3.06178,0.23433 3.75594,-2.07945 0.49279,-1.64262 0.43515,-1.80347 -1.51546,-4.22864 -0.83188,-1.03427 -1.47536,-1.91765 -1.42995,-1.96306 0.0454,-0.0454 1.14008,0.81788 2.4326,1.91843 1.29253,1.10055 2.57415,2.05724 2.84807,2.12599 1.68583,0.42311 3.43935,-2.31281 2.34105,-3.65264 -0.19059,-0.23251 -2.55784,-2.29839 -5.26054,-4.59084 -5.69548,-4.83093 -5.56428,-4.71413 -5.29507,-4.71413 0.11348,0 2.99267,1.62463 6.39821,3.61029 4.44275,2.59043 6.36908,3.61029 6.81914,3.61029 0.96947,0 2.1063,-1.36951 2.1063,-2.5374 0,-0.58774 -0.53017,-2.19248 -0.8724,-2.6406 -0.11088,-0.14519 -2.32921,-1.53156 -4.92961,-3.08081 -5.74436,-3.42234 -5.68598,-3.3858 -5.57937,-3.49241 0.0473,-0.0473 2.37926,0.78212 5.18213,1.84317 6.67948,2.52859 6.75934,2.55281 7.4607,2.2623 1.2204,-0.50551 1.79144,-2.96307 0.8947,-3.85055 -0.26882,-0.26604 -2.80312,-1.32919 -6.26787,-2.6294 -5.30437,-1.99055 -6.56842,-2.52175 -6.00076,-2.52175 0.86919,0 10.61845,1.95629 12.95497,2.59955 1.61852,0.44559 3.15538,0.81017 3.41523,0.81017 1.54981,0 2.54471,-2.81759 1.42988,-4.04947 -0.18178,-0.20086 -0.97046,-0.54834 -1.75262,-0.77218 -0.78216,-0.22384 -1.64815,-0.53127 -1.92443,-0.6832 -0.27627,-0.15192 -1.08858,-0.37871 -1.80514,-0.50397 -1.30668,-0.22844 -10.04231,-2.56352 -10.20726,-2.72846 -0.1732,-0.17321 1.26225,-0.0791 7.83449,0.51384 8.10536,0.73121 8.01881,0.72992 8.71688,0.12947 0.48906,-0.42067 0.5676,-0.66706 0.71926,-2.25643 0.0936,-0.9813 0.22039,-2.24755 0.28167,-2.81387 0.12667,-1.17064 -0.25953,-2.16856 -0.92043,-2.37832 -0.39393,-0.12502 -0.39319,-0.13637 0.0479,-0.73357 0.3569,-0.48317 0.43458,-0.81729 0.38183,-1.64223 -0.0803,-1.25539 -0.0717,-1.57996 0.072,-2.7405 0.0804,-0.64883 0.0107,-1.09986 -0.24785,-1.60434 -0.68674,-1.34005 -0.52757,-1.34002 -9.58951,-0.002 -7.92652,1.17024 -9.09937,1.31599 -8.88793,1.10455 0.0554,-0.0554 3.65121,-1.31792 7.99058,-2.80551 4.99926,-1.71381 8.06082,-2.8654 8.35664,-3.14331 0.35131,-0.33004 0.46687,-0.6566 0.46687,-1.31939 0,-1.60561 -0.84337,-2.65957 -2.12814,-2.65957 -0.7846,0 -0.89084,-0.0642 -1.29407,-0.78163 -0.42973,-0.76461 -1.08226,-1.22409 -1.73835,-1.22409 -0.18038,0 -3.06805,1.54573 -6.41705,3.43496 -3.349,1.88922 -6.12921,3.39483 -6.17824,3.3458 -0.049,-0.049 2.32391,-2.06861 5.2732,-4.48796 2.94929,-2.41934 5.56543,-4.61506 5.81364,-4.87938 1.42729,-1.51992 -0.77214,-4.58653 -2.59127,-3.61296 -0.22482,0.12032 -2.92917,2.28649 -6.00966,4.81372 -3.0805,2.52723 -5.65453,4.59497 -5.72006,4.59497 -0.36462,0 2.27952,-2.9386 7.18946,-7.99009 3.18114,-3.27286 4.79342,-5.07638 4.87659,-5.45501 0.14721,-0.67028 -0.22759,-1.47556 -1.03659,-2.22711 -0.83015,-0.77119 -1.34736,-0.86576 -2.22342,-0.40654 -0.41411,0.21707 -1.03398,0.49968 -1.37749,0.62802 -0.42896,0.16026 -1.79123,1.59558 -4.3495,4.58274 -3.71488,4.33768 -6.41155,7.17604 -5.65676,5.95398 0.20441,-0.33094 2.38663,-3.52423 4.84938,-7.09619 3.10294,-4.50048 4.47555,-6.65583 4.47063,-7.02001 -0.0227,-1.68145 -2.40872,-3.07265 -3.56724,-2.07997 -0.2253,0.19306 -2.53871,3.43814 -5.14092,7.2113 -2.60221,3.77316 -4.81777,6.91374 -4.92347,6.97907 -0.22342,0.13808 -0.072,-0.20194 4.08494,-9.17472 3.19738,-6.90151 3.4452,-7.64324 2.84158,-8.50502 -0.67714,-0.96675 -2.5145,-1.36997 -3.29279,-0.72263 -0.2321,0.19305 -1.3807,2.42692 -2.55244,4.96415 -1.17174,2.53723 -2.22359,4.70341 -2.33745,4.81372 -0.14009,0.13572 -0.1761,0.1033 -0.11139,-0.10029 0.0526,-0.16547 0.5779,-1.95041 1.16731,-3.96655 1.04039,-3.5587 1.06241,-3.6851 0.75445,-4.3309 -0.566,-1.18691 -2.60769,-1.74268 -3.56228,-0.9697 -0.34355,0.27819 -0.87509,1.81769 -2.33282,6.75661 -1.03834,3.51798 -1.93121,6.43964 -1.98415,6.49258 -0.17918,0.17917 -0.0944,-0.65999 0.70603,-6.99061 0.43937,-3.47491 0.79963,-6.47454 0.80057,-6.66585 10e-4,-0.19131 -0.25185,-0.63162 -0.56177,-0.97848 -0.45391,-0.50802 -0.76036,-0.64957 -1.57593,-0.72793 -0.90255,-0.0867 -1.08157,-0.0349 -1.64927,0.47705 l -0.63683,0.57434 -0.88938,7.09686 c -0.48916,3.90327 -0.92844,7.13592 -0.97619,7.18366 -0.11267,0.11267 -0.28353,-2.81223 -0.53543,-9.16594 -0.11153,-2.81302 -0.30359,-5.36685 -0.42679,-5.67519 -0.58443,-1.46264 -4.26622,-1.54121 -4.65248,-0.0993 -0.0677,0.25263 -0.1314,3.57319 -0.14161,7.37904 -0.0112,4.18755 -0.0873,6.72174 -0.19267,6.4183 -0.0958,-0.27579 -0.6333,-3.33377 -1.19457,-6.79552 -0.56127,-3.46175 -1.11486,-6.47045 -1.23022,-6.68599 -0.11536,-0.21555 -0.52168,-0.52224 -0.90293,-0.68153 -1.23361,-0.51544 -2.89957,0.2154 -3.19757,1.40276 -0.0673,0.26821 0.38775,3.61283 1.01126,7.4325 0.62351,3.81966 1.10501,7.09263 1.07001,7.27327 -0.035,0.18064 -1.10161,-2.72657 -2.37023,-6.46047 -1.26861,-3.7339 -2.46936,-6.9962 -2.66833,-7.24957 -0.53489,-0.68113 -1.75241,-0.99261 -2.73232,-0.69902 -0.885,0.26515 -1.81944,1.23958 -1.82088,1.8988 -5.2e-4,0.23974 1.0443,3.39379 2.32184,7.00898 1.27753,3.6152 2.29335,6.65854 2.25738,6.76298 -0.036,0.10445 -1.50952,-2.44729 -3.27455,-5.67051 -1.76503,-3.22322 -3.45041,-6.10862 -3.74529,-6.41198 -0.65921,-0.67818 -1.54361,-0.72448 -2.50377,-0.13107 -0.70672,0.43678 -1.27238,1.29675 -1.27238,1.93438 0,0.203 1.58814,3.25367 3.5292,6.77926 1.94106,3.52559 3.61983,6.57901 3.73059,6.78537 0.51712,0.96347 -0.5586,-0.28042 -4.63383,-5.35822 -4.57404,-5.69933 -4.85867,-6.01772 -5.57437,-6.23562 -0.99956,-0.30432 -2.6676,1.21069 -2.6676,2.42287 0,0.8588 0.11729,1.03005 4.98803,7.28275 2.10162,2.69791 3.77825,4.94817 3.72584,5.00059 -0.0524,0.0524 -0.38728,-0.17994 -0.74415,-0.51634 -3.5946,-3.38836 -8.73568,-7.95762 -9.11629,-8.10233 -1.41259,-0.53707 -3.33696,1.76202 -2.75161,3.28742 0.0623,0.16232 2.41162,2.39341 5.22073,4.95798 2.8091,2.56456 5.06771,4.70259 5.01912,4.75118 -0.0486,0.0486 -2.53433,-1.45568 -5.52386,-3.34283 -2.98953,-1.88714 -5.67672,-3.52289 -5.97154,-3.63497 -0.6427,-0.24436 -1.57667,0.0755 -1.881,0.64411 -0.27616,0.516 -0.53405,0.47605 -2.05951,-0.31907 -1.16907,-0.60937 -1.40334,-0.66678 -1.94712,-0.47722 -1.27909,0.44589 -2.06591,2.53529 -1.35663,3.60252 0.17818,0.26811 3.45836,2.29014 7.51689,4.6337 3.96042,2.28691 7.37833,4.29223 7.59536,4.45626 0.36858,0.27858 0.35492,0.28696 -0.20711,0.12712 -0.33095,-0.0941 -3.97486,-1.39994 -8.0976,-2.90183 -4.12273,-1.50188 -7.67227,-2.7307 -7.88786,-2.7307 -0.58452,0 -1.50193,1.02821 -1.75458,1.96651 -0.27291,1.0135 -0.1116,1.73576 0.49408,2.21219 0.25276,0.19882 4.01085,1.65244 8.35133,3.23026 7.40693,2.69253 8.70297,3.21615 7.98203,3.22485 -0.15996,0.002 -3.96151,-0.60473 -8.4479,-1.34814 -6.33789,-1.05021 -8.2837,-1.30772 -8.72487,-1.15465 -1.08206,0.37544 -1.64382,2.52214 -0.96895,3.70271 0.15766,0.27579 0.28985,0.79925 0.29375,1.16325 0.0104,0.96285 0.50182,1.76878 1.23438,2.02415 0.41669,0.14526 3.14748,0.22925 7.87853,0.24232 3.98244,0.011 7.46644,0.0843 7.74223,0.16284 l 0.50142,0.14285 -0.50142,0.12107 c -0.27579,0.0666 -3.88608,0.68934 -8.02287,1.38389 -7.20926,1.21041 -7.54531,1.28638 -8.09654,1.83019 -0.53097,0.52382 -0.5685,0.65849 -0.48917,1.75518 0.089,1.23016 0.47499,1.90735 1.25272,2.19773 0.32737,0.12223 0.38211,0.31715 0.34541,1.2299 -0.0267,0.66447 0.0746,1.30618 0.26145,1.65649 0.28185,0.52831 0.27464,0.61052 -0.0947,1.08005 -0.98124,1.24744 -0.17176,3.44051 1.45552,3.94335 0.2343,0.0724 0.351,0.31276 0.351,0.72292 0,1.30124 0.93392,2.60728 1.8644,2.60728 0.20412,0 3.07712,-1.00302 6.38443,-2.22895 3.30732,-1.22592 6.06025,-2.182 6.11762,-2.12463 0.19712,0.19713 -4.04051,3.17464 -7.42517,5.2172 -3.67596,2.21835 -3.9327,2.48955 -3.9327,4.1542 0,0.97322 0.39539,1.81078 1.12619,2.38563 1.08189,0.85102 1.37412,0.7183 6.07184,-2.75738 2.30488,-1.70531 6.57272,-4.38113 6.73189,-4.22072 0.0415,0.0418 -2.03406,2.2823 -4.6124,4.97879 -2.57833,2.69648 -4.79935,5.17182 -4.9356,5.50075 -0.2192,0.52919 -0.19032,0.70085 0.25084,1.49104 0.59787,1.07089 1.66963,1.76701 2.42761,1.57677 0.3335,-0.0837 2.50832,-2.20595 5.99238,-5.84752 3.00789,-3.14387 5.50833,-5.67669 5.55653,-5.62849 0.10194,0.10194 0.30057,-0.18249 -4.81869,6.90005 -2.18074,3.01708 -4.0207,5.7076 -4.0888,5.97895 -0.0681,0.27134 -0.0762,0.9167 -0.0179,1.43413 0.089,0.7904 0.24132,1.06101 0.95311,1.69293 0.92671,0.82271 1.78594,0.97938 2.5265,0.46067 0.22887,-0.16031 2.23623,-2.99908 4.46078,-6.30838 2.22456,-3.3093 4.13023,-6.0698 4.23481,-6.13444 0.10459,-0.0646 -1.12704,2.57106 -2.73695,5.8571 -4.02113,8.20768 -3.80209,7.65837 -3.39545,8.51531 0.38176,0.80448 1.5845,1.57103 2.46502,1.57103 0.91877,0 1.48589,-0.78785 3.37066,-4.68263 0.9527,-1.96871 1.77863,-3.53303 1.83539,-3.47627 0.0568,0.0568 -0.41594,1.53215 -1.05045,3.27862 -0.63452,1.74648 -1.15664,3.46754 -1.16028,3.82457 -0.004,0.43815 0.16941,0.83289 0.53493,1.21441 0.29785,0.31089 0.54154,0.79163 0.54154,1.06832 0,1.10048 1.95887,2.18735 3.17695,1.76272 0.82695,-0.28827 0.99836,-0.64296 2.11509,-4.37655 1.28913,-4.30999 1.45435,-4.32384 0.63956,-0.0536 -0.25929,1.3589 -0.42391,2.66763 -0.36583,2.90829 0.13319,0.55183 0.83591,1.34014 1.19464,1.34014 0.14971,0 0.31794,0.11924 0.37387,0.26497 0.0559,0.14573 -1.41908,3.28217 -3.27779,6.96987 -4.23554,8.40337 -5.65333,11.85592 -7.64635,18.62016 -0.11843,0.40196 -0.23506,0.20071 -0.69737,-1.20343 -0.67509,-2.05039 -1.14173,-3.03256 -1.49549,-3.14763 -0.41535,-0.13511 -2.07755,1.7376 -2.72343,3.06835 -0.32065,0.66065 -1.02558,2.37452 -1.56651,3.80861 -0.95932,2.5433 -1.24033,3.09532 -1.46255,2.87309 -0.16678,-0.16677 -0.65251,-3.17372 -0.99669,-6.17 -0.82597,-7.19075 -2.88238,-13.57221 -6.37792,-19.79201 -1.91526,-3.40794 -2.13101,-3.51453 -3.1182,-1.54044 -0.84346,1.68666 -1.16352,2.83688 -1.63505,5.8759 -0.50969,3.28497 -0.9173,4.22508 -2.14346,4.94366 -0.7914,0.46379 -0.9536,0.49487 -1.38305,0.26503 -0.26759,-0.14321 -2.54063,-2.24285 -5.05121,-4.66587 -7.44844,-7.18868 -8.23665,-7.8166 -8.8319,-7.03583 -0.52371,0.68692 -0.17112,4.22921 0.96572,9.70216 1.04282,5.02032 1.45959,8.63825 1.02596,8.90625 -0.12356,0.0764 -1.10624,-0.19254 -2.18372,-0.59758 -3.11447,-1.17078 -5.29988,-1.15655 -5.84418,0.038 -0.46918,1.02974 -0.0926,3.38252 0.83371,5.20863 1.30699,2.57662 4.76115,7.08796 7.02065,9.16939 0.57479,0.52948 1.82413,1.5023 2.77632,2.1618 3.53375,2.44753 5.20225,5.00023 3.98707,6.09995 -0.56328,0.50977 -2.09957,0.60571 -3.589,0.22414 -2.13498,-0.54696 -2.22961,-0.48768 -2.22961,1.39657 0,2.22111 1.6023,4.93689 4.70873,7.98098 1.94638,1.90731 4.40021,3.77811 6.48331,4.94289 0.84934,0.47491 2.51931,1.42736 3.71104,2.11655 1.19172,0.68919 2.92917,1.59645 3.861,2.01612 0.93183,0.41968 1.69424,0.83457 1.69424,0.92198 0,0.28227 -2.62838,0.16792 -5.81658,-0.25306 -3.5311,-0.46626 -4.62455,-0.39713 -5.36057,0.33889 -0.41811,0.41811 -0.4751,0.61345 -0.36102,1.2375 0.23732,1.29825 1.07265,2.40708 4.0852,5.42277 3.08474,3.08796 5.25077,4.76461 8.58777,6.64751 1.74244,0.98317 2.04271,1.24394 3.20198,2.78085 1.29865,1.7217 1.52511,2.38445 0.97171,2.84373 -0.49062,0.40718 -2.08679,0.4588 -3.55777,0.11506 -1.69406,-0.39586 -2.75438,-0.9284 -3.41741,-1.71636 -0.28254,-0.33578 -0.60807,-0.61051 -0.72341,-0.61051 -0.33953,0 -0.5097,0.98071 -0.50464,2.90829 0.006,2.21543 0.43431,3.26916 2.2633,5.56579 1.21825,1.52973 1.28467,1.57774 4.19394,3.03108 3.72837,1.86254 6.15041,2.81711 8.73924,3.44432 2.8539,0.69142 7.30239,0.68649 10.26257,-0.0114 z m 7.40367,-107.14683 c 0.35441,-1.90066 0.71706,-3.52529 0.80589,-3.61029 0.0888,-0.085 0.11823,0.8834 0.0653,2.15202 -0.0855,2.05014 -0.16668,2.46029 -0.73024,3.6893 -0.34873,0.76049 -0.66809,1.34717 -0.70971,1.30371 -0.0416,-0.0435 0.21432,-1.63409 0.56873,-3.53474 z"
           style="fill:#ede6a0"
           inkscape:connector-curvature="0" />
        <path
           id="path2709"
           d="m 322.6019,799.40179 c 2.08009,-0.32429 4.66199,-0.96978 6.0199,-1.50502 0.8524,-0.33598 1.49248,-0.3944 4.32125,-0.3944 2.54692,0 3.78609,-0.0949 5.31822,-0.40708 7.01748,-1.43007 12.4906,-5.45304 15.3333,-11.27061 0.30844,-0.63123 0.49546,-1.21304 0.41559,-1.29291 -0.0799,-0.0799 -0.89187,-0.0373 -1.80445,0.0947 -2.17813,0.31493 -2.80441,0.30281 -3.70071,-0.0716 -1.12922,-0.4717 -2.45056,-1.90316 -2.45056,-2.65478 0,-0.098 0.88001,-0.72593 1.95557,-1.39538 5.93037,-3.69118 10.6411,-8.13714 13.13073,-12.39274 1.47654,-2.52389 2.78251,-6.11078 2.2249,-6.11078 -0.10506,0 -1.71894,0.36808 -3.58639,0.81795 -2.17988,0.52514 -4.07748,0.85537 -5.3008,0.92246 -1.75023,0.096 -1.94219,0.0696 -2.35672,-0.32433 -0.45633,-0.43365 -0.56736,-0.93187 -0.29778,-1.33629 0.081,-0.12159 1.25763,-0.78548 2.61464,-1.47531 4.39194,-2.23264 8.28972,-5.06 11.65722,-8.45586 2.09376,-2.1114 4.75012,-5.4584 5.63181,-7.09606 0.48065,-0.89276 0.48624,-0.94254 0.13491,-1.20157 -0.96532,-0.7117 -3.00258,-0.57232 -7.25146,0.49612 -4.53137,1.13947 -4.50022,0.9134 0.56353,-4.08971 4.17035,-4.12043 5.64742,-5.85205 7.80105,-9.14545 2.06524,-3.15824 5.37084,-9.90156 5.37084,-10.95636 0,-0.37143 -1.55967,-0.36169 -3.00858,0.0188 -0.60673,0.15933 -2.30307,0.89818 -3.76964,1.6419 -3.04905,1.5462 -4.0844,1.72381 -5.55694,0.95327 -0.77806,-0.40713 -0.80412,-0.45436 -0.86273,-1.56399 -0.0332,-0.6293 0.17552,-2.96759 0.46391,-5.19619 1.58204,-12.22558 1.62208,-13.37074 0.44878,-12.83615 -1.00824,0.45939 -3.20192,2.55858 -5.9685,5.71143 -3.68828,4.20323 -4.72137,5.2808 -5.75076,5.99831 -0.87743,0.61158 -1.3568,0.72626 -1.57308,0.37632 -0.0707,-0.11444 -0.34854,-1.03958 -0.61735,-2.05586 -0.86605,-3.27413 -2.04193,-5.15722 -3.2204,-5.15722 -1.35316,0 -3.42164,3.19271 -4.74302,7.32087 -1.31404,4.10527 -1.7784,6.93763 -1.84145,11.23202 -0.0589,4.00878 -0.29578,5.37912 -1.13363,6.55686 -1.12925,1.58736 -2.69538,0.56928 -3.96842,-2.57973 -0.69388,-1.71639 -1.04703,-1.82149 -2.28526,-0.68013 -1.57074,1.44787 -2.64941,4.30838 -3.20198,8.49139 -0.13899,1.05219 -0.33098,1.81939 -0.44502,1.77841 -0.11032,-0.0396 -0.31628,-0.49092 -0.45771,-1.00286 -0.73955,-2.67703 -1.27549,-4.21462 -1.54782,-4.44064 -0.70066,-0.58149 -2.47842,1.25353 -5.62966,5.81099 -1.75876,2.54359 -3.24766,4.21745 -3.75144,4.21745 -0.53336,0 -0.62351,-1.19183 -0.37816,-4.99948 0.60142,-9.33371 2.1279,-14.02346 9.01413,-27.69371 2.25057,-4.46774 4.16964,-8.2048 4.2646,-8.30457 0.10063,-0.10573 0.41923,0.0825 0.76369,0.45128 0.49533,0.53026 0.73853,0.6327 1.50195,0.6327 0.98186,0 2.20711,-0.58435 2.54361,-1.21311 0.11279,-0.21074 0.19586,-2.63893 0.19651,-5.74357 6e-4,-3.07602 0.0897,-5.69736 0.208,-6.12337 0.19803,-0.71306 0.51138,-1.10861 0.71607,-0.90392 0.0529,0.0529 0.54321,2.83737 1.08952,6.18767 0.94137,5.77302 1.02142,6.11616 1.53125,6.56428 0.43054,0.37843 0.69242,0.45212 1.31164,0.36906 1.00504,-0.1348 1.72218,-0.61631 1.88518,-1.26576 0.0731,-0.29105 -0.23457,-2.77912 -0.70023,-5.66362 -0.86455,-5.35533 -0.96189,-6.26182 -0.63754,-5.93679 0.10458,0.1048 0.99158,2.39135 1.97112,5.08123 1.05557,2.89867 1.96457,5.08144 2.23173,5.35902 1.21504,1.26242 4.03102,0.53337 4.03102,-1.04362 0,-0.23782 -0.72206,-2.58101 -1.60458,-5.20711 -0.88251,-2.6261 -1.60457,-4.91286 -1.60457,-5.08169 0,-0.58318 0.5103,0.19611 2.81044,4.29186 1.23903,2.20629 2.39115,4.16938 2.56026,4.36244 0.62392,0.71222 2.50109,0.1794 3.06229,-0.86921 0.38856,-0.72602 0.10093,-1.55671 -1.52206,-4.3958 -2.79753,-4.89371 -2.68832,-5.08954 0.61519,-1.10315 3.94242,4.75738 4.23153,4.94572 5.6188,3.66044 0.7703,-0.71366 1.43954,-2.56606 1.2277,-3.39813 -0.0648,-0.25458 -1.06874,-1.63587 -2.23094,-3.06954 -3.07286,-3.7906 -2.92467,-3.86358 0.99577,-0.49041 3.37887,2.90721 3.72843,3.12114 4.54641,2.78232 0.73046,-0.30257 1.57102,-1.49452 1.57102,-2.22777 0,-0.29918 -0.20307,-0.76618 -0.45128,-1.03777 -0.24821,-0.27159 -2.99099,-2.66077 -6.09508,-5.30931 -3.10409,-2.64853 -5.70431,-4.91343 -5.77827,-5.03311 -0.074,-0.11968 -0.0399,-0.21759 0.0757,-0.21759 0.11564,0 3.24647,1.77224 6.95741,3.93832 3.71094,2.16608 7.00133,4.03427 7.31199,4.15152 0.42237,0.15943 0.68763,0.14748 1.05172,-0.0474 0.53822,-0.28804 1.34034,-1.57243 1.34034,-2.1462 0,-0.50763 -0.60857,-2.11351 -0.95675,-2.52465 -0.15789,-0.18643 -2.89607,-1.8884 -6.08486,-3.78215 -3.18878,-1.89375 -5.84761,-3.5238 -5.90851,-3.62233 -0.25269,-0.40887 0.81262,-0.064 6.87933,2.22715 3.50441,1.32345 6.61986,2.40654 6.92322,2.40686 0.70361,8e-4 1.26655,-0.56404 1.56924,-1.57434 0.29221,-0.97529 0.1242,-1.73495 -0.46928,-2.12189 -0.24645,-0.16069 -3.30613,-1.37304 -6.79929,-2.69412 -6.60849,-2.49927 -7.44125,-2.85105 -7.05446,-2.97998 0.48201,-0.16067 11.74129,2.00045 14.99006,2.87721 3.74991,1.01201 4.04964,1.00352 4.63644,-0.13123 0.4422,-0.85512 0.43512,-2.11712 -0.0147,-2.61414 -0.19795,-0.21873 -0.86301,-0.53709 -1.4779,-0.70745 -0.61489,-0.17036 -1.52414,-0.4748 -2.02056,-0.67653 -0.49641,-0.20174 -1.61802,-0.51284 -2.49245,-0.69135 -2.23978,-0.45723 -11.20746,-2.92208 -11.43725,-3.14363 -0.31886,-0.30743 1.30003,-0.21831 9.5333,0.52483 4.31753,0.3897 8.00877,0.65817 8.20277,0.5966 0.78369,-0.24874 1.09123,-0.87904 1.11742,-2.29017 0.0169,-0.91039 0.1357,-1.51883 0.35874,-1.83727 0.19368,-0.27651 0.33348,-0.86317 0.33348,-1.39938 0,-1.03284 -0.47998,-1.66085 -1.45414,-1.90264 -0.30337,-0.0753 -0.55158,-0.1653 -0.55158,-0.20001 0,-0.0347 0.27399,-0.33711 0.60887,-0.67198 0.58777,-0.58777 0.60853,-0.66998 0.599,-2.37215 -0.005,-0.9698 -0.008,-2.1243 -0.006,-2.56556 0.005,-1.08895 -0.5377,-1.78776 -1.45008,-1.86606 -0.39036,-0.0335 -4.41982,0.48548 -8.95436,1.15329 -4.53453,0.66781 -8.49018,1.2142 -8.79032,1.2142 -1.34186,0 0.49512,-0.75832 8.27729,-3.41692 8.63444,-2.94976 9.11384,-3.17659 9.11384,-4.31222 0,-0.78917 -0.58658,-2.023 -1.08981,-2.29231 -0.27505,-0.14721 -0.71645,-0.19529 -1.07329,-0.11691 -0.5547,0.12183 -0.64585,0.0624 -1.07463,-0.7005 -0.57355,-1.02048 -1.34557,-1.47369 -2.05252,-1.20491 -0.27449,0.10436 -3.38159,1.81894 -6.90468,3.81018 -3.52308,1.99124 -6.51522,3.62044 -6.6492,3.62044 -0.13399,0 -0.21352,-0.083 -0.17675,-0.18436 0.0368,-0.1014 2.77457,-2.40762 6.08401,-5.12494 3.30943,-2.71733 6.1751,-5.12644 6.36815,-5.35359 0.4935,-0.58067 0.43667,-1.3528 -0.16473,-2.23783 -0.55747,-0.82039 -1.31349,-1.22235 -1.93064,-1.02648 -0.21321,0.0677 -3.2926,2.50537 -6.84309,5.4171 -7.8769,6.45981 -8.13951,6.60412 -4.65988,2.56066 1.15302,-1.33984 4.13151,-4.51894 6.61887,-7.06466 4.04559,-4.14052 4.52246,-4.6983 4.52246,-5.28977 0,-1.60758 -1.82573,-2.89394 -2.92009,-2.05742 -0.21414,0.16369 -0.72067,0.39089 -1.12563,0.5049 -0.61409,0.17288 -1.29583,0.86421 -4.10737,4.16511 -3.45831,4.06025 -7.20568,8.06955 -7.54237,8.06955 -0.29289,0 0.2623,-0.85169 5.36693,-8.23321 2.61691,-3.78417 4.84667,-7.13462 4.95503,-7.44546 0.25797,-0.74 -0.26477,-1.65711 -1.27716,-2.2407 -1.35436,-0.78071 -1.3363,-0.7999 -7.12263,7.57306 -2.88695,4.17749 -5.44285,7.78565 -5.67978,8.01815 l -0.43078,0.42273 0.38466,-1.00286 c 0.21156,-0.55157 2.06797,-4.62783 4.12535,-9.05836 2.05738,-4.43053 3.74068,-8.29794 3.74068,-8.59426 0,-1.18584 -2.07465,-2.29834 -3.06994,-1.64621 -0.30659,0.20089 -1.35615,2.22356 -3.13717,6.04585 -3.56555,7.65211 -3.70993,7.73319 -1.71547,0.96341 1.34016,-4.54889 1.45957,-5.19618 1.087,-5.89233 -0.24554,-0.45881 -1.3345,-0.9727 -2.06119,-0.9727 -1.09016,0 -1.24869,0.35844 -3.43923,7.77559 -1.14899,3.89048 -2.1802,7.23 -2.29159,7.42116 -0.37387,0.64164 -0.23589,-1.05696 0.67119,-8.26292 0.52668,-4.18394 0.81791,-7.17317 0.72302,-7.42116 -0.54839,-1.43321 -3.05122,-1.6781 -3.59843,-0.35208 -0.12224,0.29621 -0.66489,4.04365 -1.20589,8.32766 -0.54101,4.28401 -1.03619,7.84165 -1.10042,7.90587 -0.0642,0.0642 -0.16075,0.0728 -0.21451,0.019 -0.0538,-0.0538 -0.23551,-3.52115 -0.40387,-7.70529 -0.16837,-4.18415 -0.35371,-7.97887 -0.41188,-8.43272 -0.14925,-1.16447 -0.80812,-1.7257 -2.15728,-1.83758 -0.9242,-0.0766 -1.14741,-0.0204 -1.65626,0.41713 l -0.58811,0.50572 -0.0567,8.14067 c -0.0353,5.07189 -0.12982,8.14068 -0.25071,8.14068 -0.10673,0 -0.19405,-0.0439 -0.19405,-0.0976 0,-0.0537 -0.54154,-3.43953 -1.20343,-7.52414 -0.66189,-4.08461 -1.20343,-7.51971 -1.20343,-7.63355 0,-0.11384 -0.22154,-0.42852 -0.49231,-0.6993 -0.86635,-0.86635 -2.90022,-0.48947 -3.32023,0.61524 -0.13429,0.35322 0.17047,2.66662 1.11176,8.43911 0.71323,4.37388 1.29678,8.13995 1.29678,8.36905 0,1.00325 -0.5661,-0.42163 -3.01321,-7.58437 -1.42356,-4.16681 -2.73786,-7.74128 -2.92066,-7.94327 -1.00295,-1.10824 -3.25822,-0.79269 -3.81229,0.5334 -0.15315,0.36652 -0.23851,0.78427 -0.1897,0.92833 0.0488,0.14406 1.26638,3.62305 2.70572,7.73109 1.43934,4.10804 2.61699,7.57973 2.61699,7.71485 0,0.56016 -0.7155,-0.62669 -4.19623,-6.96058 -2.00054,-3.64037 -3.86548,-6.82194 -4.14432,-7.07015 -0.63093,-0.56162 -1.14795,-0.56988 -2.0179,-0.0322 -1.681,1.03892 -1.59821,1.33817 2.35339,8.50648 3.48938,6.32983 4.59534,8.41001 4.59534,8.64332 0,0.34145 -1.02494,-0.8642 -5.47225,-6.43714 -2.64099,-3.30943 -4.98222,-6.1751 -5.20272,-6.36815 -0.68016,-0.59547 -1.51169,-0.44641 -2.38579,0.42769 -0.55873,0.55873 -0.77869,0.9488 -0.77869,1.38089 0,0.67128 0.28527,1.06966 6.28107,8.77158 2.06106,2.64755 3.74742,4.88459 3.74745,4.97121 1.2e-4,0.29119 -0.6913,-0.23103 -2.52085,-1.90398 -8.73742,-7.98954 -8.72775,-7.98124 -9.29665,-7.98124 -1.13703,0 -2.36261,1.51269 -2.12012,2.61677 0.0951,0.43317 1.52009,1.85721 5.57859,5.57504 5.45063,4.9931 6.3387,5.84821 6.07365,5.84821 -0.28422,0 -1.33934,-0.63579 -7.12445,-4.29305 -4.19319,-2.65087 -6.07009,-3.72982 -6.48825,-3.72982 -0.40233,0 -0.77647,0.20138 -1.1833,0.63688 l -0.59494,0.63689 -1.36481,-0.73717 c -0.75065,-0.40544 -1.5942,-0.73717 -1.87457,-0.73717 -1.1006,0 -2.12363,2.12836 -1.52768,3.17826 0.18415,0.32441 3.08265,2.11955 8.45122,5.23414 7.98667,4.6335 8.93994,5.22648 8.40201,5.22648 -0.14025,0 -4.0168,-1.36606 -8.61456,-3.0357 -9.72332,-3.53094 -9.23752,-3.37446 -9.81427,-3.16111 -1.18028,0.43662 -1.69337,2.81271 -0.76506,3.54292 0.26835,0.21109 4.2848,1.76416 8.92544,3.45127 4.64063,1.6871 8.43751,3.14557 8.43751,3.24104 0,0.38441 -2.27184,0.12076 -9.967,-1.1567 -7.66189,-1.27192 -8.08661,-1.32187 -8.56657,-1.00739 -0.77333,0.50671 -1.04756,1.78063 -0.65432,3.03968 0.17227,0.55157 0.36032,1.36388 0.41787,1.80514 0.16264,1.24688 0.62791,1.50055 2.79665,1.52473 9.02176,0.10059 14.97465,0.30438 15.19019,0.52003 0.315,0.31516 0.71813,0.23042 -8.84232,1.85867 -7.84169,1.33553 -8.13757,1.40215 -8.59643,1.93561 -0.66649,0.77483 -0.53347,2.34523 0.25619,3.02446 0.2961,0.2547 0.67426,0.46309 0.84033,0.46309 0.24397,0 0.27612,0.17237 0.16739,0.89741 -0.0955,0.63678 -0.0316,1.18381 0.22004,1.88356 0.34974,0.97258 0.34866,0.99373 -0.0783,1.5365 -0.51025,0.64867 -0.54483,1.24412 -0.12992,2.23714 0.35378,0.84671 0.82079,1.25238 1.45202,1.26131 0.38162,0.005 0.45128,0.11574 0.45128,0.71482 0,1.44911 0.77912,2.57449 1.76195,2.54503 0.29955,-0.009 3.25235,-1.0256 6.56178,-2.25916 6.83352,-2.54712 7.1203,-2.6431 7.1203,-2.38313 0,0.19266 -3.56685,2.89537 -5.7163,4.33143 -0.66189,0.4422 -2.30713,1.45256 -3.65611,2.24524 -1.34898,0.79268 -2.54611,1.61581 -2.66031,1.82918 -0.40296,0.75294 -0.46601,2.10681 -0.12851,2.75947 0.39955,0.77264 1.25129,1.45653 1.80869,1.45225 0.23333,-0.002 1.95861,-1.1266 3.83395,-2.49958 3.57287,-2.61576 8.36785,-5.60561 8.77329,-5.47046 0.13056,0.0435 -1.83561,2.23891 -4.36927,4.87864 -5.89042,6.13703 -5.9083,6.15821 -5.9083,6.99851 0,0.99707 1.09377,2.1133 2.07078,2.1133 0.68266,0 1.04208,-0.33554 6.9826,-6.51858 3.44459,-3.58522 6.33676,-6.51858 6.42705,-6.51858 0.0903,0 0.16246,0.0677 0.16038,0.15043 -0.002,0.0827 -2.3262,3.35456 -5.16472,7.27072 l -5.16094,7.1203 0.0368,1.20204 c 0.0345,1.12558 0.0882,1.24997 0.84466,1.95557 0.86951,0.81107 1.47642,0.93603 2.17379,0.44758 0.24025,-0.16828 2.48123,-3.34985 4.97997,-7.07015 4.38473,-6.52834 5.30277,-7.7992 5.30277,-7.3408 0,0.118 -1.66976,3.61824 -3.71058,7.77831 -2.04943,4.17762 -3.71058,7.80791 -3.71058,8.10912 0,0.75605 0.43295,1.29988 1.37191,1.7233 1.56188,0.7043 1.62463,0.63312 4.46022,-5.06029 3.60104,-7.23029 3.85697,-7.31615 1.38845,-0.46579 -0.88251,2.44906 -1.60457,4.7044 -1.60457,5.01187 0,0.33698 0.19918,0.74616 0.50143,1.03011 0.29378,0.27599 0.50143,0.69444 0.50143,1.01047 0,1.08828 1.61109,2.04074 2.90332,1.71641 0.68713,-0.17245 0.86212,-0.59048 2.39938,-5.73179 0.74154,-2.48006 1.42854,-4.64623 1.52668,-4.81372 0.35693,-0.60917 0.19051,0.9189 -0.51137,4.69554 -0.3861,2.07751 -0.702,4.02051 -0.702,4.31779 0,0.58658 0.62723,1.28313 1.35386,1.50348 0.2482,0.0753 0.45128,0.20472 0.45128,0.28768 0,0.0829 -1.04851,2.17535 -2.33003,4.64977 -4.45765,8.60709 -6.90079,14.24339 -8.20987,18.94012 -0.94185,3.37921 -0.88011,3.20572 -1.06475,2.99197 -0.0874,-0.10118 -0.45372,-1.10312 -0.81403,-2.22654 -0.36031,-1.12341 -0.77237,-2.20293 -0.91568,-2.39892 -0.6854,-0.93734 -2.29388,1.0943 -3.67858,4.64634 -1.56355,4.01083 -1.88344,4.70916 -2.15717,4.70916 -0.54888,0 -0.7917,-1.09857 -1.39468,-6.30976 -0.85543,-7.39301 -2.97199,-13.79107 -6.75399,-20.41642 -0.67695,-1.18588 -1.33419,-2.15615 -1.46053,-2.15615 -0.27519,0 -0.91612,1.10414 -1.4953,2.57594 -0.23194,0.58941 -0.64755,2.47096 -0.92357,4.18122 -0.27602,1.71026 -0.64562,3.39419 -0.82132,3.74207 -0.61063,1.20898 -1.75804,2.13679 -2.64253,2.13679 -0.39024,0 -2.17048,-1.61933 -8.40921,-7.6491 -3.86181,-3.73249 -5.15396,-4.72833 -5.62641,-4.33623 -0.51404,0.42662 -0.15368,3.9028 0.97215,9.3779 1.03013,5.00968 1.4259,8.62022 1.01134,9.2263 -0.18126,0.265 -0.32014,0.25671 -1.16542,-0.0696 -2.006,-0.77433 -4.15061,-1.33443 -5.1095,-1.33443 -1.28929,0 -2.16814,0.76867 -2.16814,1.89633 0,3.49229 5.86071,11.70907 10.68293,14.97758 4.24751,2.87897 5.95286,5.86267 3.94446,6.90125 -0.73598,0.3806 -1.86988,0.37149 -3.63137,-0.0292 -1.65994,-0.37754 -1.76185,-0.3102 -1.76665,1.1675 -0.004,1.17245 0.57707,2.76063 1.57366,4.30255 1.65728,2.56414 5.85484,6.4073 8.84596,8.09909 3.2802,1.85529 4.43131,2.5119 5.52276,3.15026 0.66189,0.38712 2.06088,1.08736 3.10886,1.55609 1.04799,0.46873 1.90543,0.93086 1.90543,1.02697 0,0.34854 -3.48051,0.28335 -6.6534,-0.12461 -3.79516,-0.48797 -4.83893,-0.38938 -5.24193,0.49512 -0.16981,0.37268 -0.15441,0.71748 0.0647,1.45029 0.22504,0.75245 0.74419,1.45581 2.38895,3.23664 1.15579,1.2514 2.76015,2.85961 3.56525,3.57381 1.72241,1.52793 5.06884,3.819 6.99498,4.78899 1.22619,0.6175 1.49539,0.87134 2.67956,2.52669 1.57687,2.20429 1.69725,2.84261 0.62087,3.29235 -1.73964,0.72687 -5.47254,-0.17349 -6.84093,-1.65 -0.25619,-0.27644 -0.55005,-0.45056 -0.653,-0.38693 -0.31202,0.19284 -0.46376,2.55733 -0.23902,3.72455 0.28272,1.46834 0.78553,2.44361 2.11735,4.10685 1.24187,1.55091 2.43296,2.29988 6.75229,4.24593 5.65017,2.54565 9.58512,3.26988 14.01439,2.57937 z m 9.50622,-107.80998 c 0.50195,-2.6888 1.00211,-4.9782 1.11147,-5.08756 0.1314,-0.1314 0.19883,0.85743 0.19883,2.91555 l 0,3.11439 -0.8095,1.8664 c -0.44523,1.02652 -0.91513,2.05748 -1.04423,2.29102 -0.4812,0.8705 -0.36163,-0.25161 0.54343,-5.0998 z"
           style="fill:#e2d75d"
           inkscape:connector-curvature="0" />
        <path
           id="path2707"
           d="m 321.98583,799.39592 c 2.1214,-0.28049 4.35662,-0.8182 6.61887,-1.59225 1.37692,-0.47113 1.6826,-0.50377 3.61029,-0.38557 7.2556,0.44489 14.61725,-2.58854 18.79164,-7.74324 1.71754,-2.12089 3.33678,-5.22051 2.71968,-5.20615 -0.0827,0.002 -0.91924,0.12957 -1.85889,0.28366 -2.05364,0.33676 -3.35296,0.15455 -4.35658,-0.61095 -0.75962,-0.57938 -1.45449,-1.59372 -1.45565,-2.12488 -4e-4,-0.21889 0.95924,-0.97036 2.65683,-2.08033 6.77697,-4.43111 10.95272,-8.71542 13.28516,-13.63057 0.81166,-1.71042 1.55716,-3.86046 1.41713,-4.08704 -0.0555,-0.0899 -1.52472,0.17782 -3.26485,0.59487 -5.522,1.32342 -7.39056,1.46199 -8.16565,0.60553 -0.20207,-0.22329 -0.3166,-0.61382 -0.27825,-0.9488 0.0552,-0.48224 0.27991,-0.67667 1.46923,-1.27131 7.82221,-3.91094 13.98299,-9.18977 17.94837,-15.37896 1.30197,-2.03212 1.20002,-2.17366 -1.55931,-2.16484 -1.57129,0.005 -2.51732,0.15027 -4.89251,0.75117 -4.0182,1.01657 -4.39327,0.81192 -2.40829,-1.31403 0.64115,-0.68668 2.3196,-2.37673 3.7299,-3.75566 4.22656,-4.13257 7.00636,-7.85184 9.41873,-12.60189 1.23101,-2.42392 2.93481,-6.29984 2.93481,-6.67631 0,-0.0975 -0.30147,-0.17725 -0.66992,-0.17725 -1.3442,0 -3.77186,0.80339 -6.13055,2.02881 -2.83067,1.47062 -4.02759,1.69746 -5.36268,1.01636 -1.35984,-0.69374 -1.35187,-0.6618 -0.99624,-3.99108 0.17421,-1.63088 0.59086,-5.08629 0.92589,-7.67868 0.61385,-4.74989 0.81982,-7.66872 0.55954,-7.92962 -0.53879,-0.54006 -2.97479,1.55359 -6.53491,5.6165 -4.34214,4.95537 -6.55819,6.96119 -7.23123,6.54522 -0.13375,-0.0827 -0.47058,-1.00101 -0.7485,-2.04077 -1.31724,-4.92802 -2.87598,-6.34279 -4.78397,-4.34212 -1.52175,1.59567 -2.9605,5.09556 -4.141,10.07338 -0.55046,2.32112 -0.63556,3.10297 -0.77493,7.12029 -0.13419,3.8677 -0.21682,4.66741 -0.57802,5.59392 -1.26061,3.23351 -3.2974,2.5482 -4.8523,-1.63263 -0.23591,-0.6343 -0.52461,-1.15328 -0.64155,-1.15328 -0.48107,0 -1.60881,0.89586 -2.18865,1.73863 -1.18422,1.72121 -2.13794,4.92762 -2.48006,8.33798 -0.0746,0.74347 -0.21533,1.40103 -0.31278,1.46125 -0.0974,0.0602 -0.32321,-0.41268 -0.50172,-1.05089 -1.2774,-4.56708 -1.49552,-5.02544 -2.27386,-4.77841 -0.66581,0.21132 -2.64209,2.49614 -4.43622,5.12882 -1.82622,2.67976 -4.00426,5.11167 -4.44441,4.96243 -0.35327,-0.11978 -0.34688,-5.76484 0.01,-8.7798 0.83821,-7.08257 2.73097,-12.25385 9.10305,-24.8709 3.70872,-7.34345 4.30527,-8.38977 4.49413,-7.8825 0.0493,0.13236 0.27065,0.47082 0.49194,0.75214 0.70045,0.89047 2.68594,0.58443 3.46992,-0.53484 0.26435,-0.37743 0.31303,-1.26534 0.31303,-5.70992 0,-4.83274 0.034,-5.3538 0.41555,-6.37367 0.23749,-0.63473 0.5383,-1.11067 0.702,-1.11067 0.15755,0 0.28645,0.0534 0.28645,0.11877 0,0.58644 2.04909,12.42409 2.19913,12.70445 0.27109,0.50654 1.07089,0.66817 2.02931,0.41009 1.3886,-0.37391 1.39091,-0.43333 0.28465,-7.32524 -1.33939,-8.34424 -1.09564,-8.44315 1.70826,-0.6932 1.01773,2.81302 1.93236,5.27159 2.03249,5.4635 0.24644,0.4723 1.22462,0.95479 1.9357,0.95479 0.80168,0 1.9311,-0.79548 2.00258,-1.41048 0.0316,-0.27222 -0.75811,-2.9137 -1.755,-5.86995 -0.9969,-2.95625 -1.81254,-5.46089 -1.81254,-5.56587 0,-0.10497 0.12278,-0.19086 0.27284,-0.19086 0.15006,0 1.40519,2.00823 2.78918,4.46272 2.93477,5.20479 3.18963,5.56587 3.92862,5.56587 0.98265,0 2.0358,-0.92851 2.03406,-1.79334 -6e-4,-0.28228 -0.89713,-2.11555 -1.99237,-4.07393 -1.09524,-1.95838 -2.04856,-3.74096 -2.11849,-3.96129 -0.34135,-1.0755 0.7008,-0.0909 3.61412,3.41467 1.85782,2.23546 3.35585,3.86172 3.6178,3.92747 0.47907,0.12024 1.45985,-0.29958 1.87857,-0.8041 0.26115,-0.31467 0.57559,-1.33285 0.75446,-2.44298 0.089,-0.55216 -0.17265,-0.95847 -2.42553,-3.76714 -1.38888,-1.73153 -2.52524,-3.2356 -2.52524,-3.34238 0,-0.50408 0.75491,0.018 3.90775,2.70241 1.87109,1.5931 3.55482,2.93652 3.74161,2.98537 0.75329,0.19699 2.17865,-1.17532 2.17865,-2.09756 0,-0.58102 -0.72853,-1.27128 -7.01797,-6.64928 -5.46692,-4.67467 -6.86105,-6.06981 -5.57795,-5.58198 0.259,0.0985 3.64338,2.03585 7.52084,4.30527 3.87745,2.26943 7.28233,4.18456 7.56638,4.25586 0.41249,0.10352 0.63474,0.003 1.10385,-0.49916 0.79577,-0.85188 0.89919,-1.50488 0.44729,-2.82422 l -0.37786,-1.10315 -6.4853,-3.91114 c -3.56691,-2.15114 -6.52001,-4.02397 -6.56244,-4.16187 -0.0424,-0.13789 0.075,-0.25071 0.26099,-0.25071 0.18597,0 3.46448,1.17724 7.28558,2.61609 3.82109,1.43886 7.165,2.58964 7.4309,2.55729 0.98463,-0.11977 1.80462,-2.20171 1.18997,-3.02132 -0.1504,-0.20056 -3.40832,-1.54054 -7.48657,-3.07923 -7.05372,-2.66131 -8.1236,-3.14321 -7.50509,-3.38056 0.49938,-0.19163 12.52283,2.06849 15.99192,3.0061 3.09031,0.83523 3.35446,0.87614 3.7946,0.58776 0.554,-0.363 0.85631,-1.05797 0.85631,-1.96857 0,-0.98 -0.35715,-1.29241 -2.00572,-1.75447 -0.82736,-0.23189 -1.60556,-0.50327 -1.72935,-0.60306 -0.12378,-0.0998 -1.10127,-0.36721 -2.17221,-0.59426 -2.83454,-0.60098 -12.53245,-3.2984 -12.79211,-3.55806 -0.16153,-0.16153 -0.13134,-0.256 0.11157,-0.34922 0.18315,-0.0703 4.40225,0.23775 9.37578,0.68451 5.86594,0.52693 9.20652,0.75004 9.50889,0.63508 0.5989,-0.2277 0.99221,-1.39123 0.8246,-2.43942 -0.11907,-0.74456 0.2424,-1.7474 0.52718,-1.46262 0.19129,0.19129 0.38618,-1.32699 0.24996,-1.94722 -0.0724,-0.32958 -0.1818,-0.54906 -0.24313,-0.48773 -0.0613,0.0613 -0.21694,-0.0327 -0.34581,-0.20892 -0.14541,-0.19886 -0.68556,-0.36888 -1.42383,-0.44816 -0.65425,-0.0703 -1.17583,-0.21801 -1.15907,-0.32832 0.0168,-0.11031 0.42291,-0.31352 0.90257,-0.45157 0.47966,-0.13805 0.97173,-0.38546 1.0935,-0.5498 0.13361,-0.18034 0.22549,-1.34077 0.23175,-2.92697 0.0117,-2.97095 -0.16344,-3.39348 -1.40586,-3.39148 -0.35852,6e-4 -4.61873,0.58718 -9.46714,1.30356 -5.31032,0.78463 -8.88802,1.22977 -8.99822,1.11957 -0.27542,-0.27542 0.0284,-0.62487 0.83954,-0.96572 0.40021,-0.16817 4.20256,-1.49739 8.44967,-2.95383 4.2471,-1.45643 7.92402,-2.75635 8.17093,-2.88871 0.58784,-0.31512 0.76342,-1.07941 0.47166,-2.0532 -0.30281,-1.01069 -0.95737,-1.45273 -1.89164,-1.27746 -0.6499,0.12192 -0.72923,0.0809 -1.04363,-0.53937 -0.51471,-1.01551 -0.90173,-1.37333 -1.48539,-1.37333 -0.31382,0 -2.93683,1.35613 -6.43736,3.32821 -7.19537,4.05361 -7.77354,4.35164 -8.15691,4.20452 -0.25669,-0.0985 -0.26161,-0.16637 -0.0321,-0.44294 0.14908,-0.17964 3.00297,-2.57451 6.34197,-5.32193 3.33899,-2.74742 6.21364,-5.21317 6.38811,-5.47944 0.44798,-0.68371 0.20131,-1.55683 -0.65134,-2.30547 -0.5172,-0.45411 -0.81988,-0.58307 -1.13919,-0.48537 -0.49947,0.15283 -0.35261,0.0367 -8.05632,6.37215 -3.19926,2.63105 -5.93356,4.83094 -6.07621,4.88864 -0.44606,0.18042 -0.51117,-0.11103 -0.14847,-0.66459 0.71294,-1.08808 4.26934,-5.09098 7.11203,-8.00493 6.26672,-6.42382 6.43325,-6.61318 6.43325,-7.3151 0,-0.46905 -0.18801,-0.83561 -0.68194,-1.32954 -0.79899,-0.79899 -1.11239,-0.83265 -2.32663,-0.24986 -0.49642,0.23826 -1.03796,0.49348 -1.20343,0.56717 -0.16547,0.0737 -1.77244,1.8421 -3.57103,3.9298 -5.37967,6.24438 -8.24315,9.19737 -8.58607,8.85445 -0.18471,-0.1847 0.20113,-0.77621 5.7044,-8.74504 5.66071,-8.19681 5.75753,-8.38274 4.86174,-9.33626 -0.73422,-0.78154 -1.52166,-1.02645 -2.09416,-0.65134 -0.26308,0.17238 -2.89278,3.81597 -5.84376,8.09686 -5.5594,8.0648 -6.06138,8.74326 -6.34114,8.57036 -0.24786,-0.15319 0.19633,-1.18423 4.50986,-10.46831 2.16645,-4.66287 3.93901,-8.68615 3.93901,-8.94062 0,-0.70192 -1.28555,-1.73602 -2.15814,-1.73602 -0.20866,0 -0.56324,0.20307 -0.78798,0.45128 -0.22473,0.24821 -1.60425,3.04027 -3.06559,6.20459 -2.73461,5.92136 -3.12362,6.66176 -3.40783,6.48611 -0.22712,-0.14037 -0.008,-1.03142 1.51208,-6.14267 0.73712,-2.47894 1.28519,-4.68584 1.25035,-5.03474 -0.0705,-0.70561 -0.73743,-1.29418 -1.67412,-1.47737 -1.23354,-0.24125 -1.33899,-0.013 -3.71495,8.0411 -2.32566,7.88359 -2.47201,8.31972 -2.79183,8.31972 -0.33066,0 -0.25339,-0.92361 0.7047,-8.42401 0.50024,-3.91617 0.91818,-7.5206 0.92874,-8.00985 0.0252,-1.16806 -0.49056,-1.61759 -1.85591,-1.61759 -0.79267,0 -1.0304,0.0848 -1.26553,0.45128 -0.18447,0.28756 -0.66109,3.43479 -1.3137,8.67473 -0.5633,4.52289 -1.07298,8.38139 -1.13263,8.57444 -0.11259,0.36445 -0.38939,0.46343 -0.55348,0.19792 -0.052,-0.0842 -0.24068,-3.89756 -0.41922,-8.47415 -0.17853,-4.5766 -0.41405,-8.65409 -0.52337,-9.06111 -0.12106,-0.45076 -0.35497,-0.78961 -0.59839,-0.86687 -0.2198,-0.0698 -0.35398,-0.2007 -0.29819,-0.29098 0.14811,-0.23965 -1.23258,-0.45517 -1.93192,-0.30157 -0.32958,0.0724 -0.54746,0.1834 -0.48418,0.24669 0.0633,0.0633 -0.0431,0.28971 -0.23637,0.50318 -0.32137,0.35491 -0.35642,1.12425 -0.4097,8.99186 -0.05,7.38142 -0.0999,8.60374 -0.351,8.60374 -0.161,0 -0.29274,-0.039 -0.29274,-0.0867 0,-0.5734 -2.66462,-16.20732 -2.83157,-16.61343 -0.25727,-0.62586 -0.88913,-0.85789 -1.82594,-0.67052 -0.93618,0.18723 -1.35964,0.66616 -1.35964,1.53772 0,0.41379 0.58667,4.33104 1.30372,8.70499 1.34777,8.22138 1.43622,8.9331 1.1102,8.9331 -0.31485,0 -0.45397,-0.36662 -3.12067,-8.22344 -1.40407,-4.13679 -2.67364,-7.81803 -2.82126,-8.18052 -0.7049,-1.73085 -3.89314,-1.37349 -3.89314,0.43638 0,0.33973 1.2636,4.20469 2.808,8.58881 1.5444,4.38411 2.808,8.06348 2.808,8.17637 0,0.31373 -0.30439,0.24494 -0.64482,-0.14574 -0.16822,-0.19305 -2.05505,-3.54219 -4.19295,-7.44253 -2.161,-3.94247 -4.08684,-7.22545 -4.33692,-7.39312 -0.88138,-0.59094 -2.65904,0.45936 -2.65904,1.57105 0,0.38879 1.28818,2.9251 3.78556,7.45347 4.7481,8.60945 4.84593,8.7967 4.71042,9.01595 -0.19331,0.31278 -0.81058,-0.39241 -5.7459,-6.5644 -2.64633,-3.30943 -5.08746,-6.31049 -5.42472,-6.66901 -0.82777,-0.87996 -1.55888,-0.87102 -2.45999,0.0301 -1.23977,1.23977 -1.40109,0.94776 5.18736,9.3899 4.36622,5.59467 4.88542,6.31746 4.68322,6.51967 -0.20229,0.20229 -0.98982,-0.46434 -6.53956,-5.53559 -6.0238,-5.50444 -6.13848,-5.57638 -7.15364,-4.4872 -0.7416,0.79566 -0.92408,1.38856 -0.62162,2.01962 0.1393,0.29065 2.64487,2.7209 5.56793,5.40056 6.16599,5.65255 6.74219,6.21188 6.57332,6.38075 -0.24746,0.24746 -0.99532,-0.17969 -7.39915,-4.22613 -4.21368,-2.66254 -6.68303,-4.10524 -7.02927,-4.10681 -0.34874,-0.002 -0.70924,0.20615 -1.04005,0.5993 -0.27847,0.33094 -0.60548,0.60172 -0.72669,0.60172 -0.12121,0 -0.82742,-0.33113 -1.56937,-0.73584 -1.66764,-0.90964 -2.24885,-0.84229 -2.84686,0.32991 -0.52387,1.02687 -0.51025,1.64197 0.0477,2.15473 0.24821,0.2281 4.15184,2.55228 8.67473,5.16484 4.52289,2.61256 8.40145,4.92374 8.61901,5.13596 0.39289,0.38323 0.39203,0.38584 -0.12787,0.38584 -0.28789,0 -4.4927,-1.44411 -9.344,-3.20915 -4.85131,-1.76503 -9.10147,-3.20914 -9.44481,-3.20914 -0.44549,0 -0.71887,0.14441 -0.95469,0.50432 -0.44697,0.68216 -0.58487,2.10987 -0.24612,2.54812 0.14931,0.19316 4.1294,1.74865 9.05271,3.53796 4.83244,1.75628 8.83536,3.24234 8.89539,3.30236 0.06,0.06 0.0496,0.2054 -0.0231,0.32305 -0.27092,0.43836 -2.62653,0.18682 -10.51661,-1.12301 l -8.1015,-1.34493 -0.44708,0.51976 c -0.61335,0.71306 -0.79055,1.79978 -0.42622,2.61387 0.16033,0.35825 0.33806,1.04738 0.39494,1.5314 0.18699,1.59101 -0.29118,1.50254 9.3363,1.7274 6.86401,0.16032 8.65566,0.25723 8.92745,0.4829 0.19458,0.16156 0.26489,0.35748 0.16436,0.45802 -0.0966,0.0966 -4.09433,0.84777 -8.8838,1.66922 -7.61232,1.3056 -8.75228,1.54732 -9.05911,1.92092 -0.75762,0.9225 -0.21217,2.85584 0.8884,3.14895 0.50429,0.13431 0.64867,0.27053 0.59454,0.56098 -0.18896,1.01385 -0.076,2.28742 0.24656,2.77969 0.33751,0.51511 0.33294,0.54676 -0.16467,1.13813 -0.57928,0.68843 -0.63941,1.28791 -0.22795,2.27266 0.30188,0.72251 0.83084,1.11284 1.50808,1.11284 0.34052,0 0.41433,0.1262 0.41433,0.70844 0,0.7855 0.48346,2.10076 0.86021,2.34018 0.52944,0.33646 1.43347,0.0728 7.63958,-2.22838 7.67067,-2.84419 7.34537,-2.74005 7.34537,-2.35147 0,0.56852 -4.74002,4.034 -8.98168,6.56661 -1.51347,0.90367 -2.94566,1.81725 -3.18264,2.03019 -1.40127,1.2591 -0.13532,4.65793 1.50412,4.03829 0.29223,-0.11045 1.93032,-1.24067 3.64019,-2.51159 3.72995,-2.77241 8.9417,-5.94852 9.25197,-5.63826 0.25055,0.25056 -0.55434,1.15984 -6.44448,7.28038 -4.71816,4.90273 -4.75857,4.97373 -3.589,6.3058 0.47078,0.53618 0.78005,0.70898 1.26894,0.70898 0.54492,0 0.88026,-0.24464 2.13537,-1.55788 5.95935,-6.23533 11.8855,-12.28157 12.03764,-12.28157 0.10003,0 0.18187,0.12748 0.18187,0.2833 0,0.15581 -2.40227,3.60815 -5.33838,7.67186 -2.93611,4.06372 -5.40734,7.56909 -5.49161,7.78972 -0.22135,0.57948 0.077,2.23969 0.4831,2.68845 0.54761,0.60509 1.46183,0.91324 1.99232,0.67153 0.26367,-0.12013 2.40859,-3.12432 5.13959,-7.19851 2.57788,-3.84579 4.9501,-7.33081 5.27159,-7.74449 0.60662,-0.78056 0.95197,-0.9526 0.95197,-0.47421 0,0.15286 -1.80515,3.90661 -4.01144,8.34166 -2.27285,4.56885 -4.01143,8.3016 -4.01143,8.61255 0,0.64323 0.64402,1.31681 1.56649,1.63838 1.14133,0.39787 1.39554,0.0509 4.30898,-5.88215 1.47652,-3.00681 2.87661,-5.69257 3.11132,-5.96836 l 0.42673,-0.50143 0.007,0.45313 c 0.004,0.24921 -0.85077,2.83162 -1.89875,5.73867 -1.04799,2.90705 -1.90544,5.47163 -1.90544,5.69907 0,0.22743 0.22565,0.68168 0.50143,1.00943 0.27579,0.32775 0.50143,0.74677 0.50143,0.93115 0,0.60041 0.41973,1.13938 1.11285,1.42898 0.9283,0.38787 1.56759,0.35614 1.97876,-0.0982 0.19018,-0.21015 1.05676,-2.76757 1.92573,-5.68317 1.62788,-5.46191 1.94661,-6.3702 2.23544,-6.3702 0.29242,0 0.19366,0.7768 -0.74892,5.8905 -0.51078,2.77109 -0.86394,5.20891 -0.79461,5.48514 0.0854,0.34008 0.37559,0.59574 0.91835,0.80894 0.43646,0.17145 0.79356,0.36705 0.79356,0.43467 0,0.0676 -0.91617,1.88164 -2.03592,4.03116 -4.60674,8.84318 -7.36188,15.1608 -8.70201,19.95393 -0.40096,1.43409 -0.76578,2.72598 -0.81071,2.87086 -0.1395,0.44985 -0.46514,0.059 -0.68601,-0.82347 -0.3231,-1.2909 -1.22383,-3.61715 -1.52581,-3.94062 -0.23159,-0.24806 -0.38203,-0.17035 -1.06978,0.55263 -0.90158,0.94776 -1.87563,2.85376 -2.89156,5.65821 -0.9679,2.67182 -1.35666,3.42917 -1.72396,3.35844 -0.44019,-0.0848 -0.71785,-1.08856 -1.09689,-3.96547 -0.76957,-5.84102 -1.00597,-7.25405 -1.6291,-9.73757 -0.36117,-1.4395 -0.98813,-3.51542 -1.39324,-4.61315 -1.41769,-3.84152 -4.87693,-10.52017 -5.44898,-10.52017 -0.33457,0 -1.4006,2.24217 -1.76416,3.71057 -0.16388,0.66189 -0.44024,2.19626 -0.61413,3.40972 -0.40691,2.83964 -1,4.13028 -2.2673,4.93398 -0.50452,0.31996 -1.00317,0.58174 -1.1081,0.58174 -0.34368,0 -1.98438,-1.44349 -5.2464,-4.61579 -6.88298,-6.69366 -8.41609,-7.99603 -8.87278,-7.53736 -0.43265,0.43452 -0.0147,4.14069 1.07192,9.5059 1.22355,6.04119 1.46117,8.56699 0.86255,9.16854 -0.2928,0.29422 -0.41236,0.27991 -1.43307,-0.17149 -2.457,-1.08661 -4.77555,-1.50453 -5.85186,-1.05482 -1.00845,0.42136 -1.25806,1.06286 -0.96226,2.47308 0.51337,2.44751 2.67738,6.02291 5.92054,9.78197 2.00475,2.32365 2.89556,3.13709 4.83627,4.41621 3.74627,2.46914 5.52387,5.37903 4.05684,6.64091 -0.45393,0.39046 -0.77698,0.47575 -1.80192,0.47575 -0.68685,0 -1.74234,-0.13046 -2.34553,-0.28992 -0.99262,-0.2624 -1.1205,-0.25876 -1.34742,0.0383 -0.63429,0.83045 0.0327,3.32826 1.46335,5.4803 1.86946,2.81206 6.1153,6.56485 9.56468,8.45396 0.86243,0.47233 2.50772,1.40904 3.6562,2.08158 1.14849,0.67255 2.99647,1.61796 4.10662,2.10093 1.11016,0.48297 2.01846,0.99323 2.01846,1.13391 0,0.35824 -3.91498,0.32969 -6.51858,-0.0475 -4.0604,-0.58829 -5.51572,-0.33674 -5.51572,0.95337 0,1.22678 0.8047,2.35419 3.89263,5.45368 3.20148,3.21348 5.35282,4.87492 8.59358,6.63665 1.69882,0.92351 1.96482,1.15427 3.21037,2.78514 1.68121,2.20131 1.81449,2.62222 1.04103,3.28752 -0.53929,0.46388 -0.67693,0.4865 -2.38709,0.39236 -2.01505,-0.11094 -3.76351,-0.73714 -4.78271,-1.71289 -0.79899,-0.76493 -0.9777,-0.37129 -0.89114,1.96294 0.0859,2.31504 0.40282,3.10209 2.11574,5.25353 l 1.22846,1.54294 3.26601,1.59919 c 4.11824,2.01648 5.5068,2.55432 8.38058,3.24612 2.83393,0.6822 4.73877,0.80907 7.22058,0.48093 z m 8.82796,-101.82841 c 0.008,-0.75218 2.21372,-11.87404 2.38926,-12.04959 0.11478,-0.11477 0.27266,-0.1447 0.35086,-0.0665 0.0782,0.0782 0.11812,1.73454 0.0887,3.68076 l -0.0534,3.5386 -0.87194,1.82159 c -0.47956,1.00187 -1.0098,2.16004 -1.1783,2.57372 -0.29407,0.72194 -0.73102,1.02408 -0.72518,0.50143 z"
           style="fill:#dacd2f"
           inkscape:connector-curvature="0" />
        <path
           id="path2705"
           d="m 321.98583,799.39592 c 2.1214,-0.28049 4.35662,-0.8182 6.61887,-1.59225 1.37692,-0.47113 1.6826,-0.50377 3.61029,-0.38557 7.2556,0.44489 14.61725,-2.58854 18.79164,-7.74324 1.71754,-2.12089 3.33678,-5.22051 2.71968,-5.20615 -0.0827,0.002 -0.91924,0.12957 -1.85889,0.28366 -2.05364,0.33676 -3.35296,0.15455 -4.35658,-0.61095 -0.75962,-0.57938 -1.45449,-1.59372 -1.45565,-2.12488 -4e-4,-0.21889 0.95924,-0.97036 2.65683,-2.08033 6.77697,-4.43111 10.95272,-8.71542 13.28516,-13.63057 0.81166,-1.71042 1.55716,-3.86046 1.41713,-4.08704 -0.0555,-0.0899 -1.52472,0.17782 -3.26485,0.59487 -5.522,1.32342 -7.39056,1.46199 -8.16565,0.60553 -0.20207,-0.22329 -0.3166,-0.61382 -0.27825,-0.9488 0.0552,-0.48224 0.27991,-0.67667 1.46923,-1.27131 7.82221,-3.91094 13.98299,-9.18977 17.94837,-15.37896 1.30197,-2.03212 1.20002,-2.17366 -1.55931,-2.16484 -1.57129,0.005 -2.51732,0.15027 -4.89251,0.75117 -4.0182,1.01657 -4.39327,0.81192 -2.40829,-1.31403 0.64115,-0.68668 2.3196,-2.37673 3.7299,-3.75566 4.22656,-4.13257 7.00636,-7.85184 9.41873,-12.60189 1.23101,-2.42392 2.93481,-6.29984 2.93481,-6.67631 0,-0.0975 -0.30147,-0.17725 -0.66992,-0.17725 -1.3442,0 -3.77186,0.80339 -6.13055,2.02881 -2.83067,1.47062 -4.02759,1.69746 -5.36268,1.01636 -1.35984,-0.69374 -1.35187,-0.6618 -0.99624,-3.99108 0.17421,-1.63088 0.59086,-5.08629 0.92589,-7.67868 0.61385,-4.74989 0.81982,-7.66872 0.55954,-7.92962 -0.53879,-0.54006 -2.97479,1.55359 -6.53491,5.6165 -4.34214,4.95537 -6.55819,6.96119 -7.23123,6.54522 -0.13375,-0.0827 -0.47058,-1.00101 -0.7485,-2.04077 -1.31724,-4.92802 -2.87598,-6.34279 -4.78397,-4.34212 -1.52175,1.59567 -2.9605,5.09556 -4.141,10.07338 -0.55046,2.32112 -0.63556,3.10297 -0.77493,7.12029 -0.13419,3.8677 -0.21682,4.66741 -0.57802,5.59392 -1.26061,3.23351 -3.2974,2.5482 -4.8523,-1.63263 -0.23591,-0.6343 -0.52461,-1.15328 -0.64155,-1.15328 -0.48107,0 -1.60881,0.89586 -2.18865,1.73863 -1.18422,1.72121 -2.13794,4.92762 -2.48006,8.33798 -0.0746,0.74347 -0.21533,1.40103 -0.31278,1.46125 -0.0974,0.0602 -0.32321,-0.41268 -0.50172,-1.05089 -1.2774,-4.56708 -1.49552,-5.02544 -2.27386,-4.77841 -0.66581,0.21132 -2.64209,2.49614 -4.43622,5.12882 -1.82622,2.67976 -4.00426,5.11167 -4.44441,4.96243 -0.35327,-0.11978 -0.34688,-5.76484 0.01,-8.7798 0.8905,-7.52436 2.98236,-13.02855 10.50238,-27.63433 l 2.92018,-5.67172 0.14602,-4.60758 c 0.0987,-3.11372 0.0792,-4.60758 -0.06,-4.60758 -0.1133,0 -0.59192,0.88001 -1.06361,1.95558 -1.05794,2.41238 -1.59157,3.33733 -1.59109,2.75786 1.8e-4,-0.22063 0.59904,-3.37964 1.3308,-7.02001 0.73176,-3.64038 1.37341,-6.96632 1.42589,-7.39099 0.15419,-1.24758 -0.17602,-5.93882 -0.37624,-5.34532 -0.43543,1.29069 -5.00714,24.63306 -4.91487,25.09452 0.0794,0.39718 -0.38677,1.46822 -1.92063,4.41258 -4.59556,8.82157 -7.35252,15.14455 -8.69157,19.93383 -0.40096,1.43409 -0.76578,2.72598 -0.81071,2.87086 -0.1395,0.44985 -0.46514,0.059 -0.68601,-0.82347 -0.3231,-1.2909 -1.22383,-3.61715 -1.52581,-3.94062 -0.23159,-0.24806 -0.38203,-0.17035 -1.06978,0.55263 -0.90158,0.94776 -1.87563,2.85376 -2.89156,5.65821 -0.9679,2.67182 -1.35666,3.42917 -1.72396,3.35844 -0.44019,-0.0848 -0.71785,-1.08856 -1.09689,-3.96547 -0.76957,-5.84102 -1.00597,-7.25405 -1.6291,-9.73757 -0.36117,-1.4395 -0.98813,-3.51542 -1.39324,-4.61315 -1.41769,-3.84152 -4.87693,-10.52017 -5.44898,-10.52017 -0.33457,0 -1.4006,2.24217 -1.76416,3.71057 -0.16388,0.66189 -0.44024,2.19626 -0.61413,3.40972 -0.40691,2.83964 -1,4.13028 -2.2673,4.93398 -0.50452,0.31996 -1.00317,0.58174 -1.1081,0.58174 -0.34368,0 -1.98438,-1.44349 -5.2464,-4.61579 -6.88298,-6.69366 -8.41609,-7.99603 -8.87278,-7.53736 -0.43265,0.43452 -0.0147,4.14069 1.07192,9.5059 1.22355,6.04119 1.46117,8.56699 0.86255,9.16854 -0.2928,0.29422 -0.41236,0.27991 -1.43307,-0.17149 -2.457,-1.08661 -4.77555,-1.50453 -5.85186,-1.05482 -1.00845,0.42136 -1.25806,1.06286 -0.96226,2.47308 0.51337,2.44751 2.67738,6.02291 5.92054,9.78197 2.00475,2.32365 2.89556,3.13709 4.83627,4.41621 3.74627,2.46914 5.52387,5.37903 4.05684,6.64091 -0.45393,0.39046 -0.77698,0.47575 -1.80192,0.47575 -0.68685,0 -1.74234,-0.13046 -2.34553,-0.28992 -0.99262,-0.2624 -1.1205,-0.25876 -1.34742,0.0383 -0.63429,0.83045 0.0327,3.32826 1.46335,5.4803 1.86946,2.81206 6.1153,6.56485 9.56468,8.45396 0.86243,0.47233 2.50772,1.40904 3.6562,2.08158 1.14849,0.67255 2.99647,1.61796 4.10662,2.10093 1.11016,0.48297 2.01846,0.99323 2.01846,1.13391 0,0.35824 -3.91498,0.32969 -6.51858,-0.0475 -4.0604,-0.58829 -5.51572,-0.33674 -5.51572,0.95337 0,1.22678 0.8047,2.35419 3.89263,5.45368 3.20148,3.21348 5.35282,4.87492 8.59358,6.63665 1.69882,0.92351 1.96482,1.15427 3.21037,2.78514 1.68121,2.20131 1.81449,2.62222 1.04103,3.28752 -0.53929,0.46388 -0.67693,0.4865 -2.38709,0.39236 -2.01505,-0.11094 -3.76351,-0.73714 -4.78271,-1.71289 -0.79899,-0.76493 -0.9777,-0.37129 -0.89114,1.96294 0.0859,2.31504 0.40282,3.10209 2.11574,5.25353 l 1.22846,1.54294 3.26601,1.59919 c 4.11824,2.01648 5.5068,2.55432 8.38058,3.24612 2.83393,0.6822 4.73877,0.80907 7.22058,0.48093 z m 7.38692,-96.02071 c 0.11849,-0.14278 0.35198,-0.79715 0.51886,-1.45415 l 0.30341,-1.19454 -0.10937,0.97885 c -0.12176,1.0898 -0.44179,1.92944 -0.73542,1.92944 -0.11193,0 -0.10248,-0.10899 0.0225,-0.2596 z m 0.90426,-3.40084 c 0.0556,-0.13789 0.10117,-0.0251 0.10117,0.25072 0,0.27578 -0.0455,0.38861 -0.10117,0.25071 -0.0556,-0.13789 -0.0556,-0.36353 0,-0.50143 z m 5.96383,4.29082 c 0.44734,-0.36224 0.48483,-0.56066 0.61707,-3.26589 0.0774,-1.58412 0.15029,-3.42176 0.1619,-4.08365 0.0173,-0.98581 0.0614,-1.13394 0.24415,-0.81917 0.15162,0.2612 0.18838,1.43375 0.1148,3.66134 -0.0611,1.84997 -0.0299,3.32551 0.0717,3.3883 0.10451,0.0646 0.17996,-2.12886 0.17996,-5.2317 0,-5.29841 0.004,-5.35389 0.52626,-6.65838 l 0.52627,-1.31546 -0.34218,-2.12847 c -0.1882,-1.17066 -0.48163,-2.61978 -0.65206,-3.22027 -0.27097,-0.9547 -0.27955,-1.59582 -0.0683,-5.10547 0.13286,-2.20752 0.27693,-5.93645 0.32015,-8.2865 0.0797,-4.33351 0.21739,-5.1543 0.84436,-5.03356 0.17881,0.0344 5.46559,6.35831 11.74838,14.05305 11.83266,14.49186 11.96803,14.63858 11.96803,12.97154 0,-0.42267 -0.62469,-1.35382 -2.457,-3.66236 -5.96342,-7.51331 -9.90219,-12.71288 -9.74746,-12.86761 0.0422,-0.0422 3.77115,3.07765 8.28659,6.93298 7.29555,6.22903 8.24337,6.97621 8.51056,6.70901 0.6459,-0.6459 0.0326,-1.31116 -5.92252,-6.42443 -3.21191,-2.75786 -6.29067,-5.42045 -6.84168,-5.91686 -0.55101,-0.49642 -2.1194,-1.50831 -3.48532,-2.24865 -1.36591,-0.74035 -2.77182,-1.55266 -3.12425,-1.80515 -0.93506,-0.6699 -4.2491,-5.06293 -4.00417,-5.30785 0.0589,-0.0589 6.30913,3.51823 13.88932,7.94926 13.31047,7.78069 14.09719,8.19423 14.11916,7.42184 0.002,-0.0594 -0.16498,-0.60094 -0.37038,-1.20343 l -0.37345,-1.09545 -6.30101,-3.81086 c -3.46555,-2.09597 -6.61445,-4.01364 -6.99756,-4.26148 -0.3831,-0.24784 -1.41861,-0.6888 -2.30112,-0.97992 -2.49345,-0.82253 -3.83126,-1.48508 -7.44992,-3.68961 -3.43947,-2.09536 -4.51069,-2.60186 -5.50274,-2.60186 -0.85809,0 -1.55258,-0.39549 -2.01861,-1.14953 l -0.41995,-0.67951 0.45984,-0.48948 c 0.2536,-0.26995 0.69156,-0.49102 0.97646,-0.49291 1.23527,-0.008 34.44442,6.04943 35.11598,6.40544 0.90143,0.47787 2.80409,1.04477 3.03258,0.90355 0.25466,-0.15738 0.21566,-0.75656 -0.0749,-1.15067 -0.13789,-0.18704 -0.8807,-0.51975 -1.65069,-0.73937 -0.76999,-0.21961 -1.67256,-0.52778 -2.00572,-0.68482 -0.33315,-0.15704 -1.18073,-0.38906 -1.8835,-0.51561 -1.4965,-0.26948 -11.05388,-2.84349 -12.66197,-3.41015 -0.80421,-0.28339 -2.09388,-0.44646 -4.75928,-0.60177 -6.36527,-0.37091 -13.71704,-1.48923 -14.2085,-2.16134 -0.21956,-0.30027 -0.33248,-0.30151 -1.36187,-0.015 -1.33618,0.37191 -1.58774,0.25633 -2.46523,-1.13261 -0.31445,-0.49772 -0.66766,-0.90511 -0.78491,-0.90531 -0.11726,-2e-4 -0.44886,0.24785 -0.7369,0.55121 l -0.5237,0.55158 1.18818,1.47827 c 0.6535,0.81305 1.18818,1.59478 1.18818,1.73718 0,0.29825 -1.0322,1.21603 -1.55385,1.3816 -0.19392,0.0615 -0.4643,0.2908 -0.60085,0.50945 -0.17973,0.2878 -0.41732,5.36572 -0.86053,18.39212 -0.6286,18.47487 -0.65364,20.34236 -0.27442,20.4674 0.12119,0.04 0.43467,-0.1009 0.69663,-0.31301 z m -12.37482,-0.80306 c 0.19458,-0.215 1.07266,-2.80295 1.95131,-5.751 0.87864,-2.94805 1.67762,-5.50975 1.77551,-5.69265 0.34438,-0.64348 5.59606,-17.78197 5.81084,-18.96327 0.22849,-1.25671 0.0717,-5.06599 -0.19681,-4.78099 -0.15053,0.15979 -10.32934,34.29789 -10.4536,35.05973 -0.09,0.55154 0.65224,0.63703 1.11275,0.12818 z m 20.42676,-0.54466 c 0.19412,-0.42604 0.0721,-1.56169 -0.69508,-6.46844 -0.5118,-3.27342 -1.07258,-7.04454 -1.24619,-8.38026 -0.17361,-1.33573 -0.44515,-2.92575 -0.60342,-3.53339 -0.39491,-1.51617 -2.36211,-6.52525 -2.45417,-6.24907 -0.041,0.12302 0.83154,5.79032 1.93898,12.59401 1.10745,6.80369 2.01354,12.41165 2.01354,12.46213 0,0.0505 0.18245,0.0918 0.40544,0.0918 0.24104,0 0.50092,-0.20955 0.6409,-0.51677 z m 6.72998,-1.72378 c 0.1356,-0.1356 0.24744,-0.43157 0.24852,-0.65772 0.001,-0.22614 -0.80504,-2.84811 -1.7914,-5.8266 -2.0297,-6.12906 -4.74195,-14.8912 -4.93578,-15.94546 -0.11974,-0.65127 -0.10803,-0.67301 0.16211,-0.30085 0.16015,0.22063 2.70398,4.68836 5.65297,9.9283 2.94899,5.23993 5.43944,9.60907 5.53432,9.7092 0.27207,0.28707 0.79124,-0.27057 0.79124,-0.84987 0,-0.28513 -0.80275,-1.96641 -1.78389,-3.73616 -0.98114,-1.76976 -2.4131,-4.43622 -3.18213,-5.92546 -2.29415,-4.44268 -3.30448,-5.97729 -5.84826,-8.88296 -1.33159,-1.52104 -2.54913,-3.01029 -2.70564,-3.30944 -0.34854,-0.66619 -2.47538,-2.96777 -2.61419,-2.82896 -0.19987,0.19986 9.65424,28.75939 9.94278,28.81652 0.15555,0.0308 0.39376,-0.0549 0.52935,-0.19054 z m -34.10025,-0.67603 c 0.25326,-0.17739 1.59721,-2.63507 3.15331,-5.76644 1.49157,-3.00151 3.34281,-6.63064 4.11387,-8.06472 0.77106,-1.43409 1.59214,-3.10385 1.82461,-3.71058 0.50406,-1.3155 1.7856,-6.14907 1.78147,-6.71915 -0.002,-0.22063 -1.42662,2.48709 -3.16672,6.01715 -8.99467,18.24707 -8.9576,18.16841 -8.65165,18.36195 0.38908,0.24611 0.43276,0.24065 0.94511,-0.11821 z m -5.94823,-3.09561 c 0.17641,-0.10539 2.59526,-3.55683 5.37522,-7.66987 2.77995,-4.11304 5.57633,-8.20032 6.21417,-9.08283 2.29494,-3.17531 6.99995,-10.04301 7.34631,-10.72309 0.19453,-0.38197 1.07148,-1.68226 1.94877,-2.88952 1.79215,-2.46622 2.08094,-3.2889 1.33735,-3.80974 -0.37136,-0.26011 -0.51505,-0.27581 -0.7033,-0.0769 -0.71653,0.75723 -22.6157,33.61071 -22.62747,33.94609 -0.0158,0.45093 0.58751,0.61732 1.10895,0.30582 z m 50.99786,-2.31154 c 0.0635,-0.16547 0.028,-0.30086 -0.0788,-0.30086 -0.10685,0 -0.19428,0.13539 -0.19428,0.30086 0,0.38523 0.12528,0.38523 0.27311,0 z m -53.00941,-6.56872 c 1.9203,-2.01324 5.17278,-5.37533 7.22774,-7.4713 2.97231,-3.03164 3.98963,-4.21575 4.97526,-5.791 0.68144,-1.08908 1.19506,-2.02406 1.14138,-2.07774 -0.29268,-0.29268 -2.60041,1.98609 -12.42638,12.27048 -6.12621,6.41201 -6.36022,6.72999 -4.95277,6.72999 0.44333,0 1.18591,-0.67369 4.03477,-3.66043 z m -7.41945,-2.95645 c 1.64819,-1.11463 1.89672,-1.42536 0.5693,-0.71178 -0.72621,0.39039 -1.60622,0.70979 -1.95558,0.70979 -0.67077,0 -0.85276,0.27474 -0.31794,0.47997 0.54445,0.20893 0.79056,0.1399 1.70422,-0.47798 z m 10.90855,-9.84258 c 7.27698,-4.41001 13.49435,-8.26462 13.81637,-8.56581 0.74621,-0.69795 2.3772,-2.88035 2.24866,-3.0089 -0.0536,-0.0536 -0.53046,0.18037 -1.05965,0.51995 -0.5292,0.33959 -1.39354,0.80824 -1.92077,1.04145 -0.52722,0.23322 -2.37667,1.34991 -4.10988,2.48153 -1.73322,1.13162 -4.55029,2.90011 -6.26016,3.92998 -1.70988,1.02987 -5.32017,3.24243 -8.02287,4.91679 -2.70271,1.67437 -5.55825,3.42443 -6.34566,3.88902 -0.78741,0.46459 -1.58393,1.01297 -1.77004,1.21862 -0.35495,0.39222 -0.36003,1.43841 -0.007,1.53858 0.11032,0.0313 6.15447,-3.55121 13.43146,-7.96121 z m 61.78153,0.81714 c 0.21543,-0.34858 -0.0622,-1.17198 -0.46853,-1.38942 -0.20071,-0.10742 -3.34307,-1.31914 -6.98304,-2.69273 -3.63996,-1.37359 -7.04643,-2.69256 -7.56993,-2.93104 -0.96196,-0.43822 -5.95905,-1.28713 -6.90089,-1.17233 -0.2983,0.0364 3.81477,1.67829 10.41453,4.15745 5.99916,2.25355 11.01124,4.13254 11.13798,4.17554 0.12673,0.043 0.29318,-0.0234 0.36988,-0.14747 z m -63.69261,-5.52919 c 13.37432,-5.122 15.77285,-6.15265 16.016,-6.8821 0.0416,-0.12487 -0.90212,0.12368 -2.09719,0.55234 -16.73201,6.00157 -28.49826,10.35487 -28.70605,10.62073 -0.32942,0.42147 -0.23437,1.1217 0.158,1.16398 0.16547,0.0178 6.74863,-2.4369 14.62924,-5.45495 z m 4.9265,-5.92083 c 11.69333,-4.40132 21.38998,-7.98095 21.5481,-7.95473 0.15813,0.0262 0.47403,0.42695 0.702,0.89055 0.27288,0.5549 0.55157,0.84823 0.81565,0.85852 0.93452,0.0364 41.73477,-3.88244 41.89478,-4.02398 0.30191,-0.26707 -0.0645,-1.19353 -0.54425,-1.37591 -0.28789,-0.10945 -3.46445,0.0804 -8.56884,0.51216 -11.84486,1.00189 -12.03992,0.82872 -0.89079,-0.79085 5.18478,-0.75316 9.58483,-1.4136 9.77788,-1.46766 0.47023,-0.13166 0.4468,-0.80815 -0.037,-1.06705 -0.60627,-0.32447 -0.98346,-0.28443 -10.32386,1.09566 -5.64841,0.83459 -8.88804,1.23342 -9.03411,1.11219 -0.25,-0.20748 -2.83567,0.60304 -6.22811,1.95231 -1.10315,0.43875 -2.65534,0.94422 -3.44932,1.12326 -1.54807,0.34909 -4.07212,0.44045 -4.07212,0.14739 0,-0.098 0.56411,-0.69848 1.25357,-1.33445 l 1.25358,-1.1563 9.02572,-3.07275 c 20.24672,-6.89285 19.75632,-6.7163 19.75632,-7.11277 0,-0.50458 -0.70008,-0.83879 -1.42398,-0.67979 -0.35797,0.0786 -0.71384,0.0354 -0.88622,-0.10768 -0.22979,-0.19071 -0.73076,-0.0522 -2.47716,0.68496 -2.40777,1.01632 -12.98475,4.94346 -13.46467,4.99932 -0.85119,0.0991 -0.1988,-0.61637 2.89434,-3.17413 8.73415,-7.22238 9.44025,-7.83672 9.62828,-8.37702 0.14539,-0.41777 0.12132,-0.62645 -0.0975,-0.84526 -0.25367,-0.25366 -1.33759,0.56914 -8.54155,6.48388 -4.53805,3.72592 -8.46425,6.91026 -8.72487,7.07632 -0.78393,0.49948 -3.12904,1.42932 -3.38752,1.34316 -0.13641,-0.0455 0.66522,-1.1663 1.84519,-2.57989 1.14752,-1.37471 2.30697,-2.81537 2.57657,-3.20147 0.97256,-1.39283 4.32566,-5.17492 7.20181,-8.12316 6.19912,-6.35452 6.43325,-6.61959 6.43325,-7.2832 0,-0.75932 -0.31209,-0.98272 -0.78057,-0.55874 -0.19479,0.17627 -0.61782,0.32335 -0.94008,0.32683 -0.52534,0.006 -1.76805,1.39385 -12.01851,13.42536 -12.41898,14.57681 -11.58274,13.74085 -13.98988,13.98525 -1.28924,0.1309 -1.52364,-0.1467 -0.72635,-0.86024 0.23482,-0.21015 0.94949,-1.05902 1.58818,-1.88638 0.63868,-0.82736 2.61414,-3.12892 4.38989,-5.11458 1.93094,-2.15918 3.85219,-4.55043 4.77998,-5.94932 0.85323,-1.28647 3.98075,-5.87915 6.95004,-10.20595 5.46114,-7.95787 5.82236,-8.60621 5.1625,-9.26608 -0.18126,-0.18125 -0.32186,-0.14469 -0.60422,0.15712 -0.20239,0.21634 -3.69244,5.2221 -7.75566,11.12393 -9.99381,14.51599 -10.9529,15.88533 -11.05477,15.78346 -0.12332,-0.12332 0.80979,-2.42073 2.7447,-6.75774 0.91049,-2.04081 1.90011,-4.34237 2.19916,-5.11457 0.29904,-0.77221 2.32125,-5.2295 4.4938,-9.9051 2.55317,-5.49476 3.92856,-8.67947 3.88921,-9.0055 -0.0567,-0.46993 -0.63138,-1.04809 -0.83358,-0.83862 -0.0495,0.0512 -3.99897,8.53224 -8.77664,18.84664 -4.77767,10.3144 -8.78053,18.82195 -8.89524,18.90566 -0.53423,0.38986 -1.1777,0.40233 -1.43399,0.0278 -0.66789,-0.97601 -0.93963,-1.10854 -2.16997,-1.05832 -0.77831,0.0318 -1.22093,-0.0338 -1.27246,-0.18835 -0.0441,-0.13237 0.10768,-0.23705 0.34377,-0.23705 0.41992,0 0.42205,-0.0282 0.31382,-4.16186 -0.0599,-2.28902 -0.15313,-4.90903 -0.20711,-5.82223 -0.0966,-1.63494 -1.32612,-9.30506 -1.71113,-10.67479 -0.10852,-0.3861 -0.78128,-4.26717 -1.49502,-8.62459 -0.71373,-4.35742 -1.39849,-8.16779 -1.52167,-8.46748 -0.23419,-0.56978 -0.90139,-0.92077 -1.19403,-0.62813 -0.0938,0.0938 0.94563,7.03001 2.30982,15.41381 1.3642,8.38379 2.44395,15.27977 2.39945,15.3244 -0.13717,0.13757 -0.87494,-1.68145 -2.42685,-5.98355 -0.81865,-2.2694 -1.79486,-4.89336 -2.16937,-5.83103 -0.37451,-0.93768 -1.81302,-5.04438 -3.1967,-9.12602 -1.77489,-5.23565 -2.64137,-7.52452 -2.94226,-7.77215 -0.4218,-0.34715 -1.50226,-0.50259 -1.30793,-0.18817 0.10436,0.16886 12.15791,35.54713 12.15791,35.68458 0,0.44353 -3.32613,-3.24189 -4.5664,-5.05965 -0.45161,-0.66189 -2.50087,-3.18909 -4.55393,-5.61601 -2.05306,-2.42692 -5.90781,-7.1203 -8.56613,-10.42973 -5.58989,-6.95906 -5.91099,-7.32087 -6.49722,-7.32087 -1.27517,0 -1.15395,0.16932 10.96897,15.32163 6.95694,8.69539 11.79683,14.91215 11.73496,15.07336 -0.16245,0.42335 -1.72703,1.14199 -2.26314,1.0395 -0.26328,-0.0503 -0.52805,-0.0116 -0.58839,0.086 -0.13771,0.22282 -1.9966,1.17271 -2.29495,1.17271 -0.26119,0 -2.69118,-1.45432 -4.78543,-2.86402 -1.9016,-1.28002 -3.19412,-1.84916 -7.14123,-3.14449 -1.76503,-0.57924 -7.19137,-2.4879 -12.05853,-4.24148 -4.86716,-1.75357 -9.12864,-3.18831 -9.46996,-3.18831 -0.42379,0 -0.69156,0.13265 -0.84445,0.41832 -0.12313,0.23008 -0.1763,0.46589 -0.11817,0.52403 0.0891,0.0891 30.2061,11.09195 30.36082,11.09195 0.0291,0 0.0529,0.0903 0.0529,0.20057 0,0.11032 -0.29084,0.20057 -0.6463,0.20057 -1.22545,0 -9.08448,-1.21446 -10.41628,-1.60963 -0.7722,-0.22913 -1.91354,-0.3944 -2.70772,-0.39208 -0.77326,0.002 -4.89825,-0.58125 -9.44459,-1.33597 -7.83055,-1.29994 -8.08375,-1.32909 -8.47415,-0.97578 -1.02592,0.92844 -1.3772,0.84332 14.38973,3.48681 8.13569,1.36404 15.31114,2.56898 15.94545,2.67765 0.63431,0.10867 1.15329,0.25939 1.15329,0.33494 0,0.30728 -5.38586,2.55525 -9.9283,4.14391 -0.44126,0.15432 -4.87618,0.95831 -9.85538,1.78664 -4.97919,0.82833 -9.1865,1.55725 -9.34956,1.61983 -0.38735,0.14864 -0.77302,1.00685 -0.62537,1.39161 0.0717,0.1868 0.27981,0.26555 0.54619,0.20665 0.23671,-0.0523 2.37091,-0.46214 4.74267,-0.91068 2.37176,-0.44854 4.4928,-0.86651 4.71343,-0.92882 0.31564,-0.0891 0.35044,-0.0599 0.16326,0.13711 -0.13083,0.13771 -2.34214,1.08934 -4.914,2.11473 -2.57187,1.02538 -4.88563,2.04996 -5.14169,2.27683 -0.56741,0.50273 -0.52922,1.30448 0.0644,1.35231 0.22063,0.0178 9.96841,-3.56875 21.66174,-7.97006 z m -11.86927,-1.88683 c 5.7168,-1.02917 10.44185,-1.91889 10.50012,-1.97715 0.10902,-0.10902 -0.68736,-0.34944 -2.44159,-0.73711 -0.71538,-0.15809 -1.23269,-0.16059 -1.80515,-0.009 -0.44132,0.11708 -4.50295,0.84286 -9.02584,1.61285 -7.26242,1.23638 -8.26545,1.45112 -8.58287,1.83754 -0.50769,0.61805 -0.36146,1.06721 0.36107,1.10907 0.33004,0.0191 5.27745,-0.80729 10.99426,-1.83646 z m 77.15537,-0.70082 c 0,-0.39954 -0.14931,-0.69307 -0.45129,-0.88718 -0.61427,-0.39485 -15.85928,-1.93041 -19.13689,-1.92757 -2.33913,0.002 -6.74983,0.47685 -7.58929,0.81701 -0.22063,0.0894 -0.29688,0.16826 -0.16946,0.17526 0.12743,0.007 6.25842,0.55425 13.62443,1.21614 7.366,0.66189 13.46693,1.20343 13.55762,1.20343 0.0907,0 0.16488,-0.26869 0.16488,-0.59709 z m 0.80228,-3.32172 c 0,-0.30834 -0.0588,-0.50186 -0.13059,-0.43003 -0.0718,0.0718 -0.23323,-0.01 -0.35867,-0.1813 -0.14674,-0.20069 -0.79603,-0.38241 -1.82103,-0.50967 -1.34309,-0.16674 -2.28579,-0.11318 -6.00949,0.34142 -2.42909,0.29656 -4.59402,0.60423 -4.81096,0.68372 -0.21695,0.0795 1.5882,0.20384 4.01143,0.27634 2.42323,0.0725 5.4664,0.1877 6.7626,0.25599 l 2.35671,0.12416 0,-0.56063 z m -51.95719,-2.71979 c -0.4227,-0.79427 -1.70605,-2.44491 -2.42555,-3.11975 -0.37081,-0.34779 -2.03461,-1.43088 -3.69734,-2.40686 -6.57219,-3.85772 -8.34097,-4.93076 -14.57554,-8.84226 -4.12147,-2.58577 -6.66121,-4.06004 -6.99693,-4.06158 -0.70793,-0.003 -1.15335,0.51604 -0.75948,0.88541 0.36638,0.34358 27.91179,17.71998 28.36691,17.89463 0.30643,0.11759 0.3161,0.0791 0.0879,-0.34959 z m 8.98248,-3.43528 c 0.32375,-0.40286 1.18609,-2.20989 1.31886,-2.76365 0.0662,-0.27631 0.51431,-1.1935 0.99569,-2.03821 1.09489,-1.92129 1.20775,-2.46784 1.85679,-8.99229 0.2908,-2.92334 0.93287,-8.59381 1.42681,-12.60107 0.98407,-7.98359 1.038,-8.71989 0.67104,-9.16205 -0.2549,-0.30714 -1.00652,-0.41981 -0.99624,-0.14934 0.0152,0.39947 -3.66448,29.67401 -3.76272,29.93532 -0.19174,0.50999 -0.39727,-1.11888 -0.64533,-5.11457 -0.13013,-2.09598 -0.31941,-4.79274 -0.42063,-5.99282 -0.10122,-1.20007 -0.32408,-5.75806 -0.49524,-10.12887 -0.17116,-4.37081 -0.40181,-8.28451 -0.51254,-8.69712 -0.14758,-0.54985 -0.33576,-0.78393 -0.70465,-0.87651 -0.27681,-0.0695 -0.53205,-0.0929 -0.5672,-0.0521 -0.0969,0.11261 1.43158,36.69042 1.53766,36.79649 0.0508,0.0508 0.18475,-0.0227 0.2977,-0.16322 z m -14.19054,-2.96328 c -0.14369,-0.27579 -1.20643,-1.74799 -2.36165,-3.27157 -1.42941,-1.88519 -2.55219,-3.13464 -3.51464,-3.91115 -0.77783,-0.62755 -3.81237,-3.33273 -6.7434,-6.01149 -4.73192,-4.32464 -5.39642,-4.86412 -5.92924,-4.81372 -0.36799,0.0348 -0.62429,0.18477 -0.66271,0.38775 -0.0416,0.21988 3.05871,3.18249 9.23537,8.82515 5.1139,4.6718 9.5094,8.67469 9.76776,8.89531 l 0.46977,0.40115 -0.26126,-0.50143 z m 3.70102,-5.11458 c -0.33211,-1.48546 -1.58741,-5.49081 -1.94868,-6.21772 -0.21929,-0.44126 -0.69374,-1.25358 -1.05434,-1.80515 -0.36059,-0.55157 -2.34003,-4.07161 -4.39875,-7.8223 -3.51465,-6.40315 -4.23047,-7.52593 -4.79331,-7.51836 -0.96318,0.0129 -0.84686,0.26223 5.48774,11.76164 3.45432,6.27073 6.40686,11.58183 6.56122,11.80246 0.26097,0.37302 0.27121,0.35896 0.14612,-0.20057 z m -28.32866,-4.97335 0.3188,-0.66854 -1.44084,-0.7716 c -1.10221,-0.59026 -1.56867,-0.73952 -1.98473,-0.6351 -0.97797,0.24546 -0.66986,0.78689 0.99461,1.74781 0.84618,0.48851 1.59585,0.91245 1.66593,0.94208 0.0701,0.0296 0.27089,-0.24696 0.44623,-0.61465 z m 45.65875,-1.79595 c 0.85417,-1.38292 3.20333,-6.41104 3.32811,-7.12346 0.0722,-0.41194 0.76408,-2.89923 1.53763,-5.52731 0.78506,-2.66724 1.37915,-5.05087 1.34468,-5.39521 -0.0601,-0.6006 -0.61236,-1.17643 -0.8757,-0.9131 -0.0722,0.0722 -1.29839,4.08541 -2.72498,8.91835 -1.42659,4.83294 -2.72087,9.21588 -2.8762,9.73988 -0.15532,0.52399 -0.2495,0.95271 -0.20928,0.95271 0.0402,0 0.25429,-0.29333 0.47574,-0.65186 z"
           style="fill:#deba2f"
           inkscape:connector-curvature="0" />
        <path
           id="path2703"
           d="m 321.98583,799.39592 c 2.1214,-0.28049 4.35662,-0.8182 6.61887,-1.59225 1.37692,-0.47113 1.6826,-0.50377 3.61029,-0.38557 7.2556,0.44489 14.61725,-2.58854 18.79164,-7.74324 1.71754,-2.12089 3.33678,-5.22051 2.71968,-5.20615 -0.0827,0.002 -0.91924,0.12957 -1.85889,0.28366 -2.05364,0.33676 -3.35296,0.15455 -4.35658,-0.61095 -0.75962,-0.57938 -1.45449,-1.59372 -1.45565,-2.12488 -4e-4,-0.21889 0.95924,-0.97036 2.65683,-2.08033 6.77697,-4.43111 10.95272,-8.71542 13.28516,-13.63057 0.81166,-1.71042 1.55716,-3.86046 1.41713,-4.08704 -0.0555,-0.0899 -1.52472,0.17782 -3.26485,0.59487 -5.522,1.32342 -7.39056,1.46199 -8.16565,0.60553 -0.20207,-0.22329 -0.3166,-0.61382 -0.27825,-0.9488 0.0552,-0.48224 0.27991,-0.67667 1.46923,-1.27131 7.82221,-3.91094 13.98299,-9.18977 17.94837,-15.37896 1.30197,-2.03212 1.20002,-2.17366 -1.55931,-2.16484 -1.57129,0.005 -2.51732,0.15027 -4.89251,0.75117 -4.0182,1.01657 -4.39327,0.81192 -2.40829,-1.31403 0.64115,-0.68668 2.3196,-2.37673 3.7299,-3.75566 4.22656,-4.13257 7.00636,-7.85184 9.41873,-12.60189 1.23101,-2.42392 2.93481,-6.29984 2.93481,-6.67631 0,-0.0975 -0.30147,-0.17725 -0.66992,-0.17725 -1.3442,0 -3.77186,0.80339 -6.13055,2.02881 -2.83067,1.47062 -4.02759,1.69746 -5.36268,1.01636 -1.35984,-0.69374 -1.35187,-0.6618 -0.99624,-3.99108 0.17421,-1.63088 0.59086,-5.08629 0.92589,-7.67868 0.61385,-4.74989 0.81982,-7.66872 0.55954,-7.92962 -0.53879,-0.54006 -2.97479,1.55359 -6.53491,5.6165 -4.34214,4.95537 -6.55819,6.96119 -7.23123,6.54522 -0.13375,-0.0827 -0.47058,-1.00101 -0.7485,-2.04077 -1.31724,-4.92802 -2.87598,-6.34279 -4.78397,-4.34212 -1.52175,1.59567 -2.9605,5.09556 -4.141,10.07338 -0.55046,2.32112 -0.63556,3.10297 -0.77493,7.12029 -0.13419,3.8677 -0.21682,4.66741 -0.57802,5.59392 -1.26061,3.23351 -3.2974,2.5482 -4.8523,-1.63263 -0.23591,-0.6343 -0.52461,-1.15328 -0.64155,-1.15328 -0.48107,0 -1.60881,0.89586 -2.18865,1.73863 -1.18422,1.72121 -2.13794,4.92762 -2.48006,8.33798 -0.0746,0.74347 -0.21533,1.40103 -0.31278,1.46125 -0.0974,0.0602 -0.32321,-0.41268 -0.50172,-1.05089 -1.2774,-4.56708 -1.49552,-5.02544 -2.27386,-4.77841 -0.66581,0.21132 -2.64209,2.49614 -4.43622,5.12882 -1.82622,2.67976 -4.00426,5.11167 -4.44441,4.96243 -0.2121,-0.0719 -0.26648,-0.79461 -0.25452,-3.38263 0.0326,-7.06222 1.15714,-12.25534 4.24299,-19.59492 1.1182,-2.65961 3.28213,-7.06762 8.58725,-17.49259 l 0.86758,-1.70486 0.0492,-4.41257 c 0.0294,-2.63529 -0.0259,-4.40319 -0.13736,-4.38926 -0.10264,0.0128 -0.64811,1.06231 -1.21217,2.33217 -0.74534,1.67799 -1.1438,2.92976 -1.45831,4.58134 -0.44353,2.32908 -0.88466,3.19204 -1.63172,3.19204 -0.18431,0 -0.47729,0.15795 -0.65107,0.351 -0.17379,0.19305 -1.83681,3.37462 -3.69561,7.07015 -3.65406,7.26475 -5.838,12.43583 -6.98848,16.54717 -0.4013,1.43409 -0.76639,2.72598 -0.81132,2.87086 -0.1395,0.44985 -0.46514,0.059 -0.68601,-0.82347 -0.3231,-1.2909 -1.22383,-3.61715 -1.52581,-3.94062 -0.23159,-0.24806 -0.38203,-0.17035 -1.06978,0.55263 -0.90158,0.94776 -1.87563,2.85376 -2.89156,5.65821 -0.9679,2.67182 -1.35666,3.42917 -1.72396,3.35844 -0.44019,-0.0848 -0.71785,-1.08856 -1.09689,-3.96547 -0.76957,-5.84102 -1.00597,-7.25405 -1.6291,-9.73757 -0.36117,-1.4395 -0.98813,-3.51542 -1.39324,-4.61315 -1.41769,-3.84152 -4.87693,-10.52017 -5.44898,-10.52017 -0.33457,0 -1.4006,2.24217 -1.76416,3.71057 -0.16388,0.66189 -0.44024,2.19626 -0.61413,3.40972 -0.40691,2.83964 -1,4.13028 -2.2673,4.93398 -0.50452,0.31996 -1.00317,0.58174 -1.1081,0.58174 -0.34368,0 -1.98438,-1.44349 -5.2464,-4.61579 -6.88298,-6.69366 -8.41609,-7.99603 -8.87278,-7.53736 -0.43265,0.43452 -0.0147,4.14069 1.07192,9.5059 1.22355,6.04119 1.46117,8.56699 0.86255,9.16854 -0.2928,0.29422 -0.41236,0.27991 -1.43307,-0.17149 -2.457,-1.08661 -4.77555,-1.50453 -5.85186,-1.05482 -1.00845,0.42136 -1.25806,1.06286 -0.96226,2.47308 0.51337,2.44751 2.67738,6.02291 5.92054,9.78197 2.00475,2.32365 2.89556,3.13709 4.83627,4.41621 3.74627,2.46914 5.52387,5.37903 4.05684,6.64091 -0.45393,0.39046 -0.77698,0.47575 -1.80192,0.47575 -0.68685,0 -1.74234,-0.13046 -2.34553,-0.28992 -0.99262,-0.2624 -1.1205,-0.25876 -1.34742,0.0383 -0.63429,0.83045 0.0327,3.32826 1.46335,5.4803 1.86946,2.81206 6.1153,6.56485 9.56468,8.45396 0.86243,0.47233 2.50772,1.40904 3.6562,2.08158 1.14849,0.67255 2.99647,1.61796 4.10662,2.10093 1.11016,0.48297 2.01846,0.99323 2.01846,1.13391 0,0.35824 -3.91498,0.32969 -6.51858,-0.0475 -4.0604,-0.58829 -5.51572,-0.33674 -5.51572,0.95337 0,1.22678 0.8047,2.35419 3.89263,5.45368 3.20148,3.21348 5.35282,4.87492 8.59358,6.63665 1.69882,0.92351 1.96482,1.15427 3.21037,2.78514 1.68121,2.20131 1.81449,2.62222 1.04103,3.28752 -0.53929,0.46388 -0.67693,0.4865 -2.38709,0.39236 -2.01505,-0.11094 -3.76351,-0.73714 -4.78271,-1.71289 -0.79899,-0.76493 -0.9777,-0.37129 -0.89114,1.96294 0.0859,2.31504 0.40282,3.10209 2.11574,5.25353 l 1.22846,1.54294 3.26601,1.59919 c 4.11824,2.01648 5.5068,2.55432 8.38058,3.24612 2.83393,0.6822 4.73877,0.80907 7.22058,0.48093 z m 16.11125,-108.09627 0.56693,-1.20343 -0.34387,-2.20629 c -0.6328,-4.06004 -0.92391,-3.643 -0.84519,1.21079 l 0.0552,3.40236 0.56694,-1.20343 z"
           style="fill:#2eac27"
           inkscape:connector-curvature="0" />
        <path
           id="path2701"
           d="m 318.3663,798.85623 c 0.1005,-0.24821 0.46104,-1.98566 0.8012,-3.861 0.34016,-1.87535 0.66547,-3.61916 0.72291,-3.87513 0.0982,-0.43765 0.18839,-0.38978 1.51138,0.80228 0.77382,0.69724 2.01154,1.70091 2.7505,2.23038 0.73895,0.52948 1.42217,1.13229 1.51826,1.33959 0.19929,0.42993 1.13621,0.87528 1.62878,0.77421 0.22201,-0.0456 1.3859,-2.47752 3.53611,-7.38877 1.76285,-4.02648 4.52147,-10.29936 6.13029,-13.93974 1.60881,-3.64037 8.55632,-18.14276 15.43891,-32.22753 l 12.5138,-25.60867 0.58785,-4.27652 c 0.32332,-2.35208 0.73378,-5.24036 0.91214,-6.4184 0.24468,-1.61617 0.26937,-2.24447 0.10059,-2.55984 -0.16874,-0.3153 -0.30782,-0.3725 -0.56626,-0.2329 -0.76738,0.41451 -3.79968,3.43423 -6.22834,6.2025 -4.03843,4.60315 -6.0397,6.33009 -6.93671,5.98588 -0.16167,-0.062 -0.39135,-0.50104 -0.51039,-0.97556 -0.6087,-2.42642 -1.46629,-4.79259 -2.0081,-5.54053 -0.51082,-0.70517 -0.71698,-0.83795 -1.30106,-0.83795 -1.82026,0 -3.89883,3.97343 -5.45597,10.42973 -0.65312,2.70797 -0.7121,3.22604 -0.85637,7.52144 -0.13584,4.04423 -0.20948,4.75481 -0.59715,5.76187 -0.77956,2.02504 -2.19109,2.56099 -3.44561,1.30828 -0.54794,-0.54716 -1.57411,-2.45452 -2.05025,-3.81086 -0.0678,-0.19305 -0.21833,-0.351 -0.33457,-0.351 -0.47559,0 -2.04706,1.73618 -2.61012,2.8837 -0.71436,1.45588 -1.5069,4.81056 -1.70864,7.23239 -0.0972,1.16693 -0.25715,1.87267 -0.48942,2.15951 -0.33488,0.41356 -0.36705,0.33514 -1.09357,-2.66547 -0.86725,-3.58187 -1.0111,-3.99412 -1.39364,-3.99412 -0.47735,0 -2.53059,2.38177 -4.76406,5.52634 -3.01062,4.23874 -4.56791,5.5588 -4.91698,4.16797 -0.17095,-0.68109 0.0493,-6.45234 0.33175,-8.69146 0.89736,-7.1149 2.74741,-12.1137 9.24365,-24.9762 l 4.15581,-8.22847 0.0546,-4.05246 c 0.0301,-2.22884 0.007,-4.10043 -0.052,-4.15908 -0.2717,-0.27169 -2.01506,4.45581 -2.3843,6.46554 -0.44036,2.39681 -0.75375,3.02178 -1.60016,3.19106 -0.32346,0.0647 -0.67211,0.21957 -0.77478,0.34417 -0.10266,0.1246 -1.66583,3.1599 -3.47369,6.74512 -4.29873,8.52489 -6.042,12.72465 -7.40968,17.85089 -0.33846,1.26861 -0.68735,2.39683 -0.77529,2.50714 -0.29721,0.3728 -1.18909,7.34425 -1.19912,9.37289 -0.001,0.29392 -0.13496,0.3289 -0.87049,0.22809 -2.42841,-0.33285 -3.71211,2.23739 -3.46924,6.94619 0.13985,2.71145 0.4827,4.12444 1.45018,5.97659 1.06823,2.04503 1.16902,3.777 0.24846,4.26966 -0.56404,0.30187 -1.7312,-0.0394 -2.5815,-0.75493 -0.47499,-0.39968 -3.06275,-5.40029 -10.73822,-20.75062 l -10.11241,-20.22405 -4.48394,-4.51607 c -5.05261,-5.08881 -5.34767,-5.27442 -5.34571,-3.36278 0.002,1.57224 0.44621,4.40577 1.4398,9.17616 0.9596,4.60719 1.1519,7.61916 0.52651,8.24636 -0.31873,0.31964 -0.45132,0.2971 -2.20853,-0.37549 -2.42865,-0.92959 -4.16197,-1.25219 -5.08727,-0.94681 -0.37886,0.12504 -0.68884,0.31592 -0.68884,0.4242 0,0.10826 -0.0903,0.14107 -0.20057,0.0729 -0.45012,-0.27819 -0.3005,1.73833 0.2119,2.85596 0.2144,0.46763 0.38981,0.92356 0.38981,1.01316 0,0.0896 0.49584,1.00202 1.10187,2.02759 2.17009,3.67241 5.95297,7.98239 8.51985,9.70699 3.70742,2.4909 5.52196,4.78744 5.10266,6.45808 -0.30502,1.21531 -2.43841,1.6596 -4.90132,1.02072 -1.2302,-0.3191 -1.39085,-0.22712 -1.39598,0.79927 -0.005,0.96314 0.54937,2.58825 1.34789,3.95265 1.56344,2.67142 6.89117,7.37073 10.2822,9.06941 0.60673,0.30393 1.91848,1.03726 2.91499,1.62963 0.99651,0.59236 2.88365,1.57023 4.19364,2.17304 2.55423,1.17537 2.83878,1.35897 2.6299,1.69694 -0.19859,0.32133 -4.86009,0.2672 -7.13109,-0.0828 -2.41998,-0.37296 -4.42085,-0.38541 -4.90618,-0.0305 -0.29553,0.2161 -0.34689,0.44036 -0.25603,1.11781 0.15494,1.15514 0.84185,2.08053 3.65792,4.92786 3.20356,3.23912 6.04149,5.36275 9.49881,7.108 1.01789,0.51383 1.39336,0.87776 2.61419,2.53388 0.85053,1.15378 1.42559,2.13158 1.42559,2.42399 0,0.26956 -0.23324,0.72335 -0.51832,1.00843 -0.50185,0.50184 -0.58027,0.51533 -2.46854,0.4244 -2.14094,-0.10309 -3.81611,-0.68881 -4.87965,-1.70614 -0.48053,-0.45965 -0.56121,-0.48138 -0.67606,-0.18211 -0.0717,0.18691 -0.0927,1.12767 -0.0467,2.09058 0.0994,2.07991 0.4426,2.8964 2.09481,4.98434 1.1273,1.4246 1.15718,1.44495 4.46653,3.04252 3.71139,1.79164 5.96137,2.63481 8.34078,3.12566 0.87967,0.18147 1.68747,0.41801 1.79511,0.52565 0.10764,0.10764 0.49549,0.19571 0.86189,0.19571 0.50301,0 0.71095,-0.11055 0.84892,-0.45129 z m 13.46286,-42.74656 c -1.16786,-1.93345 -2.22402,-4.30595 -2.21628,-4.97851 0.009,-0.76703 1.33932,-5.70026 1.44999,-5.37629 0.17352,0.50796 0.72962,4.00612 0.95654,6.01715 0.11826,1.04799 0.39115,2.71352 0.60644,3.70119 0.39635,1.81833 0.4618,2.31596 0.3046,2.31596 -0.0478,0 -0.54333,-0.75577 -1.10129,-1.6795 z M 338.12,690.76936 c 0.28894,-0.72212 0.30128,-1.03127 0.0941,-2.35672 -0.38901,-2.48914 -0.57107,-2.322 -0.57761,0.53029 -0.003,1.46167 0.0292,2.65757 0.0724,2.65757 0.0432,0 0.22815,-0.37401 0.41106,-0.83114 z"
           style="fill:#22881d"
           inkscape:connector-curvature="0" />
        <path
           id="path2699"
           d="m 317.86881,799.11553 c 0.0652,-0.10559 0.46917,-2.11381 0.89758,-4.46272 0.42841,-2.3489 0.832,-4.49638 0.89687,-4.77216 0.12717,-0.54063 -0.53094,-1.62593 -0.81418,-1.34269 -0.0856,0.0856 -0.58099,2.47517 -1.1009,5.31018 -0.9491,5.17534 -0.9609,5.447 -0.2369,5.45631 0.13138,0.002 0.29227,-0.0833 0.35753,-0.18892 z m 9.71342,-3.86959 c 0.7284,-1.69062 28.77719,-66.3084 33.69454,-77.62426 2.76911,-6.37231 5.11485,-11.94254 5.21275,-12.37828 0.22347,-0.99458 -0.13676,-1.64176 -0.71612,-1.28653 -0.21697,0.13303 -4.27894,9.28221 -10.15148,22.86517 -5.38438,12.45387 -14.22156,32.88761 -19.63818,45.4083 -5.41662,12.52069 -9.88549,22.90561 -9.93082,23.0776 -0.0503,0.19073 0.12208,0.40588 0.44184,0.55157 0.71194,0.32438 0.67416,0.34569 1.08747,-0.61357 z m -22.86401,-1.90543 c 0.37755,-1.4372 1.42245,-5.64318 1.42245,-5.7257 0,-0.0457 -0.57368,-0.13659 -1.27484,-0.20206 -1.3704,-0.12797 -3.35363,-0.89843 -4.08764,-1.588 -0.24889,-0.23382 -0.52057,-0.35682 -0.60374,-0.27335 -0.0832,0.0835 -0.13847,0.86765 -0.12289,1.74261 0.0226,1.26676 0.13372,1.80462 0.54566,2.64031 0.89157,1.80866 3.05057,4.15833 3.8209,4.15833 0.0564,0 0.19143,-0.33846 0.3001,-0.75214 z m 14.20201,-14.04457 c 2.21609,-4.54311 2.39759,-4.84595 2.90812,-4.85241 0.34007,-0.004 0.62772,-0.16238 0.76613,-0.421 0.1702,-0.31802 0.28415,-0.36219 0.49118,-0.19038 0.20562,0.17065 0.36353,0.12285 0.66572,-0.20151 0.54448,-0.58443 0.67546,-1.41984 0.52154,-3.32658 l -0.13121,-1.62542 3.15593,-6.46366 c 2.55145,-5.22565 3.1338,-6.57425 3.04045,-7.041 -0.1507,-0.7535 -2.19079,-5.24337 -2.72044,-5.9872 l -0.41068,-0.57674 1.09923,-5.89031 c 0.60458,-3.23967 1.09958,-6.2316 1.10001,-6.64874 8.8e-4,-0.85551 -0.49385,-1.23739 -0.89403,-0.6901 -0.1293,0.17682 -0.71995,3.03428 -1.31255,6.3499 l -1.07747,6.02841 -0.74824,0.80242 c -0.57833,0.62021 -0.81811,1.10999 -1.05592,2.15684 -0.59738,2.62981 -0.94771,4.98848 -1.0502,7.07071 -0.19165,3.89366 -0.35211,3.88225 -1.4987,-0.1066 -0.97774,-3.40145 -1.74457,-7.46568 -1.92167,-10.18495 -0.0939,-1.44187 -0.21975,-2.10748 -0.42737,-2.26052 -0.2401,-0.17697 -0.28875,-0.82197 -0.26428,-3.50339 0.0914,-10.0113 1.80843,-15.55268 9.53695,-30.77803 l 4.07248,-8.02287 0.13028,-4.01144 c 0.10968,-3.37722 0.0877,-3.95758 -0.13921,-3.6708 -0.56934,0.71964 -1.74555,4.15835 -2.06307,6.03149 -0.36548,2.15607 -0.74651,2.8481 -1.68123,3.0534 -0.70009,0.15377 -1.05175,0.76229 -4.98479,8.62593 -3.01121,6.02054 -5.13065,11.12611 -6.1614,14.84231 -0.39777,1.43409 -0.84562,3.01359 -0.99524,3.51 -0.40828,1.35469 -0.90581,4.99955 -1.03891,7.61092 -0.065,1.27456 -0.20294,2.42514 -0.30661,2.55685 -0.12511,0.15893 -0.52364,0.19977 -1.18505,0.12143 -0.89975,-0.10656 -1.0536,-0.0634 -1.58399,0.44479 -0.98315,0.94192 -1.30203,2.23302 -1.28713,5.21147 0.0159,3.17531 0.30326,4.37358 1.6766,6.991 l 1.00681,1.91886 0.19386,-0.74435 c 0.10663,-0.4094 0.39955,-1.53981 0.65093,-2.51202 0.53347,-2.06313 0.71806,-2.01606 1.28132,0.32673 0.59194,2.46208 1.77369,6.23533 3.77036,12.03852 l 1.92101,5.58329 -0.31271,1.537 c -0.17199,0.84535 -0.38991,1.61864 -0.48426,1.71842 -0.2381,0.25179 -2.27716,-1.32441 -2.99464,-2.31488 -0.57674,-0.79617 -1.0604,-1.9315 -1.30465,-3.06256 -0.10593,-0.49052 -0.16691,-0.53819 -0.38484,-0.30086 -0.34069,0.37103 -1.00098,2.09915 -1.56383,4.09288 -0.64636,2.28957 -0.60936,5.41997 0.0994,8.40751 0.38701,1.63141 0.64862,2.31894 1.02596,2.69627 l 0.50648,0.50649 2.36361,-4.84552 z m -11.40277,3.04752 c 1.04982,-3.98235 2.0348,-8.21436 1.95826,-8.41381 -0.17049,-0.4443 -4.06348,-3.2425 -5.01857,-3.60725 -0.73499,-0.2807 -1.03975,-0.30996 -1.42064,-0.13642 -0.5861,0.26705 -1.11616,1.03497 -1.28533,1.86215 -0.11657,0.56995 -0.19533,0.46701 -1.19899,-1.56714 l -1.07422,-2.17717 -2.63566,-0.34361 c -4.34527,-0.5665 -5.05861,-0.5467 -5.3757,0.14924 -0.42355,0.92959 0.55741,2.41846 3.61306,5.48384 2.96271,2.97213 5.30475,4.75881 8.59188,6.55449 1.40999,0.77024 2.29102,1.40573 2.84115,2.04934 l 0.79741,0.93289 0.20735,-0.78655 z m 4.41341,-17.38385 c 0.79348,-3.11638 1.43991,-5.71193 1.43653,-5.76788 -0.003,-0.056 -0.39661,-0.0707 -0.87384,-0.0327 -1.14624,0.0912 -2.54817,-0.57243 -3.72126,-1.76143 -0.67374,-0.68289 -2.41014,-3.63419 -6.909,-11.743 -14.68463,-26.46781 -20.46331,-36.7433 -20.95647,-37.26422 -0.57253,-0.60476 -1.29602,-0.66272 -1.40087,-0.11221 -0.0347,0.18208 6.0342,11.22061 13.4864,24.53007 7.4522,13.30946 13.54907,24.26214 13.54861,24.33927 -4.6e-4,0.0771 -0.2261,0.58427 -0.50143,1.12696 -1.29,2.5427 0.0506,7.42105 3.0237,11.0029 0.61559,0.74163 1.18803,1.34841 1.2721,1.34841 0.0841,0 0.80206,-2.54977 1.59553,-5.66615 z m -18.84904,-9.42687 c -2.21874,-4.44016 -4.06258,-8.10396 -4.09742,-8.14179 -0.0348,-0.0378 -0.20263,0.20059 -0.37288,0.52982 -0.54085,1.04588 -2.48387,1.34625 -4.80225,0.74239 -0.63529,-0.16547 -1.20632,-0.30086 -1.26894,-0.30086 -0.0626,0 -0.0774,0.57292 -0.0328,1.27315 0.0577,0.90684 0.26388,1.6426 0.71647,2.55729 1.36052,2.74958 4.98778,6.3966 8.79727,8.84518 0.81268,0.52236 4.78777,2.56783 4.99022,2.56783 0.0574,0 -1.71092,-3.63285 -3.92967,-8.07301 z m 43.64603,-12.59283 c 2.20628,-4.53042 4.04152,-8.32275 4.07829,-8.42738 0.0368,-0.10464 -0.31567,-0.19025 -0.7832,-0.19025 -0.72856,0 -0.95743,-0.11287 -1.60125,-0.78966 -0.44775,-0.47069 -1.01827,-1.4429 -1.4124,-2.40686 -0.36367,-0.88946 -0.765,-1.6172 -0.89185,-1.6172 -0.49278,0 -1.78121,1.54197 -2.41805,2.89389 -1.63314,3.46693 -2.43032,11.19367 -1.58451,15.35814 0.16803,0.82735 0.37212,1.93452 0.45352,2.46037 l 0.14801,0.95608 4.01144,-8.23713 z m -54.15043,-8.45732 -4.29075,-8.68461 -0.87112,-0.33104 c -0.47911,-0.18208 -1.38181,-0.39486 -2.00601,-0.47285 -1.04109,-0.13007 -1.17654,-0.10016 -1.63852,0.36182 -0.31445,0.31445 -0.53919,0.41672 -0.59832,0.27227 -0.0521,-0.12724 -0.0955,0.3102 -0.0964,0.97209 -10e-4,0.77596 0.0534,1.06213 0.15363,0.80563 0.12777,-0.32712 0.18156,-0.25823 0.30274,0.38774 0.34305,1.82862 2.65966,5.54303 5.48283,8.79109 2.0274,2.33252 3.07901,3.287 4.96202,4.50371 0.7722,0.49896 1.73851,1.1708 2.14735,1.49298 0.69748,0.54964 0.47862,0.05 -3.54741,-8.09883 z m 64.63518,-12.97891 4.26704,-8.70688 -0.32519,-1.11859 c -0.39954,-1.37438 -1.19263,-2.76277 -1.74795,-3.05996 -0.95353,-0.51032 -2.38747,0.94548 -3.63193,3.68728 -0.88254,1.94443 -1.3974,3.54504 -2.14646,6.67301 -0.55507,2.31787 -0.63559,3.04178 -0.7251,6.51858 -0.0554,2.15114 -0.0685,4.09167 -0.0291,4.3123 0.0437,0.24444 1.73853,-3.00017 4.33866,-8.30574 z m -9.18227,-30.94053 c 0.17732,-0.3772 0.20399,-0.88213 0.09,-1.70486 l -0.16189,-1.16893 -0.16379,1.50428 c -0.18884,1.73439 -0.12106,2.1283 0.23564,1.36951 z"
           style="fill:#1d7319"
           inkscape:connector-curvature="0" />
      </g>
      <text
         transform="scale(0.98177578,1.0185625)"
         sodipodi:linespacing="125%"
         id="text3007-69"
         y="762.2677"
         x="70.221001"
         style="font-size:119.68241119px;font-style:normal;font-weight:normal;line-height:125%;letter-spacing:0px;word-spacing:0px;fill:#008000;fill-opacity:1;stroke:none;font-family:Sans"
         xml:space="preserve"><tspan
           style="font-size:70.68785095px;fill:#008000"
           y="762.2677"
           x="70.221001"
           id="tspan3009-3"
           sodipodi:role="line">Dire   ctory</tspan></text>
    </g>
  </g>
</svg>
